<?xml version="1.0" encoding="UTF-8" standalone="no"?>
<!-- Created with Inkscape (http://www.inkscape.org/) -->

<svg
   width="50mm"
   height="50mm"
   viewBox="0 0 50 50"
   version="1.1"
   id="svg6293"
   xmlns="http://www.w3.org/2000/svg"
   xmlns:svg="http://www.w3.org/2000/svg">
  <defs
     id="defs6290" />
  <g
     id="layer1">
    <g
       id="g6433"
       transform="translate(-56.396663,-64.274541)">
      <path
         style="fill:#b6dbfc;fill-opacity:1;stroke:#000000;stroke-width:0;stroke-linecap:butt;stroke-linejoin:miter;stroke-dasharray:none;stroke-opacity:1"
         d="m 69.988779,84.620996 c 0,0 -4.174217,-1.192393 -5.017024,0.371642 -0.614049,1.139498 0.591227,2.803478 1.589179,3.563395 1.349914,1.027929 3.275911,0.574681 4.927927,0.569261 2.560029,-0.357501 0.698105,1.567227 0.502015,2.153188 -0.665219,2.026185 1.331092,5.55915 3.262836,5.251477 0.592738,-0.09437 0.162311,-1.341958 0.527334,-1.854802 1.044718,-1.006743 0.763612,-1.214596 0.102864,-0.1007 0.655892,0.497642 2.542328,0.513187 5.037665,0.735801 3.141936,0.280311 6.616242,0.11432 9.241955,0.06149 2.59372,-0.05214 4.462094,-0.117622 2.676314,-0.02339 0,0 0.345091,1.269019 1.21929,1.517207 1.172943,0.333 2.182507,-0.326823 3.689023,-0.836763 0.866828,-0.293421 -0.852823,-1.223745 -1.348512,-2.045486 C 95.971419,93.273425 96.011401,92.882358 95.08404,92.616396 88.888373,90.839445 78.285811,82.508761 78.285811,82.508761 Z"
         id="path21022-1-8-3-4" />
      <g
         id="g3218-7-9-3"
         style="opacity:0.670769;fill:#0760ae;fill-opacity:1;stroke-width:0.726798"
         transform="matrix(1.3761,0,0,1.37569,18.54256,-107.33458)">
        <path
           style="fill:#0760ae;fill-opacity:1;stroke:#000000;stroke-width:0;stroke-linecap:butt;stroke-linejoin:miter;stroke-dasharray:none;stroke-opacity:1"
           d="m 40.784642,146.54764 c -0.365469,0.43204 -0.138986,1.63667 0.426863,1.64311 0.467193,0.005 0.11795,-0.97548 0.383209,-1.34827 -0.03017,0.0331 0.09602,-0.10607 0.07475,-0.0732 0.148939,0.0998 0.527581,0.20529 0.9621,0.28269 0.769316,0.13704 2.761144,0.24881 2.767249,0.25535 -0.499274,-0.0567 -2.877913,-0.55112 -3.942996,-0.84977 -0.217347,-0.0609 -0.522551,-0.0798 -0.671175,0.09 -9e-6,1e-5 0,4e-5 0,4e-5 z"
           id="path21022-1-2-74-9-04" />
        <path
           style="opacity:0.670769;fill:#0760ae;fill-opacity:1;stroke:#000000;stroke-width:0;stroke-linecap:butt;stroke-linejoin:miter;stroke-dasharray:none;stroke-opacity:1"
           d="m 39.401025,144.14147 c 0.353132,1.20102 14.473552,5.2517 16.881937,1.82537 -1.034991,0.46481 -12.743581,-0.006 -13.572881,-0.56584 -1.402712,-0.31557 -2.594263,-2.14892 -3.309056,-1.25953 z"
           id="path21022-1-2-74-9-0-8" />
        <path
           style="fill:#0760ae;fill-opacity:1;stroke:#000000;stroke-width:0;stroke-linecap:butt;stroke-linejoin:miter;stroke-dasharray:none;stroke-opacity:1"
           d="m 53.991195,147.33185 c 0,0 0.250775,0.92246 0.886048,1.10287 0.852367,0.24206 1.586012,-0.23756 2.680781,-0.60825 0.605543,-0.20504 -2.552949,0.87857 -2.984194,-0.36896 -0.01736,-0.0502 -0.0303,-0.1042 -0.03839,-0.1622 0.177367,0.04 -0.362831,0.0243 -0.544241,0.0365 z"
           id="path21022-1-2-2-4-7-7" />
        <path
           style="fill:#0760ae;fill-opacity:1;stroke:#000000;stroke-width:0;stroke-linecap:butt;stroke-linejoin:miter;stroke-dasharray:none;stroke-opacity:1"
           d="m 34.894538,142.39444 c 0.980971,0.74721 2.380576,0.41774 3.581082,0.4138 0.620962,-0.11774 0.933884,0.005 1.150759,0.4412 0.100557,0.20248 0.203553,0.42273 0.304711,0.65035 -4.684832,-1.63416 17.015155,1.52304 12.299735,-0.0206 -2.09179,-3.88557 -8.672442,-5.5085 -12.743262,-4.37259 -0.119257,0.0333 0.623367,0.87409 0.508908,1.33703 -0.1965,0.79476 -0.97759,1.50646 -1.84258,1.6234 -1.076928,0.14559 -2.732687,0.25906 -3.259353,-0.0726 z"
           id="path21022-1-2-7-9-0-5" />
      </g>
      <path
         style="fill:#e5ad81;fill-opacity:1;stroke:#453221;stroke-width:0;stroke-linecap:butt;stroke-linejoin:miter;stroke-dasharray:none;stroke-opacity:1"
         d="m 72.482118,83.268871 c -1.034649,0.52799 -3.252984,0.292513 -3.130955,1.520798 0.25453,2.561947 5.632369,-0.502622 7.005174,1.605279 0.938784,1.441475 -2.141174,3.731188 -0.664767,5.237087 0.595521,0.607422 17.965673,5.942141 20.72151,-0.550001 0.288839,-0.680444 -1.058068,-0.967757 -1.583884,-1.4557 -2.027838,-1.881765 -3.623391,-4.483567 -6.058543,-5.676496 -4.208926,-2.061843 -9.17408,-2.850127 -13.735973,-2.04744 -0.937379,0.164946 -1.693935,0.928316 -2.552562,1.366473 z"
         id="path21020-5-1-3-9" />
      <path
         style="fill:#dfcab8;fill-opacity:1;stroke:#453221;stroke-width:0;stroke-linecap:butt;stroke-linejoin:miter;stroke-dasharray:none;stroke-opacity:1"
         d="m 76.643671,86.342176 c -1.251457,-1.650993 -5.067546,-2.851709 -5.680249,-2.839025 -0.798197,0.01651 -1.671538,0.549286 -1.606244,1.289104 0.226338,2.564575 4.070517,1.074799 4.64733,2.903779 0.351105,1.113291 -2.62695,1.672743 -1.242197,3.263371 0.584801,0.671749 21.528947,8.145557 24.409065,0.907501 0.273303,-0.686827 -1.644319,-2.187636 -2.336164,-2.237986 -0.469116,-0.03425 -1.06138,1.715086 -1.943899,2.028482 -5.357525,1.902497 -13.536846,0.683966 -17.017251,-1.900185 -0.817248,-0.60679 1.762486,-2.105177 0.769609,-3.415041 z"
         id="path21020-0-0-5-9-5" />
      <path
         style="fill:#e2d1c2;fill-opacity:1;stroke:#000000;stroke-width:0;stroke-linecap:round;stroke-linejoin:round;stroke-dasharray:none;stroke-opacity:1"
         d="m 78.635369,86.729667 c -0.793277,0.837713 -2.334596,2.39044 -1.526952,3.055573 0.724822,0.596925 3.620665,2.029803 4.939419,1.243665 1.026053,-0.61166 0.193228,-2.558151 -0.25491,-3.716055 -0.224998,-0.581353 -0.556224,-1.316247 -1.161394,-1.465771 -0.706286,-0.174492 -1.416984,0.27097 -1.996163,0.882588 z"
         id="path25047-8-5-8-3" />
      <path
         style="fill:#e2d1c2;fill-opacity:1;stroke:#000000;stroke-width:0;stroke-linecap:round;stroke-linejoin:round;stroke-dasharray:none;stroke-opacity:1"
         d="m 83.434624,87.871077 c -0.210455,1.139429 -1.168317,2.958077 -0.160782,3.253122 2.15497,0.631029 2.038455,0.278164 2.802359,-0.02229 0.922997,-0.363085 0.782819,-2.290248 0.37888,-3.332842 -0.263586,-0.680334 -0.794692,-1.544144 -1.647968,-1.44054 -0.644664,0.07828 -1.27581,1.019166 -1.372489,1.542602 z"
         id="path25049-4-5-6-2" />
      <path
         style="fill:#e2d1c2;fill-opacity:1;stroke:#000000;stroke-width:0;stroke-linecap:round;stroke-linejoin:round;stroke-dasharray:none;stroke-opacity:1"
         d="m 87.870573,91.481287 c 1.023524,0.809414 1.306792,0.142892 2.828114,-0.177134 1.229993,-0.25874 0.249896,-2.444354 -0.359843,-3.411822 -0.373831,-0.59317 -1.092548,-1.151149 -1.791923,-1.101515 -0.528665,0.03756 -1.034143,0.52052 -1.223365,1.01559 -0.442163,1.156831 -0.371311,2.948654 0.547017,3.674881 z"
         id="path25051-9-8-5-7" />
      <path
         style="fill:#e2d1c2;fill-opacity:1;stroke:#000000;stroke-width:0;stroke-linecap:round;stroke-linejoin:round;stroke-dasharray:none;stroke-opacity:1"
         d="m 91.506691,87.834718 c 0.151774,1.098859 0.08112,2.847843 1.156389,3.120491 0.692709,0.175648 1.612856,-1.412435 1.612856,-1.412435 l -2.64752,-3.219046 c 0,0 -0.190861,1.010445 -0.12173,1.51099 z"
         id="path25053-3-2-7-3" />
      <path
         style="fill:#e2d1c2;fill-opacity:1;stroke:#000000;stroke-width:0;stroke-linecap:round;stroke-linejoin:round;stroke-dasharray:none;stroke-opacity:1"
         d="m 83.035274,86.03808 c 0.76203,-0.07277 1.418095,-0.778874 1.776543,-1.45526 0.211063,-0.398276 0.335006,-0.949652 0.12173,-1.346745 -0.294519,-0.548364 -1.023436,-0.830119 -1.64329,-0.88688 -0.785494,-0.07195 -1.729918,0.135643 -2.251914,0.726956 -0.383141,0.434044 -0.518531,1.160917 -0.324322,1.706323 0.519054,0.896413 1.445543,1.339262 2.321253,1.255606 z"
         id="path25785-0-9-6-9" />
      <path
         style="fill:#e2d1c2;fill-opacity:1;stroke:#000000;stroke-width:0;stroke-linecap:round;stroke-linejoin:round;stroke-dasharray:none;stroke-opacity:1"
         d="m 86.560442,86.732639 c 0.586607,0.03989 1.050536,-0.644401 1.324933,-1.164398 0.195614,-0.370707 0.366511,-0.888022 0.152152,-1.248205 -0.420844,-0.707146 -1.577598,-1.341312 -2.296396,-0.90614 -0.383256,0.267889 -0.461832,0.880951 -0.400286,1.34449 0.101804,0.766796 0.543999,1.876785 1.219597,1.974253 z"
         id="path25787-5-8-2-7" />
      <path
         style="fill:#e2d1c2;fill-opacity:1;stroke:#000000;stroke-width:0;stroke-linecap:round;stroke-linejoin:round;stroke-dasharray:none;stroke-opacity:1"
         d="m 88.554864,84.517131 c -0.209945,0.247212 -0.05126,0.692178 0.124055,0.965033 0.492256,0.766163 1.486466,1.81027 2.319803,1.44303 0.288537,-0.127114 0.173228,-0.929939 0.173228,-0.929939 L 89.498229,84.48428 c 0,0 -0.739686,-0.206973 -0.943364,0.03288 z"
         id="path25789-2-2-7-7" />
      <path
         style="fill:#e2d1c2;fill-opacity:1;stroke:#000000;stroke-width:0;stroke-linecap:round;stroke-linejoin:round;stroke-dasharray:none;stroke-opacity:1"
         d="m 73.580832,83.704786 c 1.170492,0.62206 1.584836,1.164384 2.972915,1.079421 0.683212,-0.04182 0.554427,-1.123333 0.788877,-1.70353 0.104226,-0.257928 0.541293,-0.711658 0.273884,-0.788339 -1.125609,-0.322792 -1.615723,-0.246593 -2.371305,0.02834 -0.678103,0.246675 -2.416378,0.984512 -1.664371,1.384178 z"
         id="path25791-3-0-0-9" />
      <path
         style="fill:#e2d1c2;fill-opacity:1;stroke:#000000;stroke-width:0;stroke-linecap:round;stroke-linejoin:round;stroke-dasharray:none;stroke-opacity:1"
         d="m 78.29437,82.877116 c 0.373193,0.574543 1.403057,0.292554 2.05382,0.07841 0.326855,-0.107579 1.049389,-0.400559 0.806534,-0.644345 -0.45218,-0.453896 -2.093929,-0.173214 -2.554237,-0.199255 -0.27429,-0.01555 -0.455767,0.534827 -0.306117,0.765227 z"
         id="path26525-8-7-3-5" />
      <path
         style="fill:#e2d1c2;fill-opacity:1;stroke:#000000;stroke-width:0;stroke-linecap:round;stroke-linejoin:round;stroke-dasharray:none;stroke-opacity:1"
         d="m 77.316976,84.832797 c 0.01466,0.406021 0.250333,0.926678 0.641532,1.036362 0.591176,0.165757 1.248873,-0.362535 1.642374,-0.833833 0.296092,-0.354625 0.809442,-1.120197 0.396796,-1.327926 -0.50907,-0.256277 -1.51304,-0.283736 -1.964852,-0.242562 -0.512524,0.04677 -0.73442,0.853643 -0.71585,1.367959 z"
         id="path26527-7-4-9-3" />
      <path
         style="fill:#1c405f;fill-opacity:1;stroke:#000000;stroke-width:0;stroke-linecap:butt;stroke-linejoin:miter;stroke-dasharray:none;stroke-opacity:1"
         d="m 66.425647,86.095226 c 0.302661,-0.0282 0.561414,-0.571957 0.838199,-0.424716 0.08686,0.04636 0.08858,0.205954 0.05715,0.303628 -0.05169,0.160667 -0.218728,0.258809 -0.362082,0.333825 -0.156791,0.08199 -0.339804,0.128352 -0.513818,0.111018 -0.225434,-0.02256 -0.50259,-0.07305 -0.628903,-0.272744 -0.13949,-0.545214 0.449391,-0.04595 0.609451,-0.05104 z"
         id="path8680-5-7-8-5-6-4-9-8-8-9-3" />
    </g>
  </g>
</svg>
