<?xml version="1.0" encoding="UTF-8" standalone="no"?>
<!-- Created with Inkscape (http://www.inkscape.org/) -->

<svg
   width="50mm"
   height="50mm"
   viewBox="0 0 50 50"
   version="1.1"
   id="svg4159"
   xmlns="http://www.w3.org/2000/svg"
   xmlns:svg="http://www.w3.org/2000/svg">
  <defs
     id="defs4156" />
  <g
     id="layer1">
    <g
       id="g4388"
       transform="translate(-157.76217,-172.30337)">
      <path
         style="fill:#7cadd9;fill-opacity:0.976471;stroke:#000000;stroke-width:0;stroke-linecap:butt;stroke-linejoin:miter;stroke-dasharray:none;stroke-opacity:1"
         d="m 185.30366,196.77355 c 0.81896,0.33166 1.77063,0.32058 2.58164,-0.0301 0.81101,-0.35064 1.47099,-1.03637 1.79037,-1.86019 0.37651,-0.9712 0.28506,-2.07321 0.64906,-3.04917 0.15301,-0.41025 0.38908,-0.79522 0.71872,-1.08341 0.32964,-0.28819 0.75732,-0.47405 1.19517,-0.47249 0.21892,7.8e-4 0.43821,0.0482 0.63539,0.14329 0.19718,0.0951 0.37174,0.23837 0.49871,0.41672 0.12696,0.17835 0.2055,0.39178 0.2185,0.61032 0.013,0.21854 -0.0404,0.44144 -0.15602,0.62734 -0.14613,0.23492 -0.38048,0.39995 -0.61773,0.54225 -0.23725,0.14231 -0.48667,0.27061 -0.6898,0.45844 -0.20118,0.18603 -0.3493,0.42464 -0.45158,0.67884 -0.10228,0.25421 -0.16024,0.5243 -0.19796,0.7957 -0.0754,0.5428 -0.0721,1.0979 -0.20353,1.62993 -0.17737,0.71828 -0.60336,1.37064 -1.18187,1.83186 -0.5785,0.46122 -1.30515,0.73049 -2.04393,0.77038 -0.50569,0.0273 -1.0271,-0.0477 -1.50958,0.10615 -0.24124,0.0769 -0.46887,0.21454 -0.61908,0.41839 -0.0751,0.10192 -0.12987,0.21943 -0.15461,0.3436 -0.0247,0.12416 -0.019,0.25493 0.0215,0.37491 0.042,0.12476 0.12057,0.23563 0.21765,0.32455 0.0971,0.0889 0.21233,0.15657 0.33358,0.20785 0.2425,0.10257 0.50644,0.14023 0.76418,0.19406 1.36034,0.28413 2.5812,1.02936 3.91787,1.40958 0.66834,0.19011 1.3738,0.28739 2.06038,0.18049 0.68658,-0.10689 1.35438,-0.43288 1.78766,-0.9761 0.34575,-0.43348 0.52468,-0.97452 0.81331,-1.44796 0.14432,-0.23672 0.31887,-0.45907 0.54081,-0.62522 0.22194,-0.16615 0.495,-0.27318 0.77208,-0.26382 0.31786,0.0107 0.62145,0.17731 0.82341,0.423 0.20196,0.24569 0.30571,0.56436 0.31593,0.88224 0.0102,0.31788 -0.0693,0.63476 -0.20211,0.92376 -0.13276,0.28901 -0.31758,0.55165 -0.52253,0.79485 -1.045,1.24 -2.62043,1.97084 -4.23106,2.15926 -1.61063,0.18841 -3.25246,-0.13422 -4.75794,-0.73686 -0.9411,-0.37672 -1.84473,-0.86664 -2.61502,-1.52562 -0.77028,-0.65898 -1.40435,-1.49379 -1.7457,-2.4483 -0.0446,-0.12462 -0.0843,-0.25137 -0.1407,-0.37108 -0.0564,-0.11971 -0.13106,-0.23343 -0.23415,-0.31643 -0.0995,-0.0801 -0.22741,-0.12937 -0.35467,-0.11841 -0.0636,0.005 -0.1262,0.026 -0.17945,0.0612 -0.0533,0.0353 -0.0969,0.0854 -0.12234,0.14399 -0.031,0.0715 -0.034,0.15362 -0.0153,0.22931 0.0188,0.0757 0.0584,0.14521 0.10852,0.20499 0.10016,0.11955 0.2385,0.19924 0.3706,0.28216 1.32024,0.82875 2.22551,2.16064 3.30134,3.28867 0.53791,0.56402 1.13108,1.0866 1.81881,1.45333 0.68773,0.36673 1.47883,0.57073 2.25215,0.4736 0.53929,-0.0677 1.04896,-0.27672 1.57096,-0.42816 0.52201,-0.15143 1.08657,-0.24467 1.60434,-0.0793 0.42611,0.13606 0.79125,0.44696 1.00403,0.84042 0.21278,0.39345 0.27351,0.86452 0.17919,1.30176 -0.0943,0.43725 -0.34083,0.83822 -0.68065,1.1291 -0.33981,0.29087 -0.77011,0.47174 -1.21444,0.52321 -0.54682,0.0633 -1.10199,-0.0655 -1.60865,-0.28071 -0.50667,-0.21522 -0.97234,-0.51458 -1.43721,-0.8094 -1.58987,-1.00829 -3.20311,-1.98094 -4.75847,-3.04169 -1.0069,-0.6867 -2.00598,-1.42676 -2.72177,-2.41319 -0.3579,-0.49322 -0.64043,-1.04548 -0.79204,-1.63571 -0.15161,-0.59022 -0.16923,-1.2194 -0.012,-1.80817 0.0318,-0.11924 0.0708,-0.23744 0.0839,-0.36016 0.013,-0.12272 -0.002,-0.25328 -0.0715,-0.35554 -0.0471,-0.0697 -0.11736,-0.12274 -0.19569,-0.15356 -0.0783,-0.0308 -0.16445,-0.04 -0.24818,-0.0313 -0.16747,0.0174 -0.32096,0.10391 -0.45091,0.21096 -0.35223,0.29017 -0.55544,0.73392 -0.61974,1.18573 -0.0643,0.45182 -2.8e-4,0.9132 0.10964,1.35613 0.10992,0.44293 0.26529,0.87323 0.38796,1.3128 0.12267,0.43957 0.213,0.89417 0.18804,1.34985 -0.0415,0.75722 -0.40636,1.47636 -0.93213,2.02286 -0.52577,0.54651 -1.20374,0.92991 -1.91662,1.18856 -1.42577,0.5173 -2.97534,0.55163 -4.46218,0.85113 -0.51716,0.10417 -1.0279,0.24075 -1.54865,0.32515 -0.52075,0.0844 -1.05713,0.11569 -1.57373,0.009 -0.51659,-0.10692 -1.01454,-0.36217 -1.3443,-0.77394 -0.16489,-0.20588 -0.28541,-0.44859 -0.33963,-0.70673 -0.0542,-0.25814 -0.041,-0.5315 0.0477,-0.77992 0.122,-0.34177 0.38326,-0.62482 0.69699,-0.80721 0.31373,-0.1824 0.67712,-0.26885 1.0396,-0.28632 0.72495,-0.0349 1.43228,0.19512 2.13724,0.36778 0.71708,0.17563 1.45219,0.29406 2.19041,0.28541 0.73823,-0.009 1.48148,-0.14765 2.14711,-0.467 0.66563,-0.31936 1.25056,-0.82579 1.60717,-1.47223 0.35661,-0.64644 0.47134,-1.43521 0.2539,-2.14074 -0.0709,-0.23023 -0.17501,-0.4486 -0.2649,-0.67212 -0.10181,-0.25317 -0.18619,-0.51624 -0.21042,-0.78803 -0.0242,-0.2718 0.0149,-0.55443 0.14752,-0.79289 0.0982,-0.17656 0.24731,-0.3256 0.42732,-0.41734 0.18,-0.0917 0.3906,-0.12473 0.58876,-0.0854 0.15299,0.0304 0.2967,0.10297 0.41552,0.20403 0.11881,0.10105 0.21291,0.23007 0.2778,0.37192 0.12978,0.28368 0.14042,0.6126 0.0693,0.91636 -0.0711,0.30375 -0.21954,0.58473 -0.39619,0.84185 -0.17666,0.25712 -0.38197,0.493 -0.57991,0.73412 -0.53736,0.65458 -1.02854,1.35709 -1.67257,1.90704 -1.2306,1.05083 -2.93658,1.44372 -4.54651,1.28016 -1.60993,-0.16357 -3.13237,-0.84074 -4.49171,-1.7187 -0.54986,-0.35514 -1.09883,-0.76867 -1.38185,-1.35889 -0.14151,-0.29511 -0.20946,-0.63019 -0.16109,-0.95388 0.0484,-0.32369 0.21928,-0.63345 0.48688,-0.82188 0.15365,-0.10819 0.33518,-0.17473 0.52146,-0.19949 0.18627,-0.0248 0.37711,-0.008 0.5587,0.04 0.36318,0.0967 0.68335,0.31791 0.95101,0.58174 0.53533,0.52766 0.88116,1.22647 1.43276,1.73708 0.58235,0.53908 1.38271,0.83549 2.17571,0.80579 0.793,-0.0297 1.56894,-0.38518 2.10932,-0.96632 0.21011,-0.31581 0.40681,-0.64054 0.58938,-0.97302 0.6654,-1.21175 1.16341,-2.55475 2.14552,-3.52766 0.92482,-0.91616 2.24494,-1.41889 3.5449,-1.34998 1.29996,0.0689 2.55953,0.7084 3.3823,1.71721 z"
         id="path16381-3-6-3-2" />
      <ellipse
         style="fill:#b6dbfc;fill-opacity:1;stroke:#8f66a1;stroke-width:0;stroke-linecap:round;stroke-linejoin:round;stroke-dasharray:none;stroke-opacity:1;paint-order:stroke fill markers"
         id="path9059-64-0-7-9-3-2-6-9"
         cx="199.37149"
         cy="-178.97145"
         rx="0.31876171"
         ry="0.48106438"
         transform="matrix(-0.02888792,0.99958266,-0.99975504,-0.02213294,0,0)" />
      <ellipse
         style="fill:#3d75a6;fill-opacity:0.984314;stroke:#8f66a1;stroke-width:0;stroke-linecap:round;stroke-linejoin:round;stroke-dasharray:none;stroke-opacity:1;paint-order:stroke fill markers"
         id="path9059-6-3-4-9-9-1-1-54-4-8"
         cx="199.37291"
         cy="-178.9393"
         rx="0.14161155"
         ry="0.21371537"
         transform="matrix(-0.02888792,0.99958266,-0.99975504,-0.02213294,0,0)" />
      <ellipse
         style="fill:#b6dbfc;fill-opacity:1;stroke:#8f66a1;stroke-width:0;stroke-linecap:round;stroke-linejoin:round;stroke-dasharray:none;stroke-opacity:1;paint-order:stroke fill markers"
         id="path9059-64-0-7-9-3-0-2-5"
         cx="199.43112"
         cy="-180.52472"
         rx="0.31876171"
         ry="0.48106438"
         transform="matrix(-0.02888792,0.99958266,-0.99975504,-0.02213294,0,0)" />
      <ellipse
         style="fill:#3d75a6;fill-opacity:0.984314;stroke:#8f66a1;stroke-width:0;stroke-linecap:round;stroke-linejoin:round;stroke-dasharray:none;stroke-opacity:1;paint-order:stroke fill markers"
         id="path9059-6-3-4-9-9-1-1-1-0-5"
         cx="199.43254"
         cy="-180.49257"
         rx="0.14161155"
         ry="0.21371537"
         transform="matrix(-0.02888792,0.99958266,-0.99975504,-0.02213294,0,0)" />
      <g
         id="g17585-3-2-6-45"
         transform="matrix(0.87850825,0,0,0.87853095,159.44568,17.970654)"
         style="stroke-width:1.13828">
        <path
           style="fill:#581277;fill-opacity:1;stroke:#581277;stroke-width:0;stroke-linecap:butt;stroke-linejoin:miter;stroke-dasharray:none;stroke-opacity:1"
           d="m 26.618843,195.14535 c 0.590895,-0.0509 1.096076,-1.03449 1.636453,-0.76817 0.169591,0.0837 0.172925,0.37251 0.111593,0.54917 -0.100903,0.2906 -0.427031,0.46812 -0.706909,0.60382 -0.30611,0.14839 -0.663414,0.23211 -1.003148,0.20078 -0.440132,-0.0407 -0.981233,-0.13223 -1.227839,-0.49333 -0.272333,-0.98616 0.877366,-0.083 1.18986,-0.0923 z"
           id="path8680-5-7-8-5-5-3-2-0-1" />
        <path
           style="fill:#581277;fill-opacity:1;stroke:#000000;stroke-width:0;stroke-linecap:butt;stroke-linejoin:miter;stroke-dasharray:none;stroke-opacity:1"
           d="m 22.364887,195.44683 c 0.590895,-0.0509 1.096075,-1.03449 1.636452,-0.76817 0.169591,0.0837 0.172925,0.37252 0.111593,0.54917 -0.100903,0.2906 -0.42703,0.46813 -0.706909,0.60382 -0.306109,0.14839 -0.663413,0.23212 -1.003148,0.20078 -0.440131,-0.0407 -0.981233,-0.13222 -1.227839,-0.49333 -0.272333,-0.98616 0.877367,-0.083 1.18986,-0.0923 z"
           id="path8680-5-7-8-5-7-8-5-7-1" />
      </g>
      <path
         style="fill:#2c4963;fill-opacity:0.341297;stroke:#000000;stroke-width:0;stroke-linecap:butt;stroke-linejoin:miter;stroke-dasharray:none;stroke-opacity:1"
         d="m 179.14807,201.49336 c 0.001,0.68219 -0.3207,1.12066 -0.56217,1.37678 1.71338,0.1433 1.54095,0.59779 2.36818,0.85925 l 3.59288,-0.50463 c 0.004,-1.05103 0.85081,-1.21955 1.31478,-1.26394 l 0.37011,0.28915 c 0.0731,0.0409 -0.24881,-0.0706 0.87963,0.59978 1.95625,0.29393 2.97603,-0.0754 3.43855,-0.83967 l -4.11827,-3.23872 -0.24438,-0.3614 c 1.13266,-1.07948 1.72047,-1.1945 1.65396,-1.67438 -0.93898,0.3432 -1.65376,0.29717 -2.55757,0.0399 l -11.0567,3.88107 -2.9526,0.43465 c 0.85455,1.6176 1.86214,1.78625 3.04823,1.84381 1.44391,0.07 2.56425,0.0505 3.44834,-0.2814 z"
         id="path18449-2-2-61" />
      <path
         style="fill:#659fd2;fill-opacity:1;stroke:#000000;stroke-width:0;stroke-linecap:butt;stroke-linejoin:miter;stroke-dasharray:none;stroke-opacity:1"
         d="m 176.61341,193.31733 c -0.59709,-1.08361 -0.80946,-2.37426 -0.59106,-3.59205 0.2184,-1.2178 0.86605,-2.35421 1.80249,-3.16279 0.67497,-0.58281 1.49548,-0.99625 2.3661,-1.18929 0.87062,-0.19304 1.78967,-0.16504 2.64617,0.0832 0.85651,0.24829 1.64859,0.7166 2.27702,1.34931 0.62844,0.63271 1.09162,1.42861 1.32869,2.28829 0.42975,1.55842 0.10737,3.23659 -0.48721,4.73986 -0.24844,0.62811 -0.54446,1.24034 -0.71963,1.89269 -0.17517,0.65235 -0.22201,1.3636 0.0273,1.99137 0.27203,0.68502 0.87728,1.20323 1.55882,1.48387 0.68153,0.28064 1.43503,0.34405 2.17136,0.31131 1.37634,-0.0612 2.78652,-0.47998 3.78147,-1.43295 0.88134,-0.84415 1.37727,-2.04129 2.30923,-2.8292 0.37601,-0.31789 0.83602,-0.56588 1.32823,-0.57891 0.2461,-0.007 0.49569,0.0476 0.70927,0.17008 0.21358,0.12244 0.3892,0.31494 0.47678,0.54502 0.0669,0.17584 0.0817,0.36996 0.0509,0.55557 -0.0307,0.18562 -0.10608,0.36271 -0.21101,0.51888 -0.20984,0.31235 -0.53162,0.53557 -0.87437,0.69087 -0.6855,0.31058 -1.47162,0.37576 -2.12391,0.75112 -0.58853,0.33867 -1.01409,0.89972 -1.37372,1.47568 -0.35964,0.57596 -0.67333,1.18624 -1.11608,1.70105 -0.56563,0.65769 -1.33819,1.1392 -2.18312,1.33567 -0.84493,0.19648 -1.75807,0.10295 -2.53612,-0.28064 -0.50135,-0.24718 -0.94477,-0.60893 -1.46711,-0.80797 -0.26117,-0.0995 -0.54273,-0.15656 -0.82087,-0.12912 -0.27814,0.0275 -0.55271,0.14486 -0.73973,0.35256 -0.16592,0.18427 -0.25502,0.43058 -0.27042,0.67807 -0.0154,0.24748 0.0396,0.49603 0.13449,0.7251 0.18984,0.45816 0.5302,0.83385 0.83232,1.22713 0.36254,0.47193 0.67856,0.9843 0.88743,1.54155 0.20886,0.55724 0.30788,1.16184 0.23444,1.75239 -0.0734,0.59055 -0.3263,1.16564 -0.74983,1.58369 -0.42353,0.41806 -1.02243,0.66687 -1.61585,0.62218 -0.38052,-0.0286 -0.74844,-0.17452 -1.05885,-0.39648 -0.31041,-0.22196 -0.5644,-0.51814 -0.75658,-0.84782 -0.38434,-0.65936 -0.51873,-1.43563 -0.55924,-2.19776 -0.0324,-0.60934 -0.009,-1.22146 -0.0657,-1.82904 -0.0564,-0.60758 -0.19834,-1.22137 -0.53057,-1.7332 -0.32499,-0.50068 -0.82378,-0.88117 -1.38382,-1.0877 -0.56003,-0.20653 -1.17806,-0.24204 -1.76391,-0.1277 -0.74679,0.14575 -1.42844,0.5239 -2.16404,0.71842 -0.8246,0.21805 -1.71432,0.19634 -2.52023,-0.083 -0.80591,-0.27932 -1.52316,-0.81822 -1.99746,-1.52712 -0.4743,-0.7089 -0.69915,-1.58542 -0.60279,-2.4329 0.0964,-0.84748 0.51776,-1.65771 1.17049,-2.20675 0.11137,-0.0937 0.2296,-0.18024 0.35892,-0.247 0.35626,-0.18393 0.78958,-0.20539 1.16739,-0.0712 0.37781,0.13421 0.69697,0.41915 0.88617,0.77264 0.18919,0.35349 0.24965,0.77156 0.18312,1.16693 -0.0665,0.39538 -0.25745,0.76676 -0.52927,1.06149 -0.17225,0.18677 -0.37619,0.34403 -0.53384,0.54329 -0.0788,0.0996 -0.14577,0.20998 -0.18561,0.33061 -0.0398,0.12063 -0.0516,0.25215 -0.0214,0.37555 0.0446,0.18236 0.18012,0.33581 0.34705,0.4217 0.16693,0.0859 0.3622,0.10797 0.54828,0.0831 0.37216,-0.0497 0.69448,-0.27334 1.00328,-0.48692 0.55238,-0.38206 1.11463,-0.75408 1.61696,-1.1999 0.50233,-0.44583 0.94698,-0.97276 1.20808,-1.59157 0.2676,-0.6342 0.33077,-1.35281 0.17792,-2.02397 -0.15286,-0.67116 -0.52098,-1.29155 -1.03681,-1.74733 z"
         id="path16377-8-8-2-9-9" />
      <path
         style="fill:#b6dbfc;fill-opacity:1;stroke:#000000;stroke-width:0;stroke-linecap:butt;stroke-linejoin:miter;stroke-dasharray:none;stroke-opacity:1"
         d="m 175.53152,192.03813 c -0.24758,-1.1254 -0.15402,-2.32352 0.26526,-3.39685 0.41928,-1.07332 1.16262,-2.01762 2.10748,-2.67721 1.41187,-0.98561 3.27411,-1.30296 4.92782,-0.82333 1.65372,0.47962 3.06198,1.7517 3.69016,3.35488 0.63763,1.62731 0.46717,3.50504 -0.24694,5.10027 -0.25468,0.56892 -0.57519,1.10868 -0.79226,1.693 -0.21707,0.58431 -0.32585,1.23554 -0.14037,1.83063 0.11062,0.35492 0.32272,0.67477 0.59215,0.93092 0.26943,0.25615 0.59496,0.44987 0.9412,0.58523 0.69248,0.27071 1.45388,0.30806 2.19683,0.27904 0.6929,-0.0271 1.38908,-0.11022 2.04694,-0.32944 0.65787,-0.21922 1.27857,-0.58105 1.73453,-1.10349 0.37809,-0.43322 0.63039,-0.959 0.88789,-1.47314 0.2575,-0.51413 0.53127,-1.03254 0.94081,-1.43617 0.41955,-0.41349 0.99176,-0.69241 1.58066,-0.67836 0.29444,0.007 0.58834,0.0875 0.83933,0.24157 0.251,0.15411 0.45756,0.38277 0.57483,0.65295 0.15344,0.35351 0.1482,0.76433 0.0278,1.13042 -0.12036,0.3661 -0.3494,0.68981 -0.62353,0.96068 -0.54824,0.54173 -1.26304,0.87498 -1.90254,1.3052 -0.98104,0.66 -1.7829,1.54741 -2.66137,2.33881 -0.87847,0.7914 -1.8853,1.51135 -3.04942,1.71837 -1.25852,0.2238 -2.55318,-0.18203 -3.6801,-0.78536 -0.14754,-0.079 -0.2941,-0.1618 -0.45199,-0.21729 -0.15788,-0.0555 -0.32991,-0.0827 -0.49339,-0.0469 -0.11711,0.0257 -0.22652,0.0833 -0.31671,0.16226 -0.0902,0.079 -0.16134,0.17889 -0.21033,0.2883 -0.098,0.21883 -0.10582,0.47106 -0.053,0.70494 0.10556,0.46776 0.4317,0.84828 0.71589,1.23452 0.33975,0.46175 0.63395,0.96143 0.82471,1.50203 0.19076,0.5406 0.27553,1.12442 0.19573,1.69211 -0.0798,0.56769 -0.3307,1.11784 -0.74285,1.5163 -0.41216,0.39845 -0.98993,0.63376 -1.56146,0.58914 -0.37117,-0.029 -0.72937,-0.17252 -1.03274,-0.38831 -0.30338,-0.2158 -0.55323,-0.50201 -0.74787,-0.81937 -0.38929,-0.63472 -0.55596,-1.37909 -0.67415,-2.11424 -0.10175,-0.63291 -0.17283,-1.27367 -0.35274,-1.88895 -0.1799,-0.61527 -0.47964,-1.21368 -0.9643,-1.63324 -0.45315,-0.39228 -1.04222,-0.604 -1.63681,-0.67945 -0.59459,-0.0755 -1.19825,-0.0224 -1.79124,0.0648 -0.67946,0.0999 -1.35719,0.24469 -2.04391,0.23785 -0.75442,-0.008 -1.50894,-0.20329 -2.16112,-0.58259 -0.65219,-0.3793 -1.19899,-0.94338 -1.53861,-1.61707 -0.33963,-0.6737 -0.4678,-1.45563 -0.33985,-2.19916 0.12795,-0.74353 0.51501,-1.44338 1.09072,-1.931 0.11107,-0.0941 0.22934,-0.1807 0.35891,-0.24701 0.40246,-0.20596 0.90023,-0.19703 1.31005,-0.006 0.40983,0.19088 0.73009,0.55262 0.90205,0.97074 0.17195,0.41812 0.20059,0.88842 0.11502,1.33235 -0.0856,0.44392 -0.2818,0.86225 -0.53962,1.23363 -0.0856,0.12327 -0.17838,0.24241 -0.24728,0.37571 -0.0689,0.13331 -0.11324,0.28452 -0.0932,0.43323 0.014,0.10401 0.0596,0.20303 0.12657,0.28385 0.067,0.0808 0.15485,0.14354 0.25162,0.18419 0.19352,0.0813 0.41745,0.0724 0.61565,0.003 0.1982,-0.0691 0.37277,-0.19464 0.52451,-0.33968 0.15174,-0.14503 0.28272,-0.31002 0.41575,-0.47238 0.49084,-0.59906 1.01971,-1.17449 1.40634,-1.84555 0.19331,-0.33554 0.34988,-0.69433 0.43865,-1.07126 0.0888,-0.37692 0.10846,-0.77275 0.0316,-1.15228 -0.081,-0.39993 -0.26608,-0.77164 -0.47987,-1.11919 -0.21379,-0.34756 -0.45773,-0.67584 -0.67126,-1.02355 -0.16422,-0.26742 -0.31021,-0.54602 -0.43664,-0.83324 z"
         id="path16377-9-7-8-34" />
      <g
         id="g17585-5-1-7"
         transform="matrix(0.87850825,0,0,0.87853095,159.37587,18.630203)"
         style="fill:#204c73;fill-opacity:0.976471;stroke-width:1.13828">
        <path
           style="fill:#204c73;fill-opacity:0.976471;stroke:#581277;stroke-width:0;stroke-linecap:butt;stroke-linejoin:miter;stroke-dasharray:none;stroke-opacity:1"
           d="m 26.618843,195.14535 c 0.590895,-0.0509 1.096076,-1.03449 1.636453,-0.76817 0.169591,0.0837 0.172925,0.37251 0.111593,0.54917 -0.100903,0.2906 -0.427031,0.46812 -0.706909,0.60382 -0.30611,0.14839 -0.663414,0.23211 -1.003148,0.20078 -0.440132,-0.0407 -0.981233,-0.13223 -1.227839,-0.49333 -0.272333,-0.98616 0.877366,-0.083 1.18986,-0.0923 z"
           id="path8680-5-7-8-5-5-2-1-9" />
        <path
           style="fill:#204c73;fill-opacity:0.976471;stroke:#000000;stroke-width:0;stroke-linecap:butt;stroke-linejoin:miter;stroke-dasharray:none;stroke-opacity:1"
           d="m 22.364887,195.44683 c 0.590895,-0.0509 1.096075,-1.03449 1.636452,-0.76817 0.169591,0.0837 0.172925,0.37252 0.111593,0.54917 -0.100903,0.2906 -0.42703,0.46813 -0.706909,0.60382 -0.306109,0.14839 -0.663413,0.23212 -1.003148,0.20078 -0.440131,-0.0407 -0.981233,-0.13222 -1.227839,-0.49333 -0.272333,-0.98616 0.877367,-0.083 1.18986,-0.0923 z"
           id="path8680-5-7-8-5-7-1-6-8" />
      </g>
      <path
         style="fill:#659fd2;fill-opacity:1;stroke:#000000;stroke-width:0;stroke-linecap:butt;stroke-linejoin:miter;stroke-dasharray:none;stroke-opacity:1"
         d="m 186.61025,192.69809 c 0.12853,0.0768 -1.58313,2.32192 -1.76174,3.66571 -0.0939,0.70643 0.11959,1.60614 0.65495,2.12837 2.15255,2.09993 7.15028,0.25171 7.35086,-1.01039 -0.89813,1.2225 -4.51992,1.97769 -6.33479,0.98865 -0.61036,-0.33263 -1.12593,-1.00447 -1.23576,-1.69489 -0.0904,-0.56791 0.11642,-1.449 0.47667,-2.12617 0.59104,-1.11101 0.87069,-1.94041 0.8498,-1.95128 z"
         id="path4385-1-07" />
      <path
         style="fill:#659fd2;fill-opacity:1;stroke:#000000;stroke-width:0;stroke-linecap:butt;stroke-linejoin:miter;stroke-dasharray:none;stroke-opacity:1"
         d="m 176.63196,193.80659 c 0,0 0.63625,1.05509 0.88135,2.0939 0.55827,2.36612 -3.0627,4.77885 -3.58971,4.10254 0.28474,0.0627 1.46385,-0.6299 2.92489,-3.20716 0.39443,-0.69578 0.56857,-1.5359 -0.21653,-2.98928 z"
         id="path4899-1-58" />
      <ellipse
         style="fill:#b6dbfc;fill-opacity:1;stroke:#8f66a1;stroke-width:0;stroke-linecap:round;stroke-linejoin:round;stroke-dasharray:none;stroke-opacity:1;paint-order:stroke fill markers"
         id="path9059-64-5-0"
         cx="201.47264"
         cy="-175.67143"
         rx="0.66125989"
         ry="0.87389725"
         transform="matrix(-0.02529501,0.99968003,-0.99968048,-0.02527725,0,0)" />
      <ellipse
         style="fill:#3d75a6;fill-opacity:0.984314;stroke:#8f66a1;stroke-width:0;stroke-linecap:round;stroke-linejoin:round;stroke-dasharray:none;stroke-opacity:1;paint-order:stroke fill markers"
         id="path9059-6-3-4-00-70"
         cx="201.4756"
         cy="-175.61304"
         rx="0.29376817"
         ry="0.38823345"
         transform="matrix(-0.02529501,0.99968003,-0.99968048,-0.02527725,0,0)" />
      <ellipse
         style="fill:#b6dbfc;fill-opacity:1;stroke:#8f66a1;stroke-width:0;stroke-linecap:round;stroke-linejoin:round;stroke-dasharray:none;stroke-opacity:1;paint-order:stroke fill markers"
         id="path9059-64-2-7-82"
         cx="90.648712"
         cy="-245.74664"
         rx="0.66131657"
         ry="0.87382245"
         transform="matrix(-0.49495839,0.86891668,-0.8690659,-0.49469633,0,0)" />
      <ellipse
         style="fill:#3d75a6;fill-opacity:0.984314;stroke:#8f66a1;stroke-width:0;stroke-linecap:round;stroke-linejoin:round;stroke-dasharray:none;stroke-opacity:1;paint-order:stroke fill markers"
         id="path9059-6-3-4-3-01-3"
         cx="90.651657"
         cy="-245.68825"
         rx="0.29379332"
         ry="0.38820022"
         transform="matrix(-0.49495839,0.86891668,-0.8690659,-0.49469633,0,0)" />
      <ellipse
         style="fill:#b6dbfc;fill-opacity:1;stroke:#8f66a1;stroke-width:0;stroke-linecap:round;stroke-linejoin:round;stroke-dasharray:none;stroke-opacity:1;paint-order:stroke fill markers"
         id="path9059-64-2-1-3-38"
         cx="91.152939"
         cy="-247.71053"
         rx="0.66131657"
         ry="0.87382245"
         transform="matrix(-0.49495839,0.86891668,-0.8690659,-0.49469633,0,0)" />
      <ellipse
         style="fill:#3d75a6;fill-opacity:0.984314;stroke:#8f66a1;stroke-width:0;stroke-linecap:round;stroke-linejoin:round;stroke-dasharray:none;stroke-opacity:1;paint-order:stroke fill markers"
         id="path9059-6-3-4-3-0-7-3"
         cx="91.155891"
         cy="-247.65213"
         rx="0.29379332"
         ry="0.38820022"
         transform="matrix(-0.49495839,0.86891668,-0.8690659,-0.49469633,0,0)" />
      <ellipse
         style="fill:#b6dbfc;fill-opacity:1;stroke:#8f66a1;stroke-width:0;stroke-linecap:round;stroke-linejoin:round;stroke-dasharray:none;stroke-opacity:1;paint-order:stroke fill markers"
         id="path9059-64-2-1-7-1-08"
         cx="192.83098"
         cy="-204.82527"
         rx="0.48296762"
         ry="0.68064016"
         transform="matrix(-0.16981171,0.98547653,-0.99808236,-0.06189992,0,0)" />
      <ellipse
         style="fill:#3d75a6;fill-opacity:0.984314;stroke:#8f66a1;stroke-width:0;stroke-linecap:round;stroke-linejoin:round;stroke-dasharray:none;stroke-opacity:1;paint-order:stroke fill markers"
         id="path9059-6-3-4-3-0-1-2-0"
         cx="192.83313"
         cy="-204.77979"
         rx="0.21456088"
         ry="0.30237797"
         transform="matrix(-0.16981171,0.98547653,-0.99808236,-0.06189992,0,0)" />
      <ellipse
         style="fill:#b6dbfc;fill-opacity:1;stroke:#8f66a1;stroke-width:0;stroke-linecap:round;stroke-linejoin:round;stroke-dasharray:none;stroke-opacity:1;paint-order:stroke fill markers"
         id="path9059-64-4-4-6"
         cx="202.08742"
         cy="-198.29013"
         rx="0.66125989"
         ry="0.87389725"
         transform="matrix(-0.02529501,0.99968003,-0.99968048,-0.02527725,0,0)" />
      <ellipse
         style="fill:#3d75a6;fill-opacity:0.984314;stroke:#8f66a1;stroke-width:0;stroke-linecap:round;stroke-linejoin:round;stroke-dasharray:none;stroke-opacity:1;paint-order:stroke fill markers"
         id="path9059-6-3-4-0-1-16"
         cx="202.09036"
         cy="-198.23174"
         rx="0.29376817"
         ry="0.38823345"
         transform="matrix(-0.02529501,0.99968003,-0.99968048,-0.02527725,0,0)" />
      <ellipse
         style="fill:#b6dbfc;fill-opacity:1;stroke:#8f66a1;stroke-width:0;stroke-linecap:round;stroke-linejoin:round;stroke-dasharray:none;stroke-opacity:1;paint-order:stroke fill markers"
         id="path9059-64-4-5-3-9"
         cx="154.592"
         cy="-235.84485"
         rx="0.58946991"
         ry="0.78403664"
         transform="matrix(-0.2442863,0.96970315,-0.97057839,-0.24078535,0,0)" />
      <ellipse
         style="fill:#3d75a6;fill-opacity:0.984314;stroke:#8f66a1;stroke-width:0;stroke-linecap:round;stroke-linejoin:round;stroke-dasharray:none;stroke-opacity:1;paint-order:stroke fill markers"
         id="path9059-6-3-4-0-3-4-6"
         cx="154.59464"
         cy="-235.79245"
         rx="0.26187509"
         ry="0.34831241"
         transform="matrix(-0.2442863,0.96970315,-0.97057839,-0.24078535,0,0)" />
      <ellipse
         style="fill:#b6dbfc;fill-opacity:1;stroke:#8f66a1;stroke-width:0;stroke-linecap:round;stroke-linejoin:round;stroke-dasharray:none;stroke-opacity:1;paint-order:stroke fill markers"
         id="path9059-64-4-2-1-8"
         cx="199.69611"
         cy="-198.33543"
         rx="0.79369378"
         ry="0.93290222"
         transform="matrix(-0.02249536,0.99974695,-0.999596,-0.02842263,0,0)" />
      <ellipse
         style="fill:#3d75a6;fill-opacity:0.984314;stroke:#8f66a1;stroke-width:0;stroke-linecap:round;stroke-linejoin:round;stroke-dasharray:none;stroke-opacity:1;paint-order:stroke fill markers"
         id="path9059-6-3-4-0-4-5-4"
         cx="199.69965"
         cy="-198.2731"
         rx="0.3526026"
         ry="0.41444671"
         transform="matrix(-0.02249536,0.99974695,-0.999596,-0.02842263,0,0)" />
      <ellipse
         style="fill:#b6dbfc;fill-opacity:1;stroke:#8f66a1;stroke-width:0;stroke-linecap:round;stroke-linejoin:round;stroke-dasharray:none;stroke-opacity:1;paint-order:stroke fill markers"
         id="path9059-64-4-1-5-8"
         cx="201.06476"
         cy="-197.59648"
         rx="0.4993732"
         ry="0.74126428"
         transform="matrix(-0.02841341,0.99959626,-0.99974678,-0.02250269,0,0)" />
      <ellipse
         style="fill:#3d75a6;fill-opacity:0.984314;stroke:#8f66a1;stroke-width:0;stroke-linecap:round;stroke-linejoin:round;stroke-dasharray:none;stroke-opacity:1;paint-order:stroke fill markers"
         id="path9059-6-3-4-0-8-3-1"
         cx="201.06699"
         cy="-197.54694"
         rx="0.22184914"
         ry="0.32931057"
         transform="matrix(-0.02841341,0.99959626,-0.99974678,-0.02250269,0,0)" />
      <ellipse
         style="fill:#b6dbfc;fill-opacity:1;stroke:#8f66a1;stroke-width:0;stroke-linecap:round;stroke-linejoin:round;stroke-dasharray:none;stroke-opacity:1;paint-order:stroke fill markers"
         id="path9059-64-4-1-4-9-7"
         cx="261.74304"
         cy="-72.914948"
         rx="0.55940604"
         ry="0.7412492"
         transform="matrix(0.49262361,0.87024248,-0.87032037,0.49248599,0,0)" />
      <ellipse
         style="fill:#3d75a6;fill-opacity:0.984314;stroke:#8f66a1;stroke-width:0;stroke-linecap:round;stroke-linejoin:round;stroke-dasharray:none;stroke-opacity:1;paint-order:stroke fill markers"
         id="path9059-6-3-4-0-8-92-5-4"
         cx="261.74554"
         cy="-72.865417"
         rx="0.24851905"
         ry="0.32930386"
         transform="matrix(0.49262361,0.87024248,-0.87032037,0.49248599,0,0)" />
      <ellipse
         style="fill:#b6dbfc;fill-opacity:1;stroke:#8f66a1;stroke-width:0;stroke-linecap:round;stroke-linejoin:round;stroke-dasharray:none;stroke-opacity:1;paint-order:stroke fill markers"
         id="path9059-64-4-1-4-3-8-1"
         cx="276.61194"
         cy="25.349333"
         rx="0.71729875"
         ry="0.9820478"
         transform="matrix(0.76209462,0.64746567,-0.55570239,0.83138129,0,0)" />
      <ellipse
         style="fill:#3f76a8;fill-opacity:1;stroke:#8f66a1;stroke-width:0;stroke-linecap:round;stroke-linejoin:round;stroke-dasharray:none;stroke-opacity:1;paint-order:stroke fill markers"
         id="path9059-6-3-4-0-8-92-1-5-2"
         cx="276.61511"
         cy="25.414957"
         rx="0.31866372"
         ry="0.43627989"
         transform="matrix(0.76209462,0.64746567,-0.55570239,0.83138129,0,0)" />
      <ellipse
         style="fill:#b6dbfc;fill-opacity:1;stroke:#8f66a1;stroke-width:0;stroke-linecap:round;stroke-linejoin:round;stroke-dasharray:none;stroke-opacity:1;paint-order:stroke fill markers"
         id="path9059-64-4-1-4-3-0-6-9"
         cx="277.59863"
         cy="-29.113865"
         rx="0.48491234"
         ry="0.63007301"
         transform="matrix(0.61834113,0.78590982,-0.8262904,0.56324433,0,0)" />
      <ellipse
         style="fill:#3f76a8;fill-opacity:1;stroke:#8f66a1;stroke-width:0;stroke-linecap:round;stroke-linejoin:round;stroke-dasharray:none;stroke-opacity:1;paint-order:stroke fill markers"
         id="path9059-6-3-4-0-8-92-1-8-6-9"
         cx="277.6008"
         cy="-29.071762"
         rx="0.21542484"
         ry="0.27991325"
         transform="matrix(0.61834113,0.78590982,-0.8262904,0.56324433,0,0)" />
      <ellipse
         style="fill:#b6dbfc;fill-opacity:1;stroke:#8f66a1;stroke-width:0;stroke-linecap:round;stroke-linejoin:round;stroke-dasharray:none;stroke-opacity:1;paint-order:stroke fill markers"
         id="path9059-64-4-1-4-3-0-3-0-73"
         cx="277.66669"
         cy="-27.498549"
         rx="0.48491234"
         ry="0.63007301"
         transform="matrix(0.61834113,0.78590982,-0.8262904,0.56324433,0,0)" />
      <ellipse
         style="fill:#3f76a8;fill-opacity:1;stroke:#8f66a1;stroke-width:0;stroke-linecap:round;stroke-linejoin:round;stroke-dasharray:none;stroke-opacity:1;paint-order:stroke fill markers"
         id="path9059-6-3-4-0-8-92-1-8-0-4-98"
         cx="277.66882"
         cy="-27.456444"
         rx="0.21542484"
         ry="0.27991325"
         transform="matrix(0.61834113,0.78590982,-0.8262904,0.56324433,0,0)" />
      <g
         id="g9479-0-7-7-9-1-1-4-5-1-40"
         transform="matrix(0.0537406,0.27197972,-0.28471742,-0.00297714,256.37929,187.23923)"
         style="stroke-width:3.59728">
        <g
           id="g9459-4-8-4-2-0-5-9-2-0-63"
           style="stroke-width:3.59728">
          <ellipse
             style="opacity:1;fill:#e9c9f7;fill-opacity:1;stroke:#8f66a1;stroke-width:0;stroke-linecap:round;stroke-linejoin:round;stroke-dasharray:none;stroke-opacity:1;paint-order:stroke fill markers"
             id="path9059-64-4-1-4-3-0-3-3-8-4"
             cx="60.217018"
             cy="233.95486"
             rx="1.3552871"
             ry="1.790471" />
          <ellipse
             style="fill:#8f66a1;fill-opacity:1;stroke:#8f66a1;stroke-width:0;stroke-linecap:round;stroke-linejoin:round;stroke-dasharray:none;stroke-opacity:1;paint-order:stroke fill markers"
             id="path9059-6-3-4-0-8-92-1-8-0-8-1-6"
             cx="60.223061"
             cy="234.07451"
             rx="0.60209334"
             ry="0.79542613" />
        </g>
      </g>
      <ellipse
         style="fill:#b6dbfc;fill-opacity:1;stroke:#8f66a1;stroke-width:0;stroke-linecap:round;stroke-linejoin:round;stroke-dasharray:none;stroke-opacity:1;paint-order:stroke fill markers"
         id="path9059-64-4-1-4-3-0-3-3-0-8-49"
         cx="205.21063"
         cy="-153.23416"
         rx="0.37573734"
         ry="0.50980616"
         transform="matrix(0.19384269,0.98103262,-0.99994534,-0.0104559,0,0)" />
      <ellipse
         style="fill:#3f76a8;fill-opacity:1;stroke:#8f66a1;stroke-width:0;stroke-linecap:round;stroke-linejoin:round;stroke-dasharray:none;stroke-opacity:1;paint-order:stroke fill markers"
         id="path9059-6-3-4-0-8-92-1-8-0-8-4-4-41"
         cx="205.2123"
         cy="-153.20009"
         rx="0.16692327"
         ry="0.22648406"
         transform="matrix(0.19384269,0.98103262,-0.99994534,-0.0104559,0,0)" />
      <ellipse
         style="fill:#b6dbfc;fill-opacity:1;stroke:#8f66a1;stroke-width:0;stroke-linecap:round;stroke-linejoin:round;stroke-dasharray:none;stroke-opacity:1;paint-order:stroke fill markers"
         id="path9059-64-4-1-4-3-0-3-3-0-1-9-0"
         cx="205.22366"
         cy="-152.00943"
         rx="0.37573734"
         ry="0.50980616"
         transform="matrix(0.19384269,0.98103262,-0.99994534,-0.0104559,0,0)" />
      <ellipse
         style="fill:#3f76a8;fill-opacity:1;stroke:#8f66a1;stroke-width:0;stroke-linecap:round;stroke-linejoin:round;stroke-dasharray:none;stroke-opacity:1;paint-order:stroke fill markers"
         id="path9059-6-3-4-0-8-92-1-8-0-8-4-0-8-9"
         cx="205.22534"
         cy="-151.97536"
         rx="0.16692327"
         ry="0.22648406"
         transform="matrix(0.19384269,0.98103262,-0.99994534,-0.0104559,0,0)" />
      <ellipse
         style="fill:#b6dbfc;fill-opacity:1;stroke:#8f66a1;stroke-width:0;stroke-linecap:round;stroke-linejoin:round;stroke-dasharray:none;stroke-opacity:1;paint-order:stroke fill markers"
         id="path9059-64-4-1-4-3-0-3-3-0-1-3-8-1"
         cx="264.35654"
         cy="-48.389713"
         rx="0.37577233"
         ry="0.5097819"
         transform="matrix(0.55048812,0.834843,-0.92970071,0.36831587,0,0)" />
      <ellipse
         style="fill:#3f76a8;fill-opacity:1;stroke:#8f66a1;stroke-width:0;stroke-linecap:round;stroke-linejoin:round;stroke-dasharray:none;stroke-opacity:1;paint-order:stroke fill markers"
         id="path9059-6-3-4-0-8-92-1-8-0-8-4-0-3-8-56"
         cx="264.35822"
         cy="-48.355648"
         rx="0.16693881"
         ry="0.22647329"
         transform="matrix(0.55048812,0.834843,-0.92970071,0.36831587,0,0)" />
      <ellipse
         style="fill:#b6dbfc;fill-opacity:1;stroke:#8f66a1;stroke-width:0;stroke-linecap:round;stroke-linejoin:round;stroke-dasharray:none;stroke-opacity:1;paint-order:stroke fill markers"
         id="path9059-64-4-1-9-0-1"
         cx="201.64034"
         cy="-196.70599"
         rx="0.36692098"
         ry="0.62338251"
         transform="matrix(-0.03252248,0.999471,-0.99980676,-0.01965831,0,0)" />
      <ellipse
         style="fill:#3d75a6;fill-opacity:0.984314;stroke:#8f66a1;stroke-width:0;stroke-linecap:round;stroke-linejoin:round;stroke-dasharray:none;stroke-opacity:1;paint-order:stroke fill markers"
         id="path9059-6-3-4-0-8-9-4-28"
         cx="201.64197"
         cy="-196.66434"
         rx="0.16300656"
         ry="0.27694094"
         transform="matrix(-0.03252248,0.999471,-0.99980676,-0.01965831,0,0)" />
      <ellipse
         style="fill:#b6dbfc;fill-opacity:1;stroke:#8f66a1;stroke-width:0;stroke-linecap:round;stroke-linejoin:round;stroke-dasharray:none;stroke-opacity:1;paint-order:stroke fill markers"
         id="path9059-64-4-1-9-3-5-7"
         cx="114.08278"
         cy="-273.39578"
         rx="0.27996793"
         ry="0.52609158"
         transform="matrix(-0.54252783,0.84003783,-0.91695742,-0.39898506,0,0)" />
      <ellipse
         style="fill:#3d75a6;fill-opacity:0.984314;stroke:#8f66a1;stroke-width:0;stroke-linecap:round;stroke-linejoin:round;stroke-dasharray:none;stroke-opacity:1;paint-order:stroke fill markers"
         id="path9059-6-3-4-0-8-9-7-3-7"
         cx="114.08403"
         cy="-273.36063"
         rx="0.12437721"
         ry="0.23371895"
         transform="matrix(-0.54252783,0.84003783,-0.91695742,-0.39898506,0,0)" />
      <ellipse
         style="fill:#b6dbfc;fill-opacity:1;stroke:#8f66a1;stroke-width:0;stroke-linecap:round;stroke-linejoin:round;stroke-dasharray:none;stroke-opacity:1;paint-order:stroke fill markers"
         id="path9059-64-4-1-9-3-6-1-0"
         cx="114.88911"
         cy="-274.72424"
         rx="0.27996793"
         ry="0.52609158"
         transform="matrix(-0.54252783,0.84003783,-0.91695742,-0.39898506,0,0)" />
      <ellipse
         style="fill:#3d75a6;fill-opacity:0.984314;stroke:#8f66a1;stroke-width:0;stroke-linecap:round;stroke-linejoin:round;stroke-dasharray:none;stroke-opacity:1;paint-order:stroke fill markers"
         id="path9059-6-3-4-0-8-9-7-7-2-1"
         cx="114.89037"
         cy="-274.68909"
         rx="0.12437721"
         ry="0.23371895"
         transform="matrix(-0.54252783,0.84003783,-0.91695742,-0.39898506,0,0)" />
      <ellipse
         style="fill:#b6dbfc;fill-opacity:1;stroke:#8f66a1;stroke-width:0;stroke-linecap:round;stroke-linejoin:round;stroke-dasharray:none;stroke-opacity:1;paint-order:stroke fill markers"
         id="path9059-64-4-1-9-3-2-7-2"
         cx="119.36253"
         cy="-275.74347"
         rx="0.23111632"
         ry="0.44611448"
         transform="matrix(-0.56152288,0.82746121,-0.92391489,-0.38259807,0,0)" />
      <ellipse
         style="fill:#3d75a6;fill-opacity:0.984314;stroke:#8f66a1;stroke-width:0;stroke-linecap:round;stroke-linejoin:round;stroke-dasharray:none;stroke-opacity:1;paint-order:stroke fill markers"
         id="path9059-6-3-4-0-8-9-7-5-5-11"
         cx="119.36356"
         cy="-275.71365"
         rx="0.10267463"
         ry="0.19818869"
         transform="matrix(-0.56152288,0.82746121,-0.92391489,-0.38259807,0,0)" />
      <ellipse
         style="fill:#b6dbfc;fill-opacity:1;stroke:#8f66a1;stroke-width:0;stroke-linecap:round;stroke-linejoin:round;stroke-dasharray:none;stroke-opacity:1;paint-order:stroke fill markers"
         id="path9059-64-4-1-9-3-2-49-5-3"
         cx="54.350281"
         cy="-284.65698"
         rx="0.2311357"
         ry="0.44608212"
         transform="matrix(-0.74468554,0.6674155,-0.80424631,-0.59429612,0,0)" />
      <ellipse
         style="fill:#3d75a6;fill-opacity:0.984314;stroke:#8f66a1;stroke-width:0;stroke-linecap:round;stroke-linejoin:round;stroke-dasharray:none;stroke-opacity:1;paint-order:stroke fill markers"
         id="path9059-6-3-4-0-8-9-7-5-7-20-8"
         cx="54.351311"
         cy="-284.62717"
         rx="0.10268324"
         ry="0.19817433"
         transform="matrix(-0.74468554,0.6674155,-0.80424631,-0.59429612,0,0)" />
      <ellipse
         style="fill:#b6dbfc;fill-opacity:1;stroke:#8f66a1;stroke-width:0;stroke-linecap:round;stroke-linejoin:round;stroke-dasharray:none;stroke-opacity:1;paint-order:stroke fill markers"
         id="path9059-64-4-1-9-3-2-49-9-9-4"
         cx="-244.30127"
         cy="-79.480553"
         rx="0.23115325"
         ry="0.44599426"
         transform="matrix(-0.87817357,-0.47834212,0.29138985,-0.95660439,0,0)" />
      <ellipse
         style="fill:#3d75a6;fill-opacity:0.984314;stroke:#8f66a1;stroke-width:0;stroke-linecap:round;stroke-linejoin:round;stroke-dasharray:none;stroke-opacity:1;paint-order:stroke fill markers"
         id="path9059-6-3-4-0-8-9-7-5-7-3-7-2"
         cx="-244.30023"
         cy="-79.450752"
         rx="0.10269103"
         ry="0.19813529"
         transform="matrix(-0.87817357,-0.47834212,0.29138985,-0.95660439,0,0)" />
      <ellipse
         style="fill:#b6dbfc;fill-opacity:1;stroke:#8f66a1;stroke-width:0;stroke-linecap:round;stroke-linejoin:round;stroke-dasharray:none;stroke-opacity:1;paint-order:stroke fill markers"
         id="path9059-64-4-1-9-3-2-49-9-3-9-9"
         cx="-244.36522"
         cy="-80.703842"
         rx="0.23115325"
         ry="0.44599426"
         transform="matrix(-0.87817357,-0.47834212,0.29138985,-0.95660439,0,0)" />
      <ellipse
         style="fill:#3d75a6;fill-opacity:0.984314;stroke:#8f66a1;stroke-width:0;stroke-linecap:round;stroke-linejoin:round;stroke-dasharray:none;stroke-opacity:1;paint-order:stroke fill markers"
         id="path9059-6-3-4-0-8-9-7-5-7-3-0-9-7"
         cx="-244.3642"
         cy="-80.674034"
         rx="0.10269103"
         ry="0.19813529"
         transform="matrix(-0.87817357,-0.47834212,0.29138985,-0.95660439,0,0)" />
      <ellipse
         style="fill:#b6dbfc;fill-opacity:1;stroke:#8f66a1;stroke-width:0;stroke-linecap:round;stroke-linejoin:round;stroke-dasharray:none;stroke-opacity:1;paint-order:stroke fill markers"
         id="path9059-64-4-1-9-3-2-49-9-3-8-15-2"
         cx="-244.71741"
         cy="-81.971336"
         rx="0.23115325"
         ry="0.44599426"
         transform="matrix(-0.87817357,-0.47834212,0.29138985,-0.95660439,0,0)" />
      <ellipse
         style="fill:#3d75a6;fill-opacity:0.984314;stroke:#8f66a1;stroke-width:0;stroke-linecap:round;stroke-linejoin:round;stroke-dasharray:none;stroke-opacity:1;paint-order:stroke fill markers"
         id="path9059-6-3-4-0-8-9-7-5-7-3-0-6-9-3"
         cx="-244.71637"
         cy="-81.941536"
         rx="0.10269103"
         ry="0.19813529"
         transform="matrix(-0.87817357,-0.47834212,0.29138985,-0.95660439,0,0)" />
      <ellipse
         style="fill:#b6dbfc;fill-opacity:1;stroke:#8f66a1;stroke-width:0;stroke-linecap:round;stroke-linejoin:round;stroke-dasharray:none;stroke-opacity:1;paint-order:stroke fill markers"
         id="path9059-64-4-1-9-3-2-49-9-3-8-1-0-2"
         cx="-271.7764"
         cy="20.301476"
         rx="0.37886629"
         ry="0.56186509"
         transform="matrix(-0.64017352,-0.76823035,0.80358326,-0.59519235,0,0)" />
      <ellipse
         style="fill:#3d75a6;fill-opacity:0.984314;stroke:#8f66a1;stroke-width:0;stroke-linecap:round;stroke-linejoin:round;stroke-dasharray:none;stroke-opacity:1;paint-order:stroke fill markers"
         id="path9059-6-3-4-0-8-9-7-5-7-3-0-6-6-9-1"
         cx="-271.77472"
         cy="20.339022"
         rx="0.16831332"
         ry="0.24961153"
         transform="matrix(-0.64017352,-0.76823035,0.80358326,-0.59519235,0,0)" />
      <ellipse
         style="fill:#b6dbfc;fill-opacity:1;stroke:#8f66a1;stroke-width:0;stroke-linecap:round;stroke-linejoin:round;stroke-dasharray:none;stroke-opacity:1;paint-order:stroke fill markers"
         id="path9059-64-4-1-9-3-2-49-9-3-8-1-8-6-60"
         cx="-271.97763"
         cy="18.795828"
         rx="0.37886629"
         ry="0.56186509"
         transform="matrix(-0.64017352,-0.76823035,0.80358326,-0.59519235,0,0)" />
      <ellipse
         style="fill:#3d75a6;fill-opacity:0.984314;stroke:#8f66a1;stroke-width:0;stroke-linecap:round;stroke-linejoin:round;stroke-dasharray:none;stroke-opacity:1;paint-order:stroke fill markers"
         id="path9059-6-3-4-0-8-9-7-5-7-3-0-6-6-6-83-4"
         cx="-271.97592"
         cy="18.833374"
         rx="0.16831332"
         ry="0.24961153"
         transform="matrix(-0.64017352,-0.76823035,0.80358326,-0.59519235,0,0)" />
      <ellipse
         style="fill:#b6dbfc;fill-opacity:1;stroke:#8f66a1;stroke-width:0;stroke-linecap:round;stroke-linejoin:round;stroke-dasharray:none;stroke-opacity:1;paint-order:stroke fill markers"
         id="path9059-64-4-1-9-3-2-49-9-3-8-1-8-0-1-45"
         cx="-190.99905"
         cy="184.34172"
         rx="0.3788119"
         ry="0.56193465"
         transform="matrix(-0.0177717,-0.99984207,0.99923574,0.03908887,0,0)" />
      <ellipse
         style="fill:#3d75a6;fill-opacity:0.984314;stroke:#8f66a1;stroke-width:0;stroke-linecap:round;stroke-linejoin:round;stroke-dasharray:none;stroke-opacity:1;paint-order:stroke fill markers"
         id="path9059-6-3-4-0-8-9-7-5-7-3-0-6-6-6-8-9-0"
         cx="-190.99736"
         cy="184.37927"
         rx="0.16828915"
         ry="0.2496424"
         transform="matrix(-0.0177717,-0.99984207,0.99923574,0.03908887,0,0)" />
      <ellipse
         style="fill:#b6dbfc;fill-opacity:1;stroke:#8f66a1;stroke-width:0;stroke-linecap:round;stroke-linejoin:round;stroke-dasharray:none;stroke-opacity:1;paint-order:stroke fill markers"
         id="path9059-64-4-1-9-3-2-49-0-9-0"
         cx="54.377674"
         cy="-283.43695"
         rx="0.2311357"
         ry="0.44608212"
         transform="matrix(-0.74468554,0.6674155,-0.80424631,-0.59429612,0,0)" />
      <ellipse
         style="fill:#3d75a6;fill-opacity:0.984314;stroke:#8f66a1;stroke-width:0;stroke-linecap:round;stroke-linejoin:round;stroke-dasharray:none;stroke-opacity:1;paint-order:stroke fill markers"
         id="path9059-6-3-4-0-8-9-7-5-7-2-7-8"
         cx="54.378704"
         cy="-283.40714"
         rx="0.10268324"
         ry="0.19817433"
         transform="matrix(-0.74468554,0.6674155,-0.80424631,-0.59429612,0,0)" />
      <ellipse
         style="fill:#b6dbfc;fill-opacity:1;stroke:#8f66a1;stroke-width:0;stroke-linecap:round;stroke-linejoin:round;stroke-dasharray:none;stroke-opacity:1;paint-order:stroke fill markers"
         id="path9059-64-4-1-9-3-2-49-0-1-2-8"
         cx="54.387199"
         cy="-282.237"
         rx="0.2311357"
         ry="0.44608212"
         transform="matrix(-0.74468554,0.6674155,-0.80424631,-0.59429612,0,0)" />
      <ellipse
         style="fill:#3d75a6;fill-opacity:0.984314;stroke:#8f66a1;stroke-width:0;stroke-linecap:round;stroke-linejoin:round;stroke-dasharray:none;stroke-opacity:1;paint-order:stroke fill markers"
         id="path9059-6-3-4-0-8-9-7-5-7-2-8-49-0"
         cx="54.388229"
         cy="-282.20718"
         rx="0.10268324"
         ry="0.19817433"
         transform="matrix(-0.74468554,0.6674155,-0.80424631,-0.59429612,0,0)" />
      <ellipse
         style="fill:#b6dbfc;fill-opacity:1;stroke:#8f66a1;stroke-width:0;stroke-linecap:round;stroke-linejoin:round;stroke-dasharray:none;stroke-opacity:1;paint-order:stroke fill markers"
         id="path9059-64-4-1-9-3-2-49-0-1-7-7-9"
         cx="53.48045"
         cy="-280.65961"
         rx="0.27463049"
         ry="0.52973861"
         transform="matrix(-0.74273911,0.66958093,-0.80257826,-0.59654685,0,0)" />
      <ellipse
         style="fill:#3d75a6;fill-opacity:0.984314;stroke:#8f66a1;stroke-width:0;stroke-linecap:round;stroke-linejoin:round;stroke-dasharray:none;stroke-opacity:1;paint-order:stroke fill markers"
         id="path9059-6-3-4-0-8-9-7-5-7-2-8-4-9-5"
         cx="53.481674"
         cy="-280.62421"
         rx="0.12200602"
         ry="0.23533916"
         transform="matrix(-0.74273911,0.66958093,-0.80257826,-0.59654685,0,0)" />
      <ellipse
         style="fill:#b6dbfc;fill-opacity:1;stroke:#8f66a1;stroke-width:0;stroke-linecap:round;stroke-linejoin:round;stroke-dasharray:none;stroke-opacity:1;paint-order:stroke fill markers"
         id="path9059-64-4-1-9-3-2-4-6-8"
         cx="45.014603"
         cy="-281.91373"
         rx="0.23113823"
         ry="0.44607738"
         transform="matrix(-0.76530068,0.64367296,-0.78516509,-0.61928651,0,0)" />
      <ellipse
         style="fill:#3d75a6;fill-opacity:0.984314;stroke:#8f66a1;stroke-width:0;stroke-linecap:round;stroke-linejoin:round;stroke-dasharray:none;stroke-opacity:1;paint-order:stroke fill markers"
         id="path9059-6-3-4-0-8-9-7-5-0-1-9"
         cx="45.015633"
         cy="-281.88391"
         rx="0.10268436"
         ry="0.19817223"
         transform="matrix(-0.76530068,0.64367296,-0.78516509,-0.61928651,0,0)" />
      <ellipse
         style="fill:#b6dbfc;fill-opacity:1;stroke:#8f66a1;stroke-width:0;stroke-linecap:round;stroke-linejoin:round;stroke-dasharray:none;stroke-opacity:1;paint-order:stroke fill markers"
         id="path9059-64-4-1-9-3-2-4-4-1-8"
         cx="44.907387"
         cy="-280.64612"
         rx="0.23113823"
         ry="0.44607738"
         transform="matrix(-0.76530068,0.64367296,-0.78516509,-0.61928651,0,0)" />
      <ellipse
         style="fill:#3d75a6;fill-opacity:0.984314;stroke:#8f66a1;stroke-width:0;stroke-linecap:round;stroke-linejoin:round;stroke-dasharray:none;stroke-opacity:1;paint-order:stroke fill markers"
         id="path9059-6-3-4-0-8-9-7-5-0-0-3-40"
         cx="44.908417"
         cy="-280.6163"
         rx="0.10268436"
         ry="0.19817223"
         transform="matrix(-0.76530068,0.64367296,-0.78516509,-0.61928651,0,0)" />
      <ellipse
         style="fill:#b6dbfc;fill-opacity:1;stroke:#8f66a1;stroke-width:0;stroke-linecap:round;stroke-linejoin:round;stroke-dasharray:none;stroke-opacity:1;paint-order:stroke fill markers"
         id="path9059-64-0-8-0"
         cx="200.18532"
         cy="-176.80186"
         rx="0.60076487"
         ry="0.80325693"
         transform="matrix(-0.02559172,0.99967248,-0.99968785,-0.02498419,0,0)" />
      <ellipse
         style="fill:#3d75a6;fill-opacity:0.984314;stroke:#8f66a1;stroke-width:0;stroke-linecap:round;stroke-linejoin:round;stroke-dasharray:none;stroke-opacity:1;paint-order:stroke fill markers"
         id="path9059-6-3-4-9-94-8"
         cx="200.188"
         cy="-176.7482"
         rx="0.26689291"
         ry="0.3568511"
         transform="matrix(-0.02559172,0.99967248,-0.99968785,-0.02498419,0,0)" />
      <ellipse
         style="fill:#b6dbfc;fill-opacity:1;stroke:#8f66a1;stroke-width:0;stroke-linecap:round;stroke-linejoin:round;stroke-dasharray:none;stroke-opacity:1;paint-order:stroke fill markers"
         id="path9059-64-0-7-95-4"
         cx="199.98743"
         cy="-178.12259"
         rx="0.47974113"
         ry="0.59138781"
         transform="matrix(-0.02359345,0.99972164,-0.99963272,-0.02710011,0,0)" />
      <ellipse
         style="fill:#3d75a6;fill-opacity:0.984314;stroke:#8f66a1;stroke-width:0;stroke-linecap:round;stroke-linejoin:round;stroke-dasharray:none;stroke-opacity:1;paint-order:stroke fill markers"
         id="path9059-6-3-4-9-9-17-9"
         cx="199.98956"
         cy="-178.08307"
         rx="0.21312749"
         ry="0.26272714"
         transform="matrix(-0.02359345,0.99972164,-0.99963272,-0.02710011,0,0)" />
      <ellipse
         style="fill:#b6dbfc;fill-opacity:1;stroke:#8f66a1;stroke-width:0;stroke-linecap:round;stroke-linejoin:round;stroke-dasharray:none;stroke-opacity:1;paint-order:stroke fill markers"
         id="path9059-64-0-7-9-4-0"
         cx="201.20758"
         cy="-177.28546"
         rx="0.47974113"
         ry="0.59138781"
         transform="matrix(-0.02359345,0.99972164,-0.99963272,-0.02710011,0,0)" />
      <ellipse
         style="fill:#3d75a6;fill-opacity:0.984314;stroke:#8f66a1;stroke-width:0;stroke-linecap:round;stroke-linejoin:round;stroke-dasharray:none;stroke-opacity:1;paint-order:stroke fill markers"
         id="path9059-6-3-4-9-9-1-6-2"
         cx="201.20973"
         cy="-177.24596"
         rx="0.21312749"
         ry="0.26272714"
         transform="matrix(-0.02359345,0.99972164,-0.99963272,-0.02710011,0,0)" />
      <ellipse
         style="fill:#b6dbfc;fill-opacity:1;stroke:#8f66a1;stroke-width:0;stroke-linecap:round;stroke-linejoin:round;stroke-dasharray:none;stroke-opacity:1;paint-order:stroke fill markers"
         id="path9059-64-0-7-9-8-2-9"
         cx="201.18999"
         cy="-178.93936"
         rx="0.39499301"
         ry="0.48960316"
         transform="matrix(-0.02372371,0.99971855,-0.99963675,-0.02695133,0,0)" />
      <ellipse
         style="fill:#3d75a6;fill-opacity:0.984314;stroke:#8f66a1;stroke-width:0;stroke-linecap:round;stroke-linejoin:round;stroke-dasharray:none;stroke-opacity:1;paint-order:stroke fill markers"
         id="path9059-6-3-4-9-9-1-7-2-0"
         cx="201.19174"
         cy="-178.90665"
         rx="0.17547768"
         ry="0.21750878"
         transform="matrix(-0.02372371,0.99971855,-0.99963675,-0.02695133,0,0)" />
      <ellipse
         style="fill:#b6dbfc;fill-opacity:1;stroke:#8f66a1;stroke-width:0;stroke-linecap:round;stroke-linejoin:round;stroke-dasharray:none;stroke-opacity:1;paint-order:stroke fill markers"
         id="path9059-64-0-7-9-3-7-6"
         cx="201.87953"
         cy="-181.47873"
         rx="0.31876171"
         ry="0.48106438"
         transform="matrix(-0.02888792,0.99958266,-0.99975504,-0.02213294,0,0)" />
      <ellipse
         style="fill:#3d75a6;fill-opacity:0.984314;stroke:#8f66a1;stroke-width:0;stroke-linecap:round;stroke-linejoin:round;stroke-dasharray:none;stroke-opacity:1;paint-order:stroke fill markers"
         id="path9059-6-3-4-9-9-1-1-0-9"
         cx="201.88095"
         cy="-181.44659"
         rx="0.14161155"
         ry="0.21371537"
         transform="matrix(-0.02888792,0.99958266,-0.99975504,-0.02213294,0,0)" />
      <ellipse
         style="fill:#b6dbfc;fill-opacity:1;stroke:#8f66a1;stroke-width:0;stroke-linecap:round;stroke-linejoin:round;stroke-dasharray:none;stroke-opacity:1;paint-order:stroke fill markers"
         id="path9059-64-0-7-9-3-9-7-2"
         cx="236.65744"
         cy="-134.49783"
         rx="0.3187657"
         ry="0.48105785"
         transform="matrix(0.19149418,0.98149375,-0.98020746,0.19797308,0,0)" />
      <ellipse
         style="fill:#3d75a6;fill-opacity:0.984314;stroke:#8f66a1;stroke-width:0;stroke-linecap:round;stroke-linejoin:round;stroke-dasharray:none;stroke-opacity:1;paint-order:stroke fill markers"
         id="path9059-6-3-4-9-9-1-1-5-2-44"
         cx="236.65887"
         cy="-134.46568"
         rx="0.14161332"
         ry="0.21371247"
         transform="matrix(0.19149418,0.98149375,-0.98020746,0.19797308,0,0)" />
      <ellipse
         style="fill:#b6dbfc;fill-opacity:1;stroke:#8f66a1;stroke-width:0;stroke-linecap:round;stroke-linejoin:round;stroke-dasharray:none;stroke-opacity:1;paint-order:stroke fill markers"
         id="path9059-64-0-7-9-3-93-8-21"
         cx="248.13708"
         cy="-112.68102"
         rx="0.31877065"
         ry="0.48105025"
         transform="matrix(0.28419216,0.95876734,-0.95688639,0.29046244,0,0)" />
      <ellipse
         style="fill:#3d75a6;fill-opacity:0.984314;stroke:#8f66a1;stroke-width:0;stroke-linecap:round;stroke-linejoin:round;stroke-dasharray:none;stroke-opacity:1;paint-order:stroke fill markers"
         id="path9059-6-3-4-9-9-1-1-4-2-5"
         cx="248.1385"
         cy="-112.64887"
         rx="0.14161551"
         ry="0.21370909"
         transform="matrix(0.28419216,0.95876734,-0.95688639,0.29046244,0,0)" />
      <ellipse
         style="fill:#b6dbfc;fill-opacity:1;stroke:#8f66a1;stroke-width:0;stroke-linecap:round;stroke-linejoin:round;stroke-dasharray:none;stroke-opacity:1;paint-order:stroke fill markers"
         id="path9059-64-0-7-9-3-93-5-8-0"
         cx="262.36139"
         cy="-73.506966"
         rx="0.31878245"
         ry="0.48103216"
         transform="matrix(0.43184854,0.90194614,-0.89913552,0.43767032,0,0)" />
      <ellipse
         style="fill:#3d75a6;fill-opacity:0.984314;stroke:#8f66a1;stroke-width:0;stroke-linecap:round;stroke-linejoin:round;stroke-dasharray:none;stroke-opacity:1;paint-order:stroke fill markers"
         id="path9059-6-3-4-9-9-1-1-4-7-3-2"
         cx="262.36279"
         cy="-73.474831"
         rx="0.14162076"
         ry="0.21370105"
         transform="matrix(0.43184854,0.90194614,-0.89913552,0.43767032,0,0)" />
      <ellipse
         style="fill:#b6dbfc;fill-opacity:1;stroke:#8f66a1;stroke-width:0;stroke-linecap:round;stroke-linejoin:round;stroke-dasharray:none;stroke-opacity:1;paint-order:stroke fill markers"
         id="path9059-64-0-7-9-3-93-5-6-2-2"
         cx="271.41269"
         cy="-22.443691"
         rx="0.27607882"
         ry="0.41558114"
         transform="matrix(0.59807385,0.80144099,-0.79261025,0.60972862,0,0)" />
      <ellipse
         style="fill:#3d75a6;fill-opacity:0.984314;stroke:#8f66a1;stroke-width:0;stroke-linecap:round;stroke-linejoin:round;stroke-dasharray:none;stroke-opacity:1;paint-order:stroke fill markers"
         id="path9059-6-3-4-9-9-1-1-4-7-4-6-1"
         cx="271.41391"
         cy="-22.415924"
         rx="0.12264945"
         ry="0.18462409"
         transform="matrix(0.59807385,0.80144099,-0.79261025,0.60972862,0,0)" />
      <ellipse
         style="fill:#b6dbfc;fill-opacity:1;stroke:#8f66a1;stroke-width:0;stroke-linecap:round;stroke-linejoin:round;stroke-dasharray:none;stroke-opacity:1;paint-order:stroke fill markers"
         id="path9059-64-0-7-5-1-6"
         cx="200.48668"
         cy="-179.98236"
         rx="0.40917832"
         ry="0.54090619"
         transform="matrix(-0.02530209,0.99967985,-0.99968066,-0.02527022,0,0)" />
      <ellipse
         style="fill:#3d75a6;fill-opacity:0.984314;stroke:#8f66a1;stroke-width:0;stroke-linecap:round;stroke-linejoin:round;stroke-dasharray:none;stroke-opacity:1;paint-order:stroke fill markers"
         id="path9059-6-3-4-9-9-0-7-8"
         cx="200.48853"
         cy="-179.94623"
         rx="0.18177958"
         ry="0.24030043"
         transform="matrix(-0.02530209,0.99967985,-0.99968066,-0.02527022,0,0)" />
      <ellipse
         style="fill:#b6dbfc;fill-opacity:1;stroke:#8f66a1;stroke-width:0;stroke-linecap:round;stroke-linejoin:round;stroke-dasharray:none;stroke-opacity:1;paint-order:stroke fill markers"
         id="path9059-64-0-7-5-5-6-3"
         cx="252.14207"
         cy="-95.609238"
         rx="0.42932752"
         ry="0.49048713"
         transform="matrix(0.3419172,0.93973008,-0.94230736,0.33474891,0,0)" />
      <ellipse
         style="fill:#3d75a6;fill-opacity:0.984314;stroke:#8f66a1;stroke-width:0;stroke-linecap:round;stroke-linejoin:round;stroke-dasharray:none;stroke-opacity:1;paint-order:stroke fill markers"
         id="path9059-6-3-4-9-9-0-4-50-2"
         cx="252.14401"
         cy="-95.576462"
         rx="0.19073102"
         ry="0.21790147"
         transform="matrix(0.3419172,0.93973008,-0.94230736,0.33474891,0,0)" />
      <ellipse
         style="fill:#b6dbfc;fill-opacity:1;stroke:#8f66a1;stroke-width:0;stroke-linecap:round;stroke-linejoin:round;stroke-dasharray:none;stroke-opacity:1;paint-order:stroke fill markers"
         id="path9059-64-0-7-5-5-2-4-9"
         cx="267.69495"
         cy="-39.160194"
         rx="0.42935374"
         ry="0.49045748"
         transform="matrix(0.53962617,0.84190474,-0.84604109,0.53311769,0,0)" />
      <ellipse
         style="fill:#3d75a6;fill-opacity:0.984314;stroke:#8f66a1;stroke-width:0;stroke-linecap:round;stroke-linejoin:round;stroke-dasharray:none;stroke-opacity:1;paint-order:stroke fill markers"
         id="path9059-6-3-4-9-9-0-4-5-5-7"
         cx="267.69687"
         cy="-39.127422"
         rx="0.19074266"
         ry="0.21788831"
         transform="matrix(0.53962617,0.84190474,-0.84604109,0.53311769,0,0)" />
      <ellipse
         style="fill:#b6dbfc;fill-opacity:1;stroke:#8f66a1;stroke-width:0;stroke-linecap:round;stroke-linejoin:round;stroke-dasharray:none;stroke-opacity:1;paint-order:stroke fill markers"
         id="path9059-64-0-7-5-5-2-5-3-8"
         cx="267.65591"
         cy="-40.687675"
         rx="0.4293538"
         ry="0.49045748"
         transform="matrix(0.53962616,0.84190475,-0.84604108,0.53311771,0,0)" />
      <ellipse
         style="fill:#3d75a6;fill-opacity:0.984314;stroke:#8f66a1;stroke-width:0;stroke-linecap:round;stroke-linejoin:round;stroke-dasharray:none;stroke-opacity:1;paint-order:stroke fill markers"
         id="path9059-6-3-4-9-9-0-4-5-3-7-6"
         cx="267.65784"
         cy="-40.654903"
         rx="0.19074266"
         ry="0.21788831"
         transform="matrix(0.53962616,0.84190475,-0.84604108,0.53311771,0,0)" />
    </g>
  </g>
</svg>
