<?xml version="1.0" encoding="UTF-8" standalone="no"?>
<!-- Created with Inkscape (http://www.inkscape.org/) -->

<svg
   width="50mm"
   height="50mm"
   viewBox="0 0 50 50"
   version="1.1"
   id="svg5991"
   xmlns="http://www.w3.org/2000/svg"
   xmlns:svg="http://www.w3.org/2000/svg">
  <defs
     id="defs5988" />
  <g
     id="layer1">
    <g
       id="g6131"
       transform="translate(-1.3275729,-63.587302)">
      <path
         style="fill:#b7c7a7;fill-opacity:1;stroke:#000000;stroke-width:0;stroke-linecap:butt;stroke-linejoin:miter;stroke-dasharray:none;stroke-opacity:1"
         d="m 14.919688,83.933756 c 0,0 -4.174216,-1.192393 -5.0170238,0.371643 -0.6140488,1.139497 0.5912278,2.803477 1.5891798,3.563394 1.349914,1.02793 3.27591,0.574681 4.927927,0.569261 2.560029,-0.357501 0.698105,1.567227 0.502015,2.153189 -0.665219,2.026185 1.331092,5.559149 3.262836,5.251476 0.592737,-0.09437 0.162311,-1.341958 0.527334,-1.854801 1.044717,-1.006744 0.763612,-1.214597 0.102863,-0.100701 0.655892,0.497642 2.542329,0.513187 5.037666,0.735802 3.141936,0.28031 6.616242,0.114319 9.241955,0.06149 2.59372,-0.05214 4.462093,-0.117622 2.676313,-0.02339 0,0 0.345092,1.269019 1.219291,1.517207 1.172942,0.333 2.182507,-0.326822 3.689023,-0.836763 0.866827,-0.293421 -0.852823,-1.223745 -1.348512,-2.045486 C 40.902329,92.586186 40.94231,92.195118 40.01495,91.929156 33.819282,90.152205 23.216721,81.821522 23.216721,81.821522 Z"
         id="path21022-1-8-3" />
      <g
         id="g3218-7-9"
         style="opacity:0.670769;stroke-width:0.726798"
         transform="matrix(1.3761,0,0,1.37569,-36.52653,-108.02182)">
        <path
           style="fill:#3d4a2f;fill-opacity:0.853242;stroke:#000000;stroke-width:0;stroke-linecap:butt;stroke-linejoin:miter;stroke-dasharray:none;stroke-opacity:1"
           d="m 40.784642,146.54764 c -0.365469,0.43204 -0.138986,1.63667 0.426863,1.64311 0.467193,0.005 0.11795,-0.97548 0.383209,-1.34827 -0.03017,0.0331 0.09602,-0.10607 0.07475,-0.0732 0.148939,0.0998 0.527581,0.20529 0.9621,0.28269 0.769316,0.13704 2.761144,0.24881 2.767249,0.25535 -0.499274,-0.0567 -2.877913,-0.55112 -3.942996,-0.84977 -0.217347,-0.0609 -0.522551,-0.0798 -0.671175,0.09 -9e-6,1e-5 0,4e-5 0,4e-5 z"
           id="path21022-1-2-74-9" />
        <path
           style="opacity:0.670769;fill:#3d4a2f;fill-opacity:0.853242;stroke:#000000;stroke-width:0;stroke-linecap:butt;stroke-linejoin:miter;stroke-dasharray:none;stroke-opacity:1"
           d="m 39.401025,144.14147 c 0.353132,1.20102 14.473552,5.2517 16.881937,1.82537 -1.034991,0.46481 -12.743581,-0.006 -13.572881,-0.56584 -1.402712,-0.31557 -2.594263,-2.14892 -3.309056,-1.25953 z"
           id="path21022-1-2-74-9-0" />
        <path
           style="fill:#3d4a2f;fill-opacity:0.853242;stroke:#000000;stroke-width:0;stroke-linecap:butt;stroke-linejoin:miter;stroke-dasharray:none;stroke-opacity:1"
           d="m 53.991195,147.33185 c 0,0 0.250775,0.92246 0.886048,1.10287 0.852367,0.24206 1.586012,-0.23756 2.680781,-0.60825 0.605543,-0.20504 -2.552949,0.87857 -2.984194,-0.36896 -0.01736,-0.0502 -0.0303,-0.1042 -0.03839,-0.1622 0.177367,0.04 -0.362831,0.0243 -0.544241,0.0365 z"
           id="path21022-1-2-2-4-7" />
        <path
           style="fill:#3d4a2f;fill-opacity:0.853242;stroke:#000000;stroke-width:0;stroke-linecap:butt;stroke-linejoin:miter;stroke-dasharray:none;stroke-opacity:1"
           d="m 34.894538,142.39444 c 0.980971,0.74721 2.380576,0.41774 3.581082,0.4138 0.620962,-0.11774 0.933884,0.005 1.150759,0.4412 0.100557,0.20248 0.203553,0.42273 0.304711,0.65035 -4.684832,-1.63416 17.015155,1.52304 12.299735,-0.0206 -2.09179,-3.88557 -8.672442,-5.5085 -12.743262,-4.37259 -0.119257,0.0333 0.623367,0.87409 0.508908,1.33703 -0.1965,0.79476 -0.97759,1.50646 -1.84258,1.6234 -1.076928,0.14559 -2.732687,0.25906 -3.259353,-0.0726 z"
           id="path21022-1-2-7-9-0" />
      </g>
      <path
         style="fill:#e5ad81;fill-opacity:1;stroke:#453221;stroke-width:0;stroke-linecap:butt;stroke-linejoin:miter;stroke-dasharray:none;stroke-opacity:1"
         d="m 17.413027,82.581632 c -1.034648,0.527989 -3.252983,0.292512 -3.130955,1.520797 0.254531,2.561948 5.632369,-0.502622 7.005175,1.605279 0.938784,1.441476 -2.141175,3.731188 -0.664768,5.237087 0.595521,0.607422 17.965674,5.942142 20.721511,-0.550001 0.288839,-0.680444 -1.058068,-0.967757 -1.583885,-1.4557 -2.027837,-1.881765 -3.623391,-4.483566 -6.058543,-5.676496 -4.208925,-2.061843 -9.17408,-2.850127 -13.735972,-2.047439 -0.937379,0.164945 -1.693936,0.928315 -2.552563,1.366473 z"
         id="path21020-5-1-3" />
      <path
         style="fill:#dfcab8;fill-opacity:1;stroke:#453221;stroke-width:0;stroke-linecap:butt;stroke-linejoin:miter;stroke-dasharray:none;stroke-opacity:1"
         d="m 21.574581,85.654937 c -1.251457,-1.650993 -5.067546,-2.851709 -5.680249,-2.839025 -0.798198,0.01651 -1.671538,0.549285 -1.606245,1.289104 0.226338,2.564575 4.070518,1.074799 4.647331,2.903779 0.351105,1.11329 -2.62695,1.672742 -1.242198,3.26337 0.584802,0.671749 21.528947,8.145557 24.409065,0.907501 0.273304,-0.686826 -1.644318,-2.187636 -2.336163,-2.237986 -0.469117,-0.03425 -1.061381,1.715087 -1.9439,2.028483 -5.357524,1.902496 -13.536845,0.683965 -17.01725,-1.900186 -0.817248,-0.606789 1.762485,-2.105177 0.769609,-3.41504 z"
         id="path21020-0-0-5-9" />
      <path
         style="fill:#e2d1c2;fill-opacity:1;stroke:#000000;stroke-width:0;stroke-linecap:round;stroke-linejoin:round;stroke-dasharray:none;stroke-opacity:1"
         d="m 23.566279,86.042427 c -0.793278,0.837713 -2.334596,2.390441 -1.526952,3.055573 0.724822,0.596926 3.620665,2.029803 4.939419,1.243665 1.026053,-0.611659 0.193227,-2.558151 -0.254911,-3.716055 -0.224997,-0.581353 -0.556223,-1.316247 -1.161394,-1.46577 -0.706286,-0.174493 -1.416984,0.270969 -1.996162,0.882587 z"
         id="path25047-8-5-8" />
      <path
         style="fill:#e2d1c2;fill-opacity:1;stroke:#000000;stroke-width:0;stroke-linecap:round;stroke-linejoin:round;stroke-dasharray:none;stroke-opacity:1"
         d="m 28.365534,87.183837 c -0.210456,1.139429 -1.168317,2.958078 -0.160782,3.253122 2.154969,0.631029 2.038455,0.278164 2.802358,-0.02229 0.922997,-0.363086 0.78282,-2.290249 0.378881,-3.332843 -0.263587,-0.680334 -0.794693,-1.544143 -1.647968,-1.44054 -0.644664,0.07828 -1.27581,1.019166 -1.372489,1.542602 z"
         id="path25049-4-5-6" />
      <path
         style="fill:#e2d1c2;fill-opacity:1;stroke:#000000;stroke-width:0;stroke-linecap:round;stroke-linejoin:round;stroke-dasharray:none;stroke-opacity:1"
         d="m 32.801483,90.794047 c 1.023524,0.809415 1.306791,0.142893 2.828114,-0.177134 1.229992,-0.25874 0.249895,-2.444354 -0.359843,-3.411821 -0.373832,-0.59317 -1.092548,-1.15115 -1.791923,-1.101515 -0.528665,0.03756 -1.034144,0.52052 -1.223366,1.015589 -0.442163,1.156832 -0.37131,2.948654 0.547018,3.674881 z"
         id="path25051-9-8-5" />
      <path
         style="fill:#e2d1c2;fill-opacity:1;stroke:#000000;stroke-width:0;stroke-linecap:round;stroke-linejoin:round;stroke-dasharray:none;stroke-opacity:1"
         d="m 36.4376,87.147478 c 0.151774,1.09886 0.08112,2.847843 1.156389,3.120491 0.69271,0.175648 1.612857,-1.412434 1.612857,-1.412434 l -2.64752,-3.219046 c 0,0 -0.190861,1.010444 -0.12173,1.510989 z"
         id="path25053-3-2-7" />
      <path
         style="fill:#e2d1c2;fill-opacity:1;stroke:#000000;stroke-width:0;stroke-linecap:round;stroke-linejoin:round;stroke-dasharray:none;stroke-opacity:1"
         d="m 27.966184,85.35084 c 0.762029,-0.07277 1.418094,-0.778874 1.776542,-1.455259 0.211064,-0.398276 0.335006,-0.949653 0.12173,-1.346746 -0.294518,-0.548364 -1.023436,-0.830119 -1.643289,-0.88688 -0.785494,-0.07195 -1.729919,0.135643 -2.251915,0.726956 -0.38314,0.434044 -0.518531,1.160917 -0.324322,1.706323 0.519054,0.896414 1.445544,1.339262 2.321254,1.255606 z"
         id="path25785-0-9-6" />
      <path
         style="fill:#e2d1c2;fill-opacity:1;stroke:#000000;stroke-width:0;stroke-linecap:round;stroke-linejoin:round;stroke-dasharray:none;stroke-opacity:1"
         d="m 31.491352,86.045399 c 0.586606,0.0399 1.050535,-0.644401 1.324932,-1.164398 0.195614,-0.370707 0.366512,-0.888022 0.152153,-1.248205 -0.420845,-0.707146 -1.577598,-1.341311 -2.296396,-0.906139 -0.383256,0.267888 -0.461833,0.88095 -0.400287,1.344489 0.101804,0.766796 0.544,1.876785 1.219598,1.974253 z"
         id="path25787-5-8-2" />
      <path
         style="fill:#e2d1c2;fill-opacity:1;stroke:#000000;stroke-width:0;stroke-linecap:round;stroke-linejoin:round;stroke-dasharray:none;stroke-opacity:1"
         d="m 33.485773,83.829891 c -0.209944,0.247212 -0.05126,0.692179 0.124056,0.965033 0.492256,0.766163 1.486466,1.810271 2.319803,1.44303 0.288537,-0.127114 0.173228,-0.929939 0.173228,-0.929939 L 34.429138,83.79704 c 0,0 -0.739685,-0.206973 -0.943363,0.03288 z"
         id="path25789-2-2-7" />
      <path
         style="fill:#e2d1c2;fill-opacity:1;stroke:#000000;stroke-width:0;stroke-linecap:round;stroke-linejoin:round;stroke-dasharray:none;stroke-opacity:1"
         d="m 18.511741,83.017546 c 1.170493,0.62206 1.584837,1.164384 2.972916,1.079422 0.683211,-0.04182 0.554426,-1.123334 0.788877,-1.703531 0.104225,-0.257928 0.541293,-0.711658 0.273883,-0.788339 -1.125608,-0.322792 -1.615723,-0.246592 -2.371305,0.02834 -0.678102,0.246675 -2.416378,0.984513 -1.664371,1.384178 z"
         id="path25791-3-0-0" />
      <path
         style="fill:#e2d1c2;fill-opacity:1;stroke:#000000;stroke-width:0;stroke-linecap:round;stroke-linejoin:round;stroke-dasharray:none;stroke-opacity:1"
         d="m 23.22528,82.189876 c 0.373193,0.574543 1.403056,0.292555 2.05382,0.07842 0.326855,-0.107579 1.049389,-0.40056 0.806533,-0.644346 -0.452179,-0.453895 -2.093929,-0.173213 -2.554237,-0.199255 -0.27429,-0.01555 -0.455767,0.534827 -0.306116,0.765228 z"
         id="path26525-8-7-3" />
      <path
         style="fill:#e2d1c2;fill-opacity:1;stroke:#000000;stroke-width:0;stroke-linecap:round;stroke-linejoin:round;stroke-dasharray:none;stroke-opacity:1"
         d="m 22.247886,84.145557 c 0.01465,0.406021 0.250333,0.926679 0.641532,1.036362 0.591175,0.165757 1.248873,-0.362535 1.642374,-0.833833 0.296091,-0.354625 0.809441,-1.120197 0.396796,-1.327926 -0.509071,-0.256277 -1.51304,-0.283736 -1.964852,-0.242561 -0.512525,0.04677 -0.734421,0.853643 -0.71585,1.367958 z"
         id="path26527-7-4-9" />
      <path
         style="fill:#294127;fill-opacity:1;stroke:#000000;stroke-width:0;stroke-linecap:butt;stroke-linejoin:miter;stroke-dasharray:none;stroke-opacity:1"
         d="m 11.356557,85.407987 c 0.30266,-0.0282 0.561414,-0.571957 0.838199,-0.424717 0.08686,0.04636 0.08858,0.205954 0.05715,0.303628 -0.05169,0.160667 -0.218728,0.258809 -0.362082,0.333825 -0.156792,0.08199 -0.339805,0.128352 -0.513818,0.111018 -0.225434,-0.02256 -0.50259,-0.07305 -0.628904,-0.272744 -0.13949,-0.545213 0.449392,-0.04595 0.609451,-0.05104 z"
         id="path8680-5-7-8-5-6-4-9-8-8-9" />
    </g>
  </g>
</svg>
