<?xml version="1.0" encoding="UTF-8" standalone="no"?>
<!-- Created with Inkscape (http://www.inkscape.org/) -->

<svg
   width="50mm"
   height="50mm"
   viewBox="0 0 50 50"
   version="1.1"
   id="svg5145"
   xmlns="http://www.w3.org/2000/svg"
   xmlns:svg="http://www.w3.org/2000/svg">
  <defs
     id="defs5142" />
  <g
     id="layer1">
    <g
       id="g5140"
       transform="translate(-114.76357,2.1068595)">
      <path
         style="fill:#fde6c7;fill-opacity:1;stroke:#000000;stroke-width:0;stroke-linecap:butt;stroke-linejoin:miter;stroke-dasharray:none;stroke-opacity:1"
         d="m 154.92021,21.899229 c 1.12675,-1.033319 -25.40564,-4.921015 -33.204,-2.16969 -2.40559,0.848722 0.84395,5.294978 2.75081,6.850089 1.91573,1.562329 5.80204,1.435868 7.2971,1.322906 6.27813,-0.474351 11.12167,-2.094909 16.55275,-3.653933 2.24559,-0.644612 6.60334,-2.349372 6.60334,-2.349372 z"
         id="path8565-9-5-6-9-4-6" />
      <path
         style="fill:#fac77f;fill-opacity:1;stroke:#000000;stroke-width:0;stroke-linecap:butt;stroke-linejoin:miter;stroke-dasharray:none;stroke-opacity:1"
         d="m 154.56615,21.899229 c 1.70469,-1.134578 -25.40564,-4.921015 -33.20398,-2.16969 -1.11093,0.391945 -0.84527,1.380404 -0.0285,2.856489 7.27251,1.467941 8.84282,3.993092 11.98142,4.59151 1.46788,0.144287 2.65587,0.178164 4.22603,-0.640456 3.58859,-1.870948 8.25299,-5.608118 16.25757,-4.222319 2.60828,-1.2507 0.7675,-0.415534 0.7675,-0.415534 z"
         id="path8565-9-5-6-4-0-80-0" />
      <path
         style="fill:#fac77f;fill-opacity:1;stroke:#000000;stroke-width:0;stroke-linecap:butt;stroke-linejoin:miter;stroke-dasharray:none;stroke-opacity:1"
         d="m 158.62273,18.762414 c 0.22795,0.17634 -0.0704,2.224567 -1.38924,3.105662 0.6535,1.01028 2.88026,3.508158 0.80901,3.181396 -2.07129,-0.326778 -4.54878,-3.237956 -4.24382,-2.734709 -2.00718,-1.501101 4.5961,-3.72869 4.82405,-3.552349 z"
         id="path8567-5-5-5-5-6-42" />
      <path
         style="fill:#f89257;fill-opacity:1;stroke:#000000;stroke-width:0;stroke-linecap:butt;stroke-linejoin:miter;stroke-dasharray:none;stroke-opacity:1"
         d="m 158.33481,20.49675 c -0.23337,0.514476 -0.59092,1.030313 -1.10132,1.371326 0.6535,1.01028 2.88026,3.508175 0.80901,3.181396 -0.94462,-0.14903 -1.97373,-0.835581 -2.78487,-1.490645 -0.96745,-0.781301 -1.18193,-1.162193 -1.01608,-0.888458 3.47428,2.26906 4.16987,2.10179 3.98196,1.366235 -0.80528,-1.997814 -1.47603,-2.007481 -1.37918,-2.189217 0.0621,-0.116521 0.45074,-0.149649 1.49048,-1.350637 z"
         id="path8567-5-5-5-5-3-0-3" />
      <path
         style="fill:#fac77f;fill-opacity:1;stroke:#000000;stroke-width:0;stroke-linecap:butt;stroke-linejoin:miter;stroke-dasharray:none;stroke-opacity:1"
         d="m 141.35283,29.787643 c -1.19512,1.797188 -8.03777,-2.610105 -8.03777,-2.610105 0,0 2.85588,-1.031317 4.22603,-0.640456 1.60555,0.458003 3.20343,3.360713 3.81174,3.250561 z"
         id="path8573-1-8-5-5-3-3" />
      <path
         style="fill:#f89257;fill-opacity:1;stroke:#000000;stroke-width:0;stroke-linecap:butt;stroke-linejoin:miter;stroke-dasharray:none;stroke-opacity:1"
         d="m 141.35283,29.787643 c -1.0514,0.499816 -0.91698,-0.88535 -4.01889,-2.971687 -0.17102,-0.115022 -0.007,-0.381577 0.20715,-0.278874 1.60555,0.458011 3.20343,3.360713 3.81174,3.250561 z"
         id="path8573-1-8-5-5-0-2-7" />
      <path
         style="fill:#5b3704;fill-opacity:1;stroke:#000000;stroke-width:0;stroke-linecap:butt;stroke-linejoin:miter;stroke-dasharray:none;stroke-opacity:1"
         d="m 124.60704,21.331389 c 0.58276,-0.0502 1.08099,-1.020719 1.61394,-0.757933 0.16726,0.08254 0.17056,0.367551 0.11009,0.54185 -0.0995,0.286733 -0.42115,0.461886 -0.69717,0.595779 -0.3019,0.146416 -0.6543,0.229018 -0.98936,0.198107 -0.43408,-0.04017 -0.96774,-0.130471 -1.21094,-0.486759 -0.26859,-0.97303 0.86529,-0.08188 1.17348,-0.0911 z"
         id="path8680-5-7-8-5-6-6-0" />
      <path
         style="fill:none;stroke:#ca1004;stroke-width:0.465;stroke-linecap:round;stroke-linejoin:miter;stroke-dasharray:none;stroke-opacity:1"
         d="m 122.61679,24.407867 c 1.02717,0.06774 1.71192,0.128682 2.71441,-0.371263"
         id="path28359-3-9-0" />
      <path
         style="fill:#ffffff;stroke:#5b3704;stroke-width:0.264999;stroke-linecap:butt;stroke-linejoin:miter;stroke-dasharray:none;stroke-opacity:1"
         d="m 122.63363,24.634256 c 0.90305,0.01713 1.84298,0.08753 2.77291,-0.324421 -0.18861,-0.0047 0.0409,1.068728 -0.14295,1.169414 -0.22535,0.123441 -0.87827,-0.884896 -0.87827,-0.884896 -0.0882,0.04622 0.0395,1.07303 -0.1233,1.06887 -0.29005,-0.0072 -0.86924,-0.855448 -0.86924,-0.855448 -0.044,-0.01101 -0.0592,0.656165 -0.22932,0.60218 -0.28015,-0.211207 -0.37992,-0.474278 -0.5298,-0.775699 z"
         id="path28361-2-4-1" />
      <path
         style="fill:#fac77f;fill-opacity:1;stroke:#000000;stroke-width:0;stroke-linecap:butt;stroke-linejoin:miter;stroke-dasharray:none;stroke-opacity:1"
         d="m 133.17689,19.186826 c 1.489,-1.774405 5.45555,-3.774896 5.88996,-3.609338 0,0 -0.96345,2.196531 -0.62776,3.527565 z"
         id="path2273-1-03" />
      <path
         style="fill:#f89257;fill-opacity:1;stroke:#000000;stroke-width:0;stroke-linecap:butt;stroke-linejoin:miter;stroke-dasharray:none;stroke-opacity:1"
         d="m 137.13311,19.009523 c 0.82861,-0.987432 0.58951,-0.932059 0.86247,-1.410975 0.37754,-0.662429 0.8786,-2.094491 1.07127,-2.02106 0,0 -0.96345,2.196531 -0.62776,3.527565 -0.44312,-0.0498 -0.87096,-0.07443 -1.30598,-0.09553 z"
         id="path2273-9-3-0" />
      <g
         id="g9343-78-0"
         transform="matrix(0.83832118,0,0,0.62682412,66.050891,-108.2627)"
         style="fill:#5b3704;fill-opacity:1;stroke-width:1.3795">
        <path
           style="fill:#5b3704;fill-opacity:1;stroke:#000000;stroke-width:0;stroke-linecap:butt;stroke-linejoin:miter;stroke-dasharray:none;stroke-opacity:1"
           d="m 74.67348,214.57689 c -0.02748,0.43274 0.221968,0.92579 0.30462,0.64068 0.395862,-1.36549 0.374891,-4.25109 -0.0219,-6.13887 -0.06774,-0.3223 -0.210341,-0.87564 -0.372324,-0.74112 0.295836,2.23069 0.184299,4.58288 0.08961,6.23931 z"
           id="path8569-8-8-3" />
        <path
           style="fill:#5b3704;fill-opacity:1;stroke:#000000;stroke-width:0;stroke-linecap:butt;stroke-linejoin:miter;stroke-dasharray:none;stroke-opacity:1"
           d="m 75.624643,214.65649 c -0.02577,0.38491 0.208132,0.82347 0.285632,0.56987 0.371187,-1.21458 0.351523,-3.78127 -0.02053,-5.46042 -0.06352,-0.28668 -0.19723,-0.77887 -0.349116,-0.65922 0.277396,1.98417 0.172811,4.0764 0.08402,5.54977 z"
           id="path8569-8-6-3-8" />
        <path
           style="fill:#5b3704;fill-opacity:1;stroke:#000000;stroke-width:0;stroke-linecap:butt;stroke-linejoin:miter;stroke-dasharray:none;stroke-opacity:1"
           d="m 76.540435,215.55684 c -0.02577,0.38491 0.208132,0.82347 0.285632,0.56987 0.371187,-1.21458 0.351523,-3.78127 -0.02053,-5.46042 -0.06352,-0.28668 -0.19723,-0.77887 -0.349116,-0.65922 0.277396,1.98417 0.172811,4.0764 0.08402,5.54977 z"
           id="path8569-8-6-5-8-3" />
      </g>
      <path
         style="fill:#f89257;fill-opacity:1;stroke:#000000;stroke-width:0;stroke-linecap:butt;stroke-linejoin:miter;stroke-dasharray:none;stroke-opacity:1"
         d="m 128.57424,26.125093 c -0.0231,0.271251 0.18608,0.580307 0.25536,0.401594 0.33186,-0.855923 0.31428,-2.664687 -0.0183,-3.847992 -0.0568,-0.202026 -0.17633,-0.548873 -0.31213,-0.464553 0.248,1.39825 0.1545,2.87266 0.0751,3.910951 z"
         id="path8569-8-62-5-4" />
      <path
         style="fill:#f89257;fill-opacity:1;stroke:#000000;stroke-width:0;stroke-linecap:butt;stroke-linejoin:miter;stroke-dasharray:none;stroke-opacity:1"
         d="m 129.37161,26.174988 c -0.0216,0.241271 0.17449,0.516171 0.23945,0.357208 0.31118,-0.761328 0.29469,-2.370191 -0.0172,-3.422723 -0.0533,-0.179698 -0.16535,-0.488215 -0.29268,-0.413215 0.23255,1.243726 0.14487,2.555186 0.0705,3.47873 z"
         id="path8569-8-6-7-3-0" />
      <path
         style="fill:#f89257;fill-opacity:1;stroke:#000000;stroke-width:0;stroke-linecap:butt;stroke-linejoin:miter;stroke-dasharray:none;stroke-opacity:1"
         d="m 130.13935,26.739349 c -0.0216,0.24127 0.17447,0.51617 0.23944,0.357208 0.31118,-0.761328 0.29469,-2.370192 -0.0172,-3.422722 -0.0533,-0.179699 -0.16536,-0.488215 -0.29269,-0.413216 0.23255,1.243725 0.14488,2.555186 0.0705,3.47873 z"
         id="path8569-8-6-5-0-5-9" />
    </g>
  </g>
</svg>
