<?xml version="1.0" encoding="UTF-8" standalone="no"?>
<!-- Created with Inkscape (http://www.inkscape.org/) -->

<svg
   width="50mm"
   height="50mm"
   viewBox="0 0 50 50"
   version="1.1"
   id="svg7438"
   xmlns="http://www.w3.org/2000/svg"
   xmlns:svg="http://www.w3.org/2000/svg">
  <defs
     id="defs7435" />
  <g
     id="layer1">
    <g
       id="g7208"
       transform="translate(-56.011019,-91.979662)">
      <path
         style="fill:#f472c9;fill-opacity:1;stroke:#000000;stroke-width:0;stroke-linecap:butt;stroke-linejoin:miter;stroke-dasharray:none;stroke-opacity:1"
         d="m 78.903405,126.87611 c 0,0 -5.202323,-0.18003 -3.676016,0.6456 1.893065,1.02405 11.118662,0.56164 12.468659,-0.0993 1.608885,-0.78772 -3.874723,-0.69526 -3.874723,-0.69526 0,0 13.908782,-7.28137 10.431946,-9.38608 -4.588317,-2.77755 -22.465568,-2.84376 -26.477274,-0.29796 -3.593939,2.28067 11.127408,9.83303 11.127408,9.83303 z"
         id="path16449-4-5" />
      <path
         style="fill:#fba4de;fill-opacity:1;stroke:#000000;stroke-width:0;stroke-linecap:butt;stroke-linejoin:miter;stroke-dasharray:none;stroke-opacity:1"
         d="m 81.398622,127.98748 c 0,0 -1.917387,-0.56937 -2.644242,-1.21069 -4.058512,-3.58095 -13.071542,-10.17363 -8.544263,-13.80599 3.914797,-3.14095 15.90087,-3.29168 20.963245,-0.0993 4.700144,2.96394 -3.531641,10.20407 -7.252686,13.85563 -0.670727,0.6582 -2.522054,1.26035 -2.522054,1.26035 z"
         id="path18692-0-9" />
      <path
         style="fill:#fecbed;fill-opacity:1;stroke:#000000;stroke-width:0;stroke-linecap:butt;stroke-linejoin:miter;stroke-dasharray:none;stroke-opacity:1"
         d="m 81.398622,127.98748 c 0,0 -14.084006,-14.07488 -8.719287,-18.06955 3.872128,-2.88327 13.158798,-2.45873 15.954726,-2e-5 4.872776,4.28508 -7.235439,18.06957 -7.235439,18.06957 z"
         id="path18694-5-4" />
      <path
         style="fill:#fedff4;fill-opacity:1;stroke:#000000;stroke-width:0;stroke-linecap:butt;stroke-linejoin:miter;stroke-dasharray:none;stroke-opacity:1"
         d="m 81.398621,127.98748 c 0,0 -9.340009,-14.67575 -5.08452,-20.13734 1.786899,-2.29334 6.859016,-2.23079 8.723454,0 4.374795,5.23445 -3.638934,20.13734 -3.638934,20.13734 z"
         id="path18696-7-3" />
      <path
         style="fill:#fceff7;fill-opacity:1;stroke:#000000;stroke-width:0;stroke-linecap:butt;stroke-linejoin:miter;stroke-dasharray:none;stroke-opacity:1"
         d="m 81.398621,127.98748 c 0,0 -6.267175,-16.5815 -1.245514,-21.89533 0.323367,-0.34219 1.080936,-0.33413 1.412619,0 5.142669,5.18057 -0.167105,21.89533 -0.167105,21.89533 z"
         id="path19424-0-9" />
    </g>
  </g>
</svg>
