<?xml version="1.0" encoding="UTF-8" standalone="no"?>
<!-- Created with Inkscape (http://www.inkscape.org/) -->

<svg
   width="50mm"
   height="50mm"
   viewBox="0 0 50 50"
   version="1.1"
   id="svg5696"
   xmlns="http://www.w3.org/2000/svg"
   xmlns:svg="http://www.w3.org/2000/svg">
  <defs
     id="defs5693" />
  <g
     id="layer1">
    <g
       id="g5835"
       transform="translate(-160.36152,1.1949018)">
      <path
         style="fill:#fff1fa;fill-opacity:1;stroke:#000000;stroke-width:0;stroke-linecap:butt;stroke-linejoin:miter;stroke-dasharray:none;stroke-opacity:1"
         d="m 200.51816,22.811186 c 1.12676,-1.033319 -25.40564,-4.921015 -33.20399,-2.16969 -2.40559,0.848722 0.84393,5.294979 2.75081,6.850089 1.91572,1.56233 5.80203,1.435868 7.2971,1.322906 6.27812,-0.47435 11.12166,-2.094909 16.55273,-3.653933 2.24559,-0.644611 6.60335,-2.349372 6.60335,-2.349372 z"
         id="path8565-9-5-6-9-4-1" />
      <path
         style="fill:#fecbed;fill-opacity:1;stroke:#000000;stroke-width:0;stroke-linecap:butt;stroke-linejoin:miter;stroke-dasharray:none;stroke-opacity:1"
         d="m 200.16411,22.811186 c 1.70468,-1.134578 -25.40564,-4.921015 -33.20399,-2.16969 -1.11094,0.391945 -0.84527,1.380405 -0.0285,2.85649 7.27251,1.467941 8.8428,3.993091 11.98141,4.591509 1.46789,0.144287 2.65587,0.178165 4.22603,-0.640456 3.58859,-1.870948 8.253,-5.608117 16.25758,-4.222319 2.60827,-1.2507 0.76749,-0.415534 0.76749,-0.415534 z"
         id="path8565-9-5-6-4-0-80-02" />
      <path
         style="fill:#fecbed;fill-opacity:1;stroke:#000000;stroke-width:0;stroke-linecap:butt;stroke-linejoin:miter;stroke-dasharray:none;stroke-opacity:1"
         d="m 204.22069,19.674371 c 0.22795,0.17634 -0.0705,2.224568 -1.38926,3.105663 0.65351,1.010279 2.88027,3.508158 0.80902,3.181396 -2.07129,-0.326779 -4.54878,-3.237956 -4.24382,-2.73471 -2.00719,-1.5011 4.5961,-3.728689 4.82406,-3.552349 z"
         id="path8567-5-5-5-5-6-40" />
      <path
         style="fill:#f472c9;fill-opacity:1;stroke:#000000;stroke-width:0;stroke-linecap:butt;stroke-linejoin:miter;stroke-dasharray:none;stroke-opacity:1"
         d="m 203.93275,21.408707 c -0.23336,0.514477 -0.59091,1.030314 -1.10132,1.371327 0.65351,1.010279 2.88027,3.508174 0.80902,3.181396 -0.94462,-0.14903 -1.97372,-0.835582 -2.78487,-1.490646 -0.96745,-0.781301 -1.18193,-1.162192 -1.01608,-0.888458 3.47428,2.269061 4.16987,2.101791 3.98197,1.366235 -0.8053,-1.997814 -1.47604,-2.007481 -1.37919,-2.189216 0.0621,-0.116521 0.45074,-0.149649 1.49047,-1.350638 z"
         id="path8567-5-5-5-5-3-0-4" />
      <path
         style="fill:#fecbed;fill-opacity:1;stroke:#000000;stroke-width:0;stroke-linecap:butt;stroke-linejoin:miter;stroke-dasharray:none;stroke-opacity:1"
         d="m 186.95078,30.699602 c -1.19511,1.797187 -8.03777,-2.610107 -8.03777,-2.610107 0,0 2.85589,-1.031317 4.22603,-0.640456 1.60554,0.458003 3.20342,3.360714 3.81174,3.250563 z"
         id="path8573-1-8-5-5-3-31" />
      <path
         style="fill:#f472c9;fill-opacity:1;stroke:#000000;stroke-width:0;stroke-linecap:butt;stroke-linejoin:miter;stroke-dasharray:none;stroke-opacity:1"
         d="m 186.95078,30.699602 c -1.05139,0.499815 -0.91698,-0.885353 -4.01888,-2.971689 -0.17103,-0.115021 -0.007,-0.381576 0.20714,-0.278874 1.60554,0.458011 3.20342,3.360714 3.81174,3.250563 z"
         id="path8573-1-8-5-5-0-2-79" />
      <path
         style="fill:#980c6a;fill-opacity:1;stroke:#000000;stroke-width:0;stroke-linecap:butt;stroke-linejoin:miter;stroke-dasharray:none;stroke-opacity:1"
         d="m 170.20499,22.243347 c 0.58277,-0.0502 1.081,-1.02072 1.61395,-0.757934 0.16725,0.08254 0.17055,0.367551 0.11009,0.54185 -0.0995,0.286734 -0.42116,0.461887 -0.69719,0.59578 -0.30189,0.146416 -0.65428,0.229018 -0.98935,0.198106 -0.43407,-0.04017 -0.96774,-0.130471 -1.21095,-0.486759 -0.26858,-0.97303 0.8653,-0.08188 1.17349,-0.0911 z"
         id="path8680-5-7-8-5-6-6-4" />
      <path
         style="fill:none;stroke:#ca1004;stroke-width:0.465;stroke-linecap:round;stroke-linejoin:miter;stroke-dasharray:none;stroke-opacity:1"
         d="m 168.21474,25.319824 c 1.02718,0.06774 1.71192,0.128682 2.71441,-0.371263"
         id="path28359-3-9-7" />
      <path
         style="fill:#ffffff;stroke:#980c6a;stroke-width:0.264999;stroke-linecap:butt;stroke-linejoin:miter;stroke-dasharray:none;stroke-opacity:1"
         d="m 168.23158,25.546213 c 0.90306,0.01713 1.84299,0.08753 2.77291,-0.32442 -0.1886,-0.0047 0.0409,1.068728 -0.14295,1.169413 -0.22535,0.123441 -0.87826,-0.884896 -0.87826,-0.884896 -0.0882,0.04622 0.0395,1.07303 -0.1233,1.06887 -0.29006,-0.0072 -0.86924,-0.855448 -0.86924,-0.855448 -0.044,-0.01101 -0.0592,0.656165 -0.22933,0.602181 -0.28015,-0.211207 -0.37993,-0.474279 -0.5298,-0.7757 z"
         id="path28361-2-4-0" />
      <path
         style="fill:#fecbed;fill-opacity:1;stroke:#000000;stroke-width:0;stroke-linecap:butt;stroke-linejoin:miter;stroke-dasharray:none;stroke-opacity:1"
         d="m 178.77485,20.098784 c 1.48899,-1.774405 5.45555,-3.774897 5.88994,-3.609339 0,0 -0.96343,2.196531 -0.62775,3.527565 z"
         id="path2273-1-1" />
      <path
         style="fill:#f472c9;fill-opacity:1;stroke:#000000;stroke-width:0;stroke-linecap:butt;stroke-linejoin:miter;stroke-dasharray:none;stroke-opacity:1"
         d="m 182.73107,19.921481 c 0.8286,-0.987432 0.58951,-0.932059 0.86245,-1.410976 0.37755,-0.662429 0.87862,-2.09449 1.07127,-2.02106 0,0 -0.96343,2.196531 -0.62775,3.527565 -0.44312,-0.0498 -0.87096,-0.07442 -1.30597,-0.09553 z"
         id="path2273-9-3-1" />
      <g
         id="g9343-78-5"
         transform="matrix(0.83832118,0,0,0.62682412,111.64884,-107.35074)"
         style="fill:#980c6a;fill-opacity:1;stroke-width:1.3795">
        <path
           style="fill:#980c6a;fill-opacity:1;stroke:#000000;stroke-width:0;stroke-linecap:butt;stroke-linejoin:miter;stroke-dasharray:none;stroke-opacity:1"
           d="m 74.67348,214.57689 c -0.02748,0.43274 0.221968,0.92579 0.30462,0.64068 0.395862,-1.36549 0.374891,-4.25109 -0.0219,-6.13887 -0.06774,-0.3223 -0.210341,-0.87564 -0.372324,-0.74112 0.295836,2.23069 0.184299,4.58288 0.08961,6.23931 z"
           id="path8569-8-8-2" />
        <path
           style="fill:#980c6a;fill-opacity:1;stroke:#000000;stroke-width:0;stroke-linecap:butt;stroke-linejoin:miter;stroke-dasharray:none;stroke-opacity:1"
           d="m 75.624643,214.65649 c -0.02577,0.38491 0.208132,0.82347 0.285632,0.56987 0.371187,-1.21458 0.351523,-3.78127 -0.02053,-5.46042 -0.06352,-0.28668 -0.19723,-0.77887 -0.349116,-0.65922 0.277396,1.98417 0.172811,4.0764 0.08402,5.54977 z"
           id="path8569-8-6-3-2" />
        <path
           style="fill:#980c6a;fill-opacity:1;stroke:#000000;stroke-width:0;stroke-linecap:butt;stroke-linejoin:miter;stroke-dasharray:none;stroke-opacity:1"
           d="m 76.540435,215.55684 c -0.02577,0.38491 0.208132,0.82347 0.285632,0.56987 0.371187,-1.21458 0.351523,-3.78127 -0.02053,-5.46042 -0.06352,-0.28668 -0.19723,-0.77887 -0.349116,-0.65922 0.277396,1.98417 0.172811,4.0764 0.08402,5.54977 z"
           id="path8569-8-6-5-8-24" />
      </g>
      <path
         style="fill:#f472c9;fill-opacity:1;stroke:#000000;stroke-width:0;stroke-linecap:butt;stroke-linejoin:miter;stroke-dasharray:none;stroke-opacity:1"
         d="m 174.17218,27.03705 c -0.023,0.271252 0.18608,0.580307 0.25538,0.401594 0.33186,-0.855923 0.31427,-2.664687 -0.0184,-3.847992 -0.0568,-0.202025 -0.17634,-0.548873 -0.31213,-0.464553 0.24801,1.39825 0.15451,2.87266 0.0751,3.910951 z"
         id="path8569-8-62-5-7" />
      <path
         style="fill:#f472c9;fill-opacity:1;stroke:#000000;stroke-width:0;stroke-linecap:butt;stroke-linejoin:miter;stroke-dasharray:none;stroke-opacity:1"
         d="m 174.96956,27.086945 c -0.0216,0.241271 0.17448,0.516171 0.23946,0.357209 0.31117,-0.761329 0.29469,-2.370192 -0.0172,-3.422724 -0.0532,-0.179698 -0.16533,-0.488214 -0.29266,-0.413214 0.23254,1.243725 0.14487,2.555186 0.0705,3.478729 z"
         id="path8569-8-6-7-3-7" />
      <path
         style="fill:#f472c9;fill-opacity:1;stroke:#000000;stroke-width:0;stroke-linecap:butt;stroke-linejoin:miter;stroke-dasharray:none;stroke-opacity:1"
         d="m 175.73729,27.651307 c -0.0216,0.241269 0.17449,0.516169 0.23945,0.357207 0.31118,-0.761327 0.29469,-2.370191 -0.0172,-3.422722 -0.0532,-0.179698 -0.16534,-0.488215 -0.29267,-0.413216 0.23255,1.243725 0.14488,2.555186 0.0705,3.478731 z"
         id="path8569-8-6-5-0-5-2" />
    </g>
  </g>
</svg>
