<?xml version="1.0" encoding="UTF-8" standalone="no"?>
<!-- Created with Inkscape (http://www.inkscape.org/) -->

<svg
   width="50mm"
   height="50mm"
   viewBox="0 0 50 50"
   version="1.1"
   id="svg1285"
   xmlns="http://www.w3.org/2000/svg"
   xmlns:svg="http://www.w3.org/2000/svg">
  <defs
     id="defs1282" />
  <g
     id="layer1">
    <g
       id="g1568"
       transform="translate(-3.5694591,-170.75509)">
      <path
         style="fill:#d5b3e3;fill-opacity:1;stroke:#000000;stroke-width:0;stroke-linecap:butt;stroke-linejoin:miter;stroke-dasharray:none;stroke-opacity:1"
         d="m 31.110686,195.17435 c 0.818955,0.33166 1.77062,0.32058 2.581628,-0.0301 0.811008,-0.35064 1.470992,-1.03636 1.790371,-1.86018 0.376516,-0.9712 0.285064,-2.07323 0.649071,-3.04919 0.153011,-0.41025 0.389078,-0.79521 0.718717,-1.0834 0.329639,-0.28819 0.757316,-0.47404 1.195165,-0.47248 0.218925,7.9e-4 0.438214,0.0482 0.635391,0.1433 0.197177,0.0951 0.37173,0.23836 0.498699,0.41671 0.126968,0.17835 0.205502,0.39177 0.218507,0.61031 0.01301,0.21854 -0.04039,0.44144 -0.156016,0.62734 -0.146123,0.23492 -0.380471,0.39995 -0.617722,0.54226 -0.237252,0.14231 -0.48667,0.27061 -0.689798,0.45844 -0.20118,0.18603 -0.349301,0.42464 -0.451577,0.67884 -0.102277,0.2542 -0.160237,0.5243 -0.197964,0.79569 -0.07545,0.54279 -0.07216,1.09789 -0.203538,1.62992 -0.177371,0.71828 -0.603368,1.37064 -1.181871,1.83186 -0.578504,0.46122 -1.305146,0.73049 -2.043927,0.77038 -0.505688,0.0273 -1.0271,-0.0477 -1.509578,0.10615 -0.241238,0.0769 -0.468868,0.21454 -0.619081,0.41839 -0.07511,0.10192 -0.12987,0.21943 -0.154611,0.3436 -0.02474,0.12416 -0.01896,0.25493 0.02146,0.37491 0.04203,0.12476 0.12057,0.23563 0.217654,0.32455 0.09708,0.0889 0.212324,0.15657 0.333577,0.20786 0.242508,0.10256 0.506444,0.14023 0.764188,0.19406 1.360343,0.28413 2.581196,1.02935 3.917868,1.40957 0.668336,0.19011 1.3738,0.28739 2.060378,0.18049 0.686577,-0.10689 1.354379,-0.43288 1.787658,-0.9761 0.345752,-0.43348 0.524681,-0.97452 0.813316,-1.44795 0.144318,-0.23672 0.318867,-0.45907 0.540806,-0.62522 0.221938,-0.16615 0.494998,-0.27318 0.772081,-0.26382 0.317862,0.0107 0.62145,0.17731 0.823412,0.423 0.201961,0.24569 0.305708,0.56436 0.315928,0.88224 0.01022,0.31788 -0.06934,0.63476 -0.202107,0.92376 -0.132763,0.28901 -0.317575,0.55165 -0.522529,0.79485 -1.045003,1.24 -2.620428,1.97084 -4.23106,2.15925 -1.610632,0.18842 -3.25247,-0.13422 -4.757946,-0.73686 -0.941103,-0.37672 -1.844727,-0.86664 -2.615012,-1.52562 -0.770285,-0.65898 -1.404357,-1.49379 -1.745707,-2.44829 -0.04457,-0.12462 -0.08426,-0.25137 -0.140703,-0.37108 -0.05644,-0.11971 -0.131062,-0.23343 -0.23415,-0.31643 -0.09949,-0.0801 -0.22741,-0.12937 -0.354666,-0.11841 -0.06363,0.005 -0.126201,0.026 -0.179456,0.0612 -0.05326,0.0353 -0.09692,0.0854 -0.122339,0.14399 -0.03104,0.0715 -0.03403,0.15362 -0.01525,0.22931 0.01878,0.0757 0.05844,0.1452 0.108517,0.20498 0.100159,0.11955 0.238501,0.19924 0.370597,0.28216 1.320243,0.82874 2.225516,2.16064 3.301339,3.28867 0.537912,0.56402 1.131081,1.08661 1.818811,1.45334 0.68773,0.36673 1.478825,0.57073 2.252149,0.4736 0.53929,-0.0677 1.048958,-0.27672 1.57096,-0.42816 0.522003,-0.15144 1.086565,-0.24468 1.604337,-0.0794 0.426108,0.13606 0.791251,0.44696 1.004028,0.84042 0.212776,0.39345 0.273507,0.86452 0.179193,1.30176 -0.09431,0.43725 -0.34083,0.83822 -0.680643,1.12909 -0.339814,0.29088 -0.770109,0.47175 -1.21444,0.52323 -0.546824,0.0633 -1.101998,-0.0655 -1.608666,-0.2807 -0.506668,-0.21521 -0.97234,-0.51458 -1.437206,-0.80942 -1.58983,-1.00834 -3.202934,-1.98119 -4.758459,-3.04169 -1.007114,-0.68661 -2.006564,-1.42642 -2.722548,-2.41287 -0.357992,-0.49322 -0.64056,-1.04555 -0.792068,-1.63587 -0.151508,-0.59032 -0.168865,-1.21961 -0.01125,-1.80832 0.03192,-0.11922 0.07102,-0.23739 0.08415,-0.36011 0.01313,-0.12272 -0.0022,-0.2533 -0.07127,-0.35559 -0.04711,-0.0698 -0.117325,-0.1228 -0.195665,-0.15363 -0.07834,-0.0308 -0.164459,-0.04 -0.248201,-0.0313 -0.167483,0.0174 -0.32098,0.10396 -0.45092,0.21105 -0.35217,0.29024 -0.555314,0.73399 -0.619576,1.1858 -0.06426,0.45181 -2.44e-4,0.91318 0.109673,1.3561 0.109918,0.44292 0.265271,0.87322 0.387918,1.31278 0.122646,0.43957 0.212948,0.89417 0.187975,1.34984 -0.0415,0.75721 -0.406397,1.47634 -0.932173,2.02283 -0.525777,0.5465 -1.20374,0.9299 -1.916616,1.18855 -1.425753,0.51731 -2.97531,0.55166 -4.462143,0.85117 -0.517156,0.10418 -1.027904,0.24075 -1.548653,0.32516 -0.520748,0.0844 -1.057137,0.1157 -1.573732,0.009 -0.516595,-0.10692 -1.014543,-0.36217 -1.344308,-0.77394 -0.164882,-0.20589 -0.285405,-0.4486 -0.339622,-0.70674 -0.05422,-0.25814 -0.04098,-0.5315 0.0477,-0.77992 0.122006,-0.34177 0.383261,-0.62481 0.696991,-0.80721 0.31373,-0.18239 0.677118,-0.26884 1.039595,-0.28631 0.724953,-0.0349 1.432282,0.19512 2.137239,0.36778 0.717084,0.17564 1.452191,0.29406 2.190421,0.28542 0.738229,-0.009 1.481483,-0.14765 2.147117,-0.46701 0.665634,-0.31935 1.250566,-0.82579 1.607173,-1.47223 0.356607,-0.64644 0.471336,-1.43522 0.253889,-2.14075 -0.07096,-0.23023 -0.175019,-0.4486 -0.264907,-0.67212 -0.101814,-0.25317 -0.186197,-0.51623 -0.210433,-0.78803 -0.02424,-0.27179 0.01486,-0.55442 0.147513,-0.79288 0.09822,-0.17656 0.247309,-0.3256 0.427316,-0.41735 0.180007,-0.0917 0.390603,-0.12473 0.58877,-0.0854 0.152989,0.0304 0.296698,0.10298 0.415516,0.20403 0.118817,0.10105 0.212915,0.23008 0.277803,0.37192 0.129774,0.28368 0.140415,0.61261 0.06934,0.91636 -0.07107,0.30375 -0.219539,0.58474 -0.396193,0.84185 -0.176655,0.25712 -0.38197,0.493 -0.579908,0.73412 -0.537357,0.65458 -1.028527,1.35709 -1.672556,1.90704 -1.230599,1.05084 -2.936584,1.44374 -4.546518,1.28017 -1.609934,-0.16357 -3.132375,-0.84074 -4.491718,-1.71871 -0.549854,-0.35514 -1.098828,-0.76867 -1.381845,-1.35889 -0.141509,-0.29511 -0.209458,-0.63019 -0.161095,-0.95388 0.04836,-0.32369 0.219281,-0.63345 0.486883,-0.82188 0.153647,-0.10819 0.335183,-0.17473 0.52146,-0.19949 0.186276,-0.0248 0.377115,-0.008 0.558704,0.04 0.363177,0.0967 0.683351,0.31791 0.951014,0.58174 0.535325,0.52766 0.881154,1.22647 1.432757,1.73709 0.582348,0.53908 1.382705,0.83549 2.175706,0.80579 0.793002,-0.0297 1.568936,-0.38518 2.109318,-0.96632 0.210114,-0.31581 0.406813,-0.64054 0.589389,-0.97303 0.665395,-1.21175 1.163406,-2.55474 2.14551,-3.52765 0.924823,-0.91617 2.244942,-1.4189 3.544908,-1.34999 1.299966,0.0689 2.559533,0.70841 3.382308,1.71722 z"
         id="path16381-3-6-3" />
      <ellipse
         style="fill:#f6e1ff;fill-opacity:1;stroke:#8f66a1;stroke-width:0;stroke-linecap:round;stroke-linejoin:round;stroke-dasharray:none;stroke-opacity:1;paint-order:stroke fill markers"
         id="path9059-64-0-7-9-3-2-6"
         cx="201.18547"
         cy="-24.793097"
         rx="0.31876171"
         ry="0.48106438"
         transform="matrix(-0.02888792,0.99958266,-0.99975504,-0.02213294,0,0)" />
      <ellipse
         style="fill:#8f66a1;fill-opacity:1;stroke:#8f66a1;stroke-width:0;stroke-linecap:round;stroke-linejoin:round;stroke-dasharray:none;stroke-opacity:1;paint-order:stroke fill markers"
         id="path9059-6-3-4-9-9-1-1-54-4"
         cx="201.18689"
         cy="-24.760956"
         rx="0.14161155"
         ry="0.21371537"
         transform="matrix(-0.02888792,0.99958266,-0.99975504,-0.02213294,0,0)" />
      <ellipse
         style="fill:#f6e1ff;fill-opacity:1;stroke:#8f66a1;stroke-width:0;stroke-linecap:round;stroke-linejoin:round;stroke-dasharray:none;stroke-opacity:1;paint-order:stroke fill markers"
         id="path9059-64-0-7-9-3-0-2"
         cx="201.24509"
         cy="-26.346369"
         rx="0.31876171"
         ry="0.48106438"
         transform="matrix(-0.02888792,0.99958266,-0.99975504,-0.02213294,0,0)" />
      <ellipse
         style="fill:#8f66a1;fill-opacity:1;stroke:#8f66a1;stroke-width:0;stroke-linecap:round;stroke-linejoin:round;stroke-dasharray:none;stroke-opacity:1;paint-order:stroke fill markers"
         id="path9059-6-3-4-9-9-1-1-1-0"
         cx="201.24652"
         cy="-26.314228"
         rx="0.14161155"
         ry="0.21371537"
         transform="matrix(-0.02888792,0.99958266,-0.99975504,-0.02213294,0,0)" />
      <g
         id="g17585-3-2-6"
         transform="matrix(0.87850828,0,0,0.87853094,5.2527012,16.371453)"
         style="stroke-width:1.13828">
        <path
           style="fill:#581277;fill-opacity:1;stroke:#581277;stroke-width:0;stroke-linecap:butt;stroke-linejoin:miter;stroke-dasharray:none;stroke-opacity:1"
           d="m 26.618843,195.14535 c 0.590895,-0.0509 1.096076,-1.03449 1.636453,-0.76817 0.169591,0.0837 0.172925,0.37251 0.111593,0.54917 -0.100903,0.2906 -0.427031,0.46812 -0.706909,0.60382 -0.30611,0.14839 -0.663414,0.23211 -1.003148,0.20078 -0.440132,-0.0407 -0.981233,-0.13223 -1.227839,-0.49333 -0.272333,-0.98616 0.877366,-0.083 1.18986,-0.0923 z"
           id="path8680-5-7-8-5-5-3-2-0" />
        <path
           style="fill:#581277;fill-opacity:1;stroke:#000000;stroke-width:0;stroke-linecap:butt;stroke-linejoin:miter;stroke-dasharray:none;stroke-opacity:1"
           d="m 22.364887,195.44683 c 0.590895,-0.0509 1.096075,-1.03449 1.636452,-0.76817 0.169591,0.0837 0.172925,0.37252 0.111593,0.54917 -0.100903,0.2906 -0.42703,0.46813 -0.706909,0.60382 -0.306109,0.14839 -0.663413,0.23212 -1.003148,0.20078 -0.440131,-0.0407 -0.981233,-0.13222 -1.227839,-0.49333 -0.272333,-0.98616 0.877367,-0.083 1.18986,-0.0923 z"
           id="path8680-5-7-8-5-7-8-5-7" />
      </g>
      <path
         style="fill:#8f66a1;fill-opacity:1;stroke:#000000;stroke-width:0;stroke-linecap:butt;stroke-linejoin:miter;stroke-dasharray:none;stroke-opacity:1"
         d="m 24.955096,199.89415 c 0.002,0.68219 -0.320701,1.12067 -0.562176,1.37678 1.71338,0.14331 1.54096,0.59779 2.36818,0.85926 l 3.592876,-0.50463 c 0.0038,-1.05102 0.85082,-1.21955 1.31478,-1.26395 l 0.370116,0.28917 c 0.07309,0.0408 -0.24881,-0.0706 0.879629,0.59976 1.956256,0.29393 2.976033,-0.0754 3.438548,-0.83966 l -4.118262,-3.23872 -0.244389,-0.3614 c 1.132675,-1.07949 1.720468,-1.1945 1.653966,-1.67439 -0.93899,0.34321 -1.653753,0.29718 -2.557569,0.04 l -11.056697,3.88107 -2.9526,0.43465 c 0.854538,1.6176 1.862128,1.78624 3.048218,1.8438 1.443917,0.0701 2.564251,0.0505 3.448341,-0.28139 z"
         id="path18449-2-2" />
      <path
         style="fill:#e9c9f7;fill-opacity:1;stroke:#000000;stroke-width:0;stroke-linecap:butt;stroke-linejoin:miter;stroke-dasharray:none;stroke-opacity:1"
         d="m 22.420427,191.71813 c -0.59709,-1.08361 -0.809459,-2.37426 -0.591053,-3.59206 0.218405,-1.21779 0.866053,-2.3542 1.802498,-3.16278 0.674969,-0.58281 1.495476,-0.99624 2.366097,-1.18929 0.870622,-0.19304 1.789665,-0.16504 2.64617,0.0832 0.856505,0.24828 1.648586,0.71659 2.277018,1.3493 0.628432,0.63271 1.09162,1.42861 1.328686,2.28829 0.429751,1.55842 0.107378,3.23659 -0.487208,4.73986 -0.248436,0.62811 -0.544462,1.24034 -0.719633,1.89269 -0.17517,0.65235 -0.222013,1.36359 0.02728,1.99136 0.272025,0.68502 0.877278,1.20324 1.558817,1.48388 0.681539,0.28063 1.435039,0.34404 2.171368,0.3113 1.376339,-0.0612 2.786508,-0.47998 3.781459,-1.43294 0.881345,-0.84415 1.377294,-2.04128 2.309244,-2.8292 0.376002,-0.31789 0.83601,-0.5659 1.328212,-0.57894 0.246101,-0.007 0.495694,0.0476 0.709279,0.17005 0.213585,0.12243 0.389208,0.31493 0.476794,0.54501 0.06694,0.17584 0.08167,0.36996 0.05093,0.55557 -0.03074,0.18562 -0.106079,0.36271 -0.211,0.51889 -0.209842,0.31235 -0.531625,0.53557 -0.874377,0.69087 -0.685505,0.31058 -1.47163,0.37576 -2.123924,0.75111 -0.588533,0.33866 -1.014098,0.89971 -1.37373,1.47567 -0.359631,0.57596 -0.673322,1.18625 -1.116076,1.70106 -0.565634,0.65769 -1.338194,1.1392 -2.183121,1.33567 -0.844928,0.19648 -1.75807,0.10295 -2.536119,-0.28064 -0.501353,-0.24718 -0.944768,-0.60893 -1.467105,-0.80797 -0.261168,-0.0995 -0.542736,-0.15656 -0.820872,-0.12912 -0.278136,0.0275 -0.552712,0.14486 -0.739729,0.35256 -0.165925,0.18427 -0.255016,0.43058 -0.27042,0.67807 -0.0154,0.24748 0.03957,0.49603 0.134486,0.7251 0.189841,0.45816 0.530203,0.83385 0.832324,1.22713 0.362536,0.47193 0.678564,0.9843 0.887426,1.54155 0.208862,0.55724 0.307879,1.16184 0.234445,1.75239 -0.07343,0.59055 -0.326306,1.16564 -0.749833,1.58369 -0.423528,0.41806 -1.022431,0.66687 -1.615853,0.62218 -0.380525,-0.0286 -0.748441,-0.17452 -1.058851,-0.39648 -0.31041,-0.22196 -0.564402,-0.51814 -0.756575,-0.84782 -0.384345,-0.65936 -0.518731,-1.43563 -0.559244,-2.19776 -0.03239,-0.60934 -0.0092,-1.22146 -0.06567,-1.82905 -0.05643,-0.60758 -0.198344,-1.22137 -0.530573,-1.7332 -0.324989,-0.50067 -0.823788,-0.88116 -1.383821,-1.08769 -0.560033,-0.20653 -1.178064,-0.24203 -1.763911,-0.12769 -0.74679,0.14575 -1.428447,0.5239 -2.164045,0.71841 -0.824589,0.21804 -1.714302,0.19632 -2.5202,-0.083 -0.805899,-0.27932 -1.523136,-0.81822 -1.99743,-1.52711 -0.474294,-0.7089 -0.69914,-1.58541 -0.602787,-2.43288 0.09635,-0.84747 0.51773,-1.65769 1.170437,-2.20675 0.111372,-0.0937 0.229595,-0.18024 0.358912,-0.24701 0.356258,-0.18394 0.789588,-0.20541 1.1674,-0.0712 0.377812,0.13421 0.696975,0.41915 0.886174,0.77265 0.189199,0.35349 0.249651,0.77156 0.183115,1.16695 -0.06653,0.39538 -0.257461,0.76676 -0.529281,1.06149 -0.17225,0.18677 -0.376193,0.34403 -0.533838,0.54329 -0.07882,0.0996 -0.145771,0.20998 -0.185607,0.33061 -0.03984,0.12063 -0.05162,0.25215 -0.02144,0.37555 0.04459,0.18236 0.180122,0.33581 0.347055,0.4217 0.166932,0.0859 0.362198,0.10797 0.548281,0.0831 0.372167,-0.0497 0.694487,-0.27334 1.003288,-0.48693 0.55238,-0.38206 1.114627,-0.75408 1.616956,-1.19991 0.502329,-0.44582 0.946969,-0.97276 1.208072,-1.59156 0.2676,-0.6342 0.33077,-1.35282 0.177917,-2.02398 -0.152852,-0.67116 -0.520972,-1.29155 -1.036808,-1.74733 z"
         id="path16377-8-8-2-9" />
      <path
         style="fill:#f6e1ff;fill-opacity:1;stroke:#000000;stroke-width:0;stroke-linecap:butt;stroke-linejoin:miter;stroke-dasharray:none;stroke-opacity:1"
         d="m 21.338544,190.43893 c -0.444798,-1.09512 -0.390422,-2.36547 0.0671,-3.45533 0.45752,-1.08987 1.298901,-1.99938 2.305643,-2.61873 1.450734,-0.8925 3.272509,-1.18576 4.912927,-0.72728 1.640418,0.45848 3.064524,1.68056 3.705044,3.25882 0.657927,1.62115 0.472367,3.50541 -0.24694,5.10028 -0.256319,0.56832 -0.577121,1.10803 -0.79395,1.69256 -0.21683,0.58453 -0.324733,1.23603 -0.138674,1.83107 0.110931,0.35477 0.323152,0.67444 0.592615,0.93048 0.269463,0.25604 0.594931,0.44972 0.941106,0.58511 0.692351,0.27079 1.453605,0.30844 2.196464,0.2796 0.692918,-0.0269 1.389119,-0.11004 2.046985,-0.3293 0.657866,-0.21925 1.278539,-0.58115 1.734475,-1.10363 0.37807,-0.43325 0.630361,-0.95903 0.887864,-1.47316 0.257503,-0.51413 0.531293,-1.03254 0.940842,-1.43616 0.419553,-0.41348 0.991769,-0.6924 1.580661,-0.67834 0.294446,0.007 0.588339,0.0875 0.839333,0.24157 0.250994,0.15411 0.457559,0.38276 0.574828,0.65294 0.153439,0.35351 0.148206,0.76433 0.02784,1.13043 -0.120362,0.36609 -0.349401,0.68981 -0.623525,0.96068 -0.548247,0.54173 -1.263055,0.87498 -1.902555,1.3052 -0.981038,0.65999 -1.782902,1.5474 -2.661375,2.33879 -0.878473,0.7914 -1.885295,1.51135 -3.049412,1.71837 -1.258514,0.22381 -2.553184,-0.18201 -3.680095,-0.78535 -0.147537,-0.079 -0.294104,-0.1618 -0.451986,-0.2173 -0.157882,-0.0555 -0.329916,-0.0827 -0.493393,-0.0469 -0.117106,0.0257 -0.226516,0.0833 -0.316716,0.16225 -0.0902,0.079 -0.161336,0.17889 -0.210332,0.2883 -0.09799,0.21883 -0.105826,0.47105 -0.05305,0.70494 0.105556,0.46776 0.431677,0.84828 0.715863,1.23453 0.339742,0.46175 0.633933,0.96143 0.824694,1.50203 0.190761,0.54061 0.27553,1.12442 0.195735,1.69211 -0.0798,0.56769 -0.330691,1.11784 -0.742845,1.5163 -0.412153,0.39845 -0.989912,0.63377 -1.561445,0.58915 -0.371167,-0.029 -0.729369,-0.17252 -1.032746,-0.38831 -0.303378,-0.2158 -0.553226,-0.50201 -0.747871,-0.81937 -0.38929,-0.63472 -0.555952,-1.3791 -0.674141,-2.11425 -0.101752,-0.63291 -0.172835,-1.27367 -0.35274,-1.88895 -0.179904,-0.61527 -0.479645,-1.21368 -0.964308,-1.63324 -0.45315,-0.39228 -1.042214,-0.604 -1.636805,-0.67945 -0.59459,-0.0755 -1.19825,-0.0224 -1.791241,0.0648 -0.679456,0.0999 -1.357191,0.2447 -2.043911,0.23786 -0.754423,-0.008 -1.50894,-0.20328 -2.161124,-0.58258 -0.652185,-0.3793 -1.198985,-0.94339 -1.538614,-1.61708 -0.339628,-0.67369 -0.467796,-1.45563 -0.339845,-2.19916 0.127951,-0.74353 0.515012,-1.44338 1.09072,-1.931 0.111069,-0.0941 0.229337,-0.1807 0.35891,-0.24701 0.402452,-0.20596 0.900213,-0.19701 1.310027,-0.006 0.409815,0.19089 0.73006,0.55262 0.902005,0.97074 0.171945,0.41812 0.200583,0.8884 0.115026,1.33232 -0.08556,0.44392 -0.28177,0.86225 -0.539558,1.23364 -0.08556,0.12327 -0.178352,0.24242 -0.247251,0.37572 -0.0689,0.1333 -0.113238,0.2845 -0.09319,0.43321 0.01403,0.10403 0.05958,0.20308 0.126529,0.28393 0.06695,0.0808 0.154841,0.14361 0.251609,0.18428 0.193536,0.0814 0.417509,0.0726 0.615757,0.003 0.198248,-0.0691 0.372852,-0.19465 0.524592,-0.33973 0.15174,-0.14509 0.282682,-0.31016 0.415626,-0.47264 0.490236,-0.59917 1.017781,-1.17529 1.403769,-1.84637 0.385988,-0.67108 0.623536,-1.46338 0.472819,-2.22273 -0.07947,-0.40038 -0.262614,-0.77324 -0.475856,-1.1213 -0.213242,-0.34807 -0.457878,-0.67595 -0.675279,-1.02143 -0.167224,-0.26574 -0.318487,-0.54234 -0.43664,-0.83324 z"
         id="path16377-9-7-8" />
      <g
         id="g17585-5-1"
         transform="matrix(0.87850828,0,0,0.87853094,5.1828957,17.031002)"
         style="stroke-width:1.13828">
        <path
           style="fill:#581277;fill-opacity:1;stroke:#581277;stroke-width:0;stroke-linecap:butt;stroke-linejoin:miter;stroke-dasharray:none;stroke-opacity:1"
           d="m 26.618843,195.14535 c 0.590895,-0.0509 1.096076,-1.03449 1.636453,-0.76817 0.169591,0.0837 0.172925,0.37251 0.111593,0.54917 -0.100903,0.2906 -0.427031,0.46812 -0.706909,0.60382 -0.30611,0.14839 -0.663414,0.23211 -1.003148,0.20078 -0.440132,-0.0407 -0.981233,-0.13223 -1.227839,-0.49333 -0.272333,-0.98616 0.877366,-0.083 1.18986,-0.0923 z"
           id="path8680-5-7-8-5-5-2-1" />
        <path
           style="fill:#581277;fill-opacity:1;stroke:#000000;stroke-width:0;stroke-linecap:butt;stroke-linejoin:miter;stroke-dasharray:none;stroke-opacity:1"
           d="m 22.364887,195.44683 c 0.590895,-0.0509 1.096075,-1.03449 1.636452,-0.76817 0.169591,0.0837 0.172925,0.37252 0.111593,0.54917 -0.100903,0.2906 -0.42703,0.46813 -0.706909,0.60382 -0.306109,0.14839 -0.663413,0.23212 -1.003148,0.20078 -0.440131,-0.0407 -0.981233,-0.13222 -1.227839,-0.49333 -0.272333,-0.98616 0.877367,-0.083 1.18986,-0.0923 z"
           id="path8680-5-7-8-5-7-1-6" />
      </g>
      <path
         style="fill:#e9c9f7;fill-opacity:1;stroke:#000000;stroke-width:0;stroke-linecap:butt;stroke-linejoin:miter;stroke-dasharray:none;stroke-opacity:1"
         d="m 32.417268,191.09889 c 0.128507,0.0768 -1.58313,2.32191 -1.761725,3.66571 -0.09388,0.70642 0.119624,1.60614 0.654929,2.12836 2.152561,2.09994 7.15029,0.25171 7.350867,-1.01038 -0.89812,1.22251 -4.519925,1.97769 -6.334792,0.98864 -0.610353,-0.33262 -1.125921,-1.00446 -1.235756,-1.69488 -0.09035,-0.56791 0.116429,-1.449 0.47668,-2.12617 0.591029,-1.11101 0.870684,-1.94041 0.849793,-1.95128 z"
         id="path4385-1" />
      <path
         style="fill:#e9c9f7;fill-opacity:1;stroke:#000000;stroke-width:0;stroke-linecap:butt;stroke-linejoin:miter;stroke-dasharray:none;stroke-opacity:1"
         d="m 22.438986,192.20739 c 0,0 0.636253,1.05508 0.881351,2.0939 0.55826,2.36612 -3.06271,4.77885 -3.589712,4.10254 0.284744,0.0627 1.463856,-0.6299 2.92488,-3.20716 0.394438,-0.69578 0.568579,-1.5359 -0.216519,-2.98928 z"
         id="path4899-1" />
      <ellipse
         style="fill:#f6e1ff;fill-opacity:1;stroke:#8f66a1;stroke-width:0;stroke-linecap:round;stroke-linejoin:round;stroke-dasharray:none;stroke-opacity:1;paint-order:stroke fill markers"
         id="path9059-64-5"
         cx="203.77153"
         cy="-21.487328"
         rx="0.66125995"
         ry="0.87389725"
         transform="matrix(-0.02529499,0.99968003,-0.99968048,-0.02527727,0,0)" />
      <ellipse
         style="fill:#8f66a1;fill-opacity:1;stroke:#8f66a1;stroke-width:0;stroke-linecap:round;stroke-linejoin:round;stroke-dasharray:none;stroke-opacity:1;paint-order:stroke fill markers"
         id="path9059-6-3-4-00"
         cx="203.77448"
         cy="-21.428932"
         rx="0.29376817"
         ry="0.38823345"
         transform="matrix(-0.02529499,0.99968003,-0.99968048,-0.02527727,0,0)" />
      <ellipse
         style="fill:#f6e1ff;fill-opacity:1;stroke:#8f66a1;stroke-width:0;stroke-linecap:round;stroke-linejoin:round;stroke-dasharray:none;stroke-opacity:1;paint-order:stroke fill markers"
         id="path9059-64-2-7"
         cx="165.53761"
         cy="-110.97424"
         rx="0.66131657"
         ry="0.87382245"
         transform="matrix(-0.4949584,0.86891667,-0.86906592,-0.49469631,0,0)" />
      <ellipse
         style="fill:#8f66a1;fill-opacity:1;stroke:#8f66a1;stroke-width:0;stroke-linecap:round;stroke-linejoin:round;stroke-dasharray:none;stroke-opacity:1;paint-order:stroke fill markers"
         id="path9059-6-3-4-3-01"
         cx="165.54056"
         cy="-110.91586"
         rx="0.29379332"
         ry="0.38820022"
         transform="matrix(-0.4949584,0.86891667,-0.86906592,-0.49469631,0,0)" />
      <ellipse
         style="fill:#f6e1ff;fill-opacity:1;stroke:#8f66a1;stroke-width:0;stroke-linecap:round;stroke-linejoin:round;stroke-dasharray:none;stroke-opacity:1;paint-order:stroke fill markers"
         id="path9059-64-2-1-3"
         cx="166.04184"
         cy="-112.93813"
         rx="0.66131657"
         ry="0.87382245"
         transform="matrix(-0.4949584,0.86891667,-0.86906592,-0.49469631,0,0)" />
      <ellipse
         style="fill:#8f66a1;fill-opacity:1;stroke:#8f66a1;stroke-width:0;stroke-linecap:round;stroke-linejoin:round;stroke-dasharray:none;stroke-opacity:1;paint-order:stroke fill markers"
         id="path9059-6-3-4-3-0-7"
         cx="166.04478"
         cy="-112.87973"
         rx="0.29379332"
         ry="0.38820022"
         transform="matrix(-0.4949584,0.86891667,-0.86906592,-0.49469631,0,0)" />
      <ellipse
         style="fill:#f6e1ff;fill-opacity:1;stroke:#8f66a1;stroke-width:0;stroke-linecap:round;stroke-linejoin:round;stroke-dasharray:none;stroke-opacity:1;paint-order:stroke fill markers"
         id="path9059-64-2-1-7-1"
         cx="200.82655"
         cy="-51.696392"
         rx="0.48296762"
         ry="0.68064016"
         transform="matrix(-0.16981174,0.98547652,-0.99808236,-0.06189989,0,0)" />
      <ellipse
         style="fill:#8f66a1;fill-opacity:1;stroke:#8f66a1;stroke-width:0;stroke-linecap:round;stroke-linejoin:round;stroke-dasharray:none;stroke-opacity:1;paint-order:stroke fill markers"
         id="path9059-6-3-4-3-0-1-2"
         cx="200.8287"
         cy="-51.650909"
         rx="0.21456088"
         ry="0.30237797"
         transform="matrix(-0.16981174,0.98547652,-0.99808236,-0.06189989,0,0)" />
      <ellipse
         style="fill:#f6e1ff;fill-opacity:1;stroke:#8f66a1;stroke-width:0;stroke-linecap:round;stroke-linejoin:round;stroke-dasharray:none;stroke-opacity:1;paint-order:stroke fill markers"
         id="path9059-64-4-4"
         cx="204.38631"
         cy="-44.106026"
         rx="0.66125995"
         ry="0.87389725"
         transform="matrix(-0.02529499,0.99968003,-0.99968048,-0.02527727,0,0)" />
      <ellipse
         style="fill:#8f66a1;fill-opacity:1;stroke:#8f66a1;stroke-width:0;stroke-linecap:round;stroke-linejoin:round;stroke-dasharray:none;stroke-opacity:1;paint-order:stroke fill markers"
         id="path9059-6-3-4-0-1"
         cx="204.38925"
         cy="-44.04763"
         rx="0.29376817"
         ry="0.38823345"
         transform="matrix(-0.02529499,0.99968003,-0.99968048,-0.02527727,0,0)" />
      <ellipse
         style="fill:#f6e1ff;fill-opacity:1;stroke:#8f66a1;stroke-width:0;stroke-linecap:round;stroke-linejoin:round;stroke-dasharray:none;stroke-opacity:1;paint-order:stroke fill markers"
         id="path9059-64-4-5-3"
         cx="190.16748"
         cy="-85.931793"
         rx="0.58946991"
         ry="0.78403664"
         transform="matrix(-0.2442863,0.96970315,-0.97057839,-0.24078534,0,0)" />
      <ellipse
         style="fill:#8f66a1;fill-opacity:1;stroke:#8f66a1;stroke-width:0;stroke-linecap:round;stroke-linejoin:round;stroke-dasharray:none;stroke-opacity:1;paint-order:stroke fill markers"
         id="path9059-6-3-4-0-3-4"
         cx="190.1701"
         cy="-85.879402"
         rx="0.26187509"
         ry="0.34831241"
         transform="matrix(-0.2442863,0.96970315,-0.97057839,-0.24078534,0,0)" />
      <ellipse
         style="fill:#f6e1ff;fill-opacity:1;stroke:#8f66a1;stroke-width:0;stroke-linecap:round;stroke-linejoin:round;stroke-dasharray:none;stroke-opacity:1;paint-order:stroke fill markers"
         id="path9059-64-4-2-1"
         cx="202.48016"
         cy="-44.142799"
         rx="0.79369378"
         ry="0.93290222"
         transform="matrix(-0.02249536,0.99974695,-0.999596,-0.02842261,0,0)" />
      <ellipse
         style="fill:#8f66a1;fill-opacity:1;stroke:#8f66a1;stroke-width:0;stroke-linecap:round;stroke-linejoin:round;stroke-dasharray:none;stroke-opacity:1;paint-order:stroke fill markers"
         id="path9059-6-3-4-0-4-5"
         cx="202.4837"
         cy="-44.08046"
         rx="0.3526026"
         ry="0.41444671"
         transform="matrix(-0.02249536,0.99974695,-0.999596,-0.02842261,0,0)" />
      <ellipse
         style="fill:#f6e1ff;fill-opacity:1;stroke:#8f66a1;stroke-width:0;stroke-linecap:round;stroke-linejoin:round;stroke-dasharray:none;stroke-opacity:1;paint-order:stroke fill markers"
         id="path9059-64-4-1-5"
         cx="202.93575"
         cy="-43.417618"
         rx="0.49937317"
         ry="0.74126428"
         transform="matrix(-0.02841338,0.99959626,-0.99974678,-0.02250269,0,0)" />
      <ellipse
         style="fill:#8f66a1;fill-opacity:1;stroke:#8f66a1;stroke-width:0;stroke-linecap:round;stroke-linejoin:round;stroke-dasharray:none;stroke-opacity:1;paint-order:stroke fill markers"
         id="path9059-6-3-4-0-8-3"
         cx="202.93797"
         cy="-43.368084"
         rx="0.22184913"
         ry="0.32931057"
         transform="matrix(-0.02841338,0.99959626,-0.99974678,-0.02250269,0,0)" />
      <ellipse
         style="fill:#f6e1ff;fill-opacity:1;stroke:#8f66a1;stroke-width:0;stroke-linecap:round;stroke-linejoin:round;stroke-dasharray:none;stroke-opacity:1;paint-order:stroke fill markers"
         id="path9059-64-4-1-4-9"
         cx="184.41335"
         cy="60.482536"
         rx="0.55940604"
         ry="0.74124926"
         transform="matrix(0.49262362,0.87024247,-0.87032038,0.49248598,0,0)" />
      <ellipse
         style="fill:#8f66a1;fill-opacity:1;stroke:#8f66a1;stroke-width:0;stroke-linecap:round;stroke-linejoin:round;stroke-dasharray:none;stroke-opacity:1;paint-order:stroke fill markers"
         id="path9059-6-3-4-0-8-92-5"
         cx="184.41583"
         cy="60.532066"
         rx="0.24851905"
         ry="0.32930386"
         transform="matrix(0.49262362,0.87024247,-0.87032038,0.49248598,0,0)" />
      <ellipse
         style="fill:#f6e1ff;fill-opacity:1;stroke:#8f66a1;stroke-width:0;stroke-linecap:round;stroke-linejoin:round;stroke-dasharray:none;stroke-opacity:1;paint-order:stroke fill markers"
         id="path9059-64-4-1-4-3-8"
         cx="146.6711"
         cy="124.6215"
         rx="0.71729881"
         ry="0.9820478"
         transform="matrix(0.76209464,0.64746565,-0.5557024,0.83138129,0,0)" />
      <ellipse
         style="fill:#8f66a1;fill-opacity:1;stroke:#8f66a1;stroke-width:0;stroke-linecap:round;stroke-linejoin:round;stroke-dasharray:none;stroke-opacity:1;paint-order:stroke fill markers"
         id="path9059-6-3-4-0-8-92-1-5"
         cx="146.6743"
         cy="124.68712"
         rx="0.31866372"
         ry="0.43627989"
         transform="matrix(0.76209464,0.64746565,-0.5557024,0.83138129,0,0)" />
      <ellipse
         style="fill:#f6e1ff;fill-opacity:1;stroke:#8f66a1;stroke-width:0;stroke-linecap:round;stroke-linejoin:round;stroke-dasharray:none;stroke-opacity:1;paint-order:stroke fill markers"
         id="path9059-64-4-1-4-3-0-6"
         cx="189.22272"
         cy="91.360153"
         rx="0.48491234"
         ry="0.63007301"
         transform="matrix(0.61834118,0.78590978,-0.82629042,0.56324431,0,0)" />
      <ellipse
         style="fill:#8f66a1;fill-opacity:1;stroke:#8f66a1;stroke-width:0;stroke-linecap:round;stroke-linejoin:round;stroke-dasharray:none;stroke-opacity:1;paint-order:stroke fill markers"
         id="path9059-6-3-4-0-8-92-1-8-6"
         cx="189.22488"
         cy="91.40226"
         rx="0.21542484"
         ry="0.27991325"
         transform="matrix(0.61834118,0.78590978,-0.82629042,0.56324431,0,0)" />
      <ellipse
         style="fill:#f6e1ff;fill-opacity:1;stroke:#8f66a1;stroke-width:0;stroke-linecap:round;stroke-linejoin:round;stroke-dasharray:none;stroke-opacity:1;paint-order:stroke fill markers"
         id="path9059-64-4-1-4-3-0-3-0"
         cx="189.29076"
         cy="92.975471"
         rx="0.48491234"
         ry="0.63007301"
         transform="matrix(0.61834118,0.78590978,-0.82629042,0.56324431,0,0)" />
      <ellipse
         style="fill:#8f66a1;fill-opacity:1;stroke:#8f66a1;stroke-width:0;stroke-linecap:round;stroke-linejoin:round;stroke-dasharray:none;stroke-opacity:1;paint-order:stroke fill markers"
         id="path9059-6-3-4-0-8-92-1-8-0-4"
         cx="189.29292"
         cy="93.01757"
         rx="0.21542484"
         ry="0.27991325"
         transform="matrix(0.61834118,0.78590978,-0.82629042,0.56324431,0,0)" />
      <g
         id="g9479-0-7-7-9-1-1-4-5-1"
         transform="matrix(0.0537406,0.27197972,-0.28471742,-0.00297714,102.18631,185.64003)"
         style="stroke-width:3.59728">
        <g
           id="g9459-4-8-4-2-0-5-9-2-0"
           style="stroke-width:3.59728">
          <ellipse
             style="opacity:1;fill:#e9c9f7;fill-opacity:1;stroke:#8f66a1;stroke-width:0;stroke-linecap:round;stroke-linejoin:round;stroke-dasharray:none;stroke-opacity:1;paint-order:stroke fill markers"
             id="path9059-64-4-1-4-3-0-3-3-8"
             cx="60.217018"
             cy="233.95486"
             rx="1.3552871"
             ry="1.790471" />
          <ellipse
             style="fill:#8f66a1;fill-opacity:1;stroke:#8f66a1;stroke-width:0;stroke-linecap:round;stroke-linejoin:round;stroke-dasharray:none;stroke-opacity:1;paint-order:stroke fill markers"
             id="path9059-6-3-4-0-8-92-1-8-0-8-1"
             cx="60.223061"
             cy="234.07451"
             rx="0.60209334"
             ry="0.79542613" />
        </g>
      </g>
      <ellipse
         style="fill:#f6e1ff;fill-opacity:1;stroke:#8f66a1;stroke-width:0;stroke-linecap:round;stroke-linejoin:round;stroke-dasharray:none;stroke-opacity:1;paint-order:stroke fill markers"
         id="path9059-64-4-1-4-3-0-3-3-0-8"
         cx="205.22403"
         cy="0.96984744"
         rx="0.37573734"
         ry="0.50980616"
         transform="matrix(0.19384269,0.98103262,-0.99994534,-0.0104559,0,0)" />
      <ellipse
         style="fill:#8f66a1;fill-opacity:1;stroke:#8f66a1;stroke-width:0;stroke-linecap:round;stroke-linejoin:round;stroke-dasharray:none;stroke-opacity:1;paint-order:stroke fill markers"
         id="path9059-6-3-4-0-8-92-1-8-0-8-4-4"
         cx="205.22569"
         cy="1.0039141"
         rx="0.16692327"
         ry="0.22648406"
         transform="matrix(0.19384269,0.98103262,-0.99994534,-0.0104559,0,0)" />
      <ellipse
         style="fill:#f6e1ff;fill-opacity:1;stroke:#8f66a1;stroke-width:0;stroke-linecap:round;stroke-linejoin:round;stroke-dasharray:none;stroke-opacity:1;paint-order:stroke fill markers"
         id="path9059-64-4-1-4-3-0-3-3-0-1-9"
         cx="205.23706"
         cy="2.1945708"
         rx="0.37573734"
         ry="0.50980616"
         transform="matrix(0.19384269,0.98103262,-0.99994534,-0.0104559,0,0)" />
      <ellipse
         style="fill:#8f66a1;fill-opacity:1;stroke:#8f66a1;stroke-width:0;stroke-linecap:round;stroke-linejoin:round;stroke-dasharray:none;stroke-opacity:1;paint-order:stroke fill markers"
         id="path9059-6-3-4-0-8-92-1-8-0-8-4-0-8"
         cx="205.23872"
         cy="2.2286372"
         rx="0.16692327"
         ry="0.22648406"
         transform="matrix(0.19384269,0.98103262,-0.99994534,-0.0104559,0,0)" />
      <ellipse
         style="fill:#f6e1ff;fill-opacity:1;stroke:#8f66a1;stroke-width:0;stroke-linecap:round;stroke-linejoin:round;stroke-dasharray:none;stroke-opacity:1;paint-order:stroke fill markers"
         id="path9059-64-4-1-4-3-0-3-3-0-1-3-8"
         cx="204.82233"
         cy="82.211571"
         rx="0.37577233"
         ry="0.5097819"
         transform="matrix(0.55048815,0.83484298,-0.92970072,0.36831586,0,0)" />
      <ellipse
         style="fill:#8f66a1;fill-opacity:1;stroke:#8f66a1;stroke-width:0;stroke-linecap:round;stroke-linejoin:round;stroke-dasharray:none;stroke-opacity:1;paint-order:stroke fill markers"
         id="path9059-6-3-4-0-8-92-1-8-0-8-4-0-3-8"
         cx="204.82401"
         cy="82.245636"
         rx="0.16693881"
         ry="0.22647329"
         transform="matrix(0.55048815,0.83484298,-0.92970072,0.36831586,0,0)" />
      <ellipse
         style="fill:#f6e1ff;fill-opacity:1;stroke:#8f66a1;stroke-width:0;stroke-linecap:round;stroke-linejoin:round;stroke-dasharray:none;stroke-opacity:1;paint-order:stroke fill markers"
         id="path9059-64-4-1-9-0"
         cx="203.07272"
         cy="-42.529793"
         rx="0.36692098"
         ry="0.62338251"
         transform="matrix(-0.03252244,0.99947101,-0.99980676,-0.01965831,0,0)" />
      <ellipse
         style="fill:#8f66a1;fill-opacity:1;stroke:#8f66a1;stroke-width:0;stroke-linecap:round;stroke-linejoin:round;stroke-dasharray:none;stroke-opacity:1;paint-order:stroke fill markers"
         id="path9059-6-3-4-0-8-9-4"
         cx="203.07436"
         cy="-42.488136"
         rx="0.16300656"
         ry="0.27694094"
         transform="matrix(-0.03252244,0.99947101,-0.99980676,-0.01965831,0,0)" />
      <ellipse
         style="fill:#f6e1ff;fill-opacity:1;stroke:#8f66a1;stroke-width:0;stroke-linecap:round;stroke-linejoin:round;stroke-dasharray:none;stroke-opacity:1;paint-order:stroke fill markers"
         id="path9059-64-4-1-9-3-5"
         cx="174.94412"
         cy="-141.24788"
         rx="0.27996793"
         ry="0.52609158"
         transform="matrix(-0.54252781,0.84003784,-0.91695743,-0.39898505,0,0)" />
      <ellipse
         style="fill:#8f66a1;fill-opacity:1;stroke:#8f66a1;stroke-width:0;stroke-linecap:round;stroke-linejoin:round;stroke-dasharray:none;stroke-opacity:1;paint-order:stroke fill markers"
         id="path9059-6-3-4-0-8-9-7-3"
         cx="174.94537"
         cy="-141.21272"
         rx="0.12437722"
         ry="0.23371895"
         transform="matrix(-0.54252781,0.84003784,-0.91695743,-0.39898505,0,0)" />
      <ellipse
         style="fill:#f6e1ff;fill-opacity:1;stroke:#8f66a1;stroke-width:0;stroke-linecap:round;stroke-linejoin:round;stroke-dasharray:none;stroke-opacity:1;paint-order:stroke fill markers"
         id="path9059-64-4-1-9-3-6-1"
         cx="175.75047"
         cy="-142.57634"
         rx="0.27996793"
         ry="0.52609158"
         transform="matrix(-0.54252781,0.84003784,-0.91695743,-0.39898505,0,0)" />
      <ellipse
         style="fill:#8f66a1;fill-opacity:1;stroke:#8f66a1;stroke-width:0;stroke-linecap:round;stroke-linejoin:round;stroke-dasharray:none;stroke-opacity:1;paint-order:stroke fill markers"
         id="path9059-6-3-4-0-8-9-7-7-2"
         cx="175.75171"
         cy="-142.54118"
         rx="0.12437722"
         ry="0.23371895"
         transform="matrix(-0.54252781,0.84003784,-0.91695743,-0.39898505,0,0)" />
      <ellipse
         style="fill:#f6e1ff;fill-opacity:1;stroke:#8f66a1;stroke-width:0;stroke-linecap:round;stroke-linejoin:round;stroke-dasharray:none;stroke-opacity:1;paint-order:stroke fill markers"
         id="path9059-64-4-1-9-3-2-7"
         cx="178.09224"
         cy="-144.54642"
         rx="0.23111631"
         ry="0.44611448"
         transform="matrix(-0.5615229,0.82746119,-0.92391489,-0.38259805,0,0)" />
      <ellipse
         style="fill:#8f66a1;fill-opacity:1;stroke:#8f66a1;stroke-width:0;stroke-linecap:round;stroke-linejoin:round;stroke-dasharray:none;stroke-opacity:1;paint-order:stroke fill markers"
         id="path9059-6-3-4-0-8-9-7-5-5"
         cx="178.09326"
         cy="-144.51662"
         rx="0.10267463"
         ry="0.19818871"
         transform="matrix(-0.5615229,0.82746119,-0.92391489,-0.38259805,0,0)" />
      <ellipse
         style="fill:#f6e1ff;fill-opacity:1;stroke:#8f66a1;stroke-width:0;stroke-linecap:round;stroke-linejoin:round;stroke-dasharray:none;stroke-opacity:1;paint-order:stroke fill markers"
         id="path9059-64-4-1-9-3-2-49-5"
         cx="146.60736"
         cy="-178.35811"
         rx="0.2311357"
         ry="0.44608212"
         transform="matrix(-0.74468554,0.6674155,-0.80424632,-0.5942961,0,0)" />
      <ellipse
         style="fill:#8f66a1;fill-opacity:1;stroke:#8f66a1;stroke-width:0;stroke-linecap:round;stroke-linejoin:round;stroke-dasharray:none;stroke-opacity:1;paint-order:stroke fill markers"
         id="path9059-6-3-4-0-8-9-7-5-7-20"
         cx="146.6084"
         cy="-178.32829"
         rx="0.10268324"
         ry="0.19817433"
         transform="matrix(-0.74468554,0.6674155,-0.80424632,-0.5942961,0,0)" />
      <ellipse
         style="fill:#f6e1ff;fill-opacity:1;stroke:#8f66a1;stroke-width:0;stroke-linecap:round;stroke-linejoin:round;stroke-dasharray:none;stroke-opacity:1;paint-order:stroke fill markers"
         id="path9059-64-4-1-9-3-2-49-9-9"
         cx="-93.228867"
         cy="-153.3513"
         rx="0.23115325"
         ry="0.44599426"
         transform="matrix(-0.87817357,-0.47834212,0.29138982,-0.9566044,0,0)" />
      <ellipse
         style="fill:#8f66a1;fill-opacity:1;stroke:#8f66a1;stroke-width:0;stroke-linecap:round;stroke-linejoin:round;stroke-dasharray:none;stroke-opacity:1;paint-order:stroke fill markers"
         id="path9059-6-3-4-0-8-9-7-5-7-3-7"
         cx="-93.227837"
         cy="-153.3215"
         rx="0.10269103"
         ry="0.19813529"
         transform="matrix(-0.87817357,-0.47834212,0.29138982,-0.9566044,0,0)" />
      <ellipse
         style="fill:#f6e1ff;fill-opacity:1;stroke:#8f66a1;stroke-width:0;stroke-linecap:round;stroke-linejoin:round;stroke-dasharray:none;stroke-opacity:1;paint-order:stroke fill markers"
         id="path9059-64-4-1-9-3-2-49-9-3-9"
         cx="-93.292816"
         cy="-154.5746"
         rx="0.23115325"
         ry="0.44599426"
         transform="matrix(-0.87817357,-0.47834212,0.29138982,-0.9566044,0,0)" />
      <ellipse
         style="fill:#8f66a1;fill-opacity:1;stroke:#8f66a1;stroke-width:0;stroke-linecap:round;stroke-linejoin:round;stroke-dasharray:none;stroke-opacity:1;paint-order:stroke fill markers"
         id="path9059-6-3-4-0-8-9-7-5-7-3-0-9"
         cx="-93.291786"
         cy="-154.5448"
         rx="0.10269103"
         ry="0.19813529"
         transform="matrix(-0.87817357,-0.47834212,0.29138982,-0.9566044,0,0)" />
      <ellipse
         style="fill:#f6e1ff;fill-opacity:1;stroke:#8f66a1;stroke-width:0;stroke-linecap:round;stroke-linejoin:round;stroke-dasharray:none;stroke-opacity:1;paint-order:stroke fill markers"
         id="path9059-64-4-1-9-3-2-49-9-3-8-15"
         cx="-93.644989"
         cy="-155.8421"
         rx="0.23115325"
         ry="0.44599426"
         transform="matrix(-0.87817357,-0.47834212,0.29138982,-0.9566044,0,0)" />
      <ellipse
         style="fill:#8f66a1;fill-opacity:1;stroke:#8f66a1;stroke-width:0;stroke-linecap:round;stroke-linejoin:round;stroke-dasharray:none;stroke-opacity:1;paint-order:stroke fill markers"
         id="path9059-6-3-4-0-8-9-7-5-7-3-0-6-9"
         cx="-93.643959"
         cy="-155.8123"
         rx="0.10269103"
         ry="0.19813529"
         transform="matrix(-0.87817357,-0.47834212,0.29138982,-0.9566044,0,0)" />
      <ellipse
         style="fill:#f6e1ff;fill-opacity:1;stroke:#8f66a1;stroke-width:0;stroke-linecap:round;stroke-linejoin:round;stroke-dasharray:none;stroke-opacity:1;paint-order:stroke fill markers"
         id="path9059-64-4-1-9-3-2-49-9-3-8-1-0"
         cx="-178.5643"
         cy="-97.322975"
         rx="0.37886629"
         ry="0.56186509"
         transform="matrix(-0.64017352,-0.76823035,0.80358328,-0.59519234,0,0)" />
      <ellipse
         style="fill:#8f66a1;fill-opacity:1;stroke:#8f66a1;stroke-width:0;stroke-linecap:round;stroke-linejoin:round;stroke-dasharray:none;stroke-opacity:1;paint-order:stroke fill markers"
         id="path9059-6-3-4-0-8-9-7-5-7-3-0-6-6-9"
         cx="-178.56261"
         cy="-97.285431"
         rx="0.16831332"
         ry="0.24961153"
         transform="matrix(-0.64017352,-0.76823035,0.80358328,-0.59519234,0,0)" />
      <ellipse
         style="fill:#f6e1ff;fill-opacity:1;stroke:#8f66a1;stroke-width:0;stroke-linecap:round;stroke-linejoin:round;stroke-dasharray:none;stroke-opacity:1;paint-order:stroke fill markers"
         id="path9059-64-4-1-9-3-2-49-9-3-8-1-8-6"
         cx="-178.7655"
         cy="-98.828629"
         rx="0.37886629"
         ry="0.56186509"
         transform="matrix(-0.64017352,-0.76823035,0.80358328,-0.59519234,0,0)" />
      <ellipse
         style="fill:#8f66a1;fill-opacity:1;stroke:#8f66a1;stroke-width:0;stroke-linecap:round;stroke-linejoin:round;stroke-dasharray:none;stroke-opacity:1;paint-order:stroke fill markers"
         id="path9059-6-3-4-0-8-9-7-5-7-3-0-6-6-6-83"
         cx="-178.76381"
         cy="-98.791084"
         rx="0.16831332"
         ry="0.24961153"
         transform="matrix(-0.64017352,-0.76823035,0.80358328,-0.59519234,0,0)" />
      <ellipse
         style="fill:#f6e1ff;fill-opacity:1;stroke:#8f66a1;stroke-width:0;stroke-linecap:round;stroke-linejoin:round;stroke-dasharray:none;stroke-opacity:1;paint-order:stroke fill markers"
         id="path9059-64-4-1-9-3-2-49-9-3-8-1-8-0-1"
         cx="-195.43547"
         cy="29.951908"
         rx="0.3788119"
         ry="0.56193465"
         transform="matrix(-0.0177717,-0.99984207,0.99923574,0.03908887,0,0)" />
      <ellipse
         style="fill:#8f66a1;fill-opacity:1;stroke:#8f66a1;stroke-width:0;stroke-linecap:round;stroke-linejoin:round;stroke-dasharray:none;stroke-opacity:1;paint-order:stroke fill markers"
         id="path9059-6-3-4-0-8-9-7-5-7-3-0-6-6-6-8-9"
         cx="-195.43379"
         cy="29.989458"
         rx="0.16828915"
         ry="0.24964242"
         transform="matrix(-0.0177717,-0.99984207,0.99923574,0.03908887,0,0)" />
      <ellipse
         style="fill:#f6e1ff;fill-opacity:1;stroke:#8f66a1;stroke-width:0;stroke-linecap:round;stroke-linejoin:round;stroke-dasharray:none;stroke-opacity:1;paint-order:stroke fill markers"
         id="path9059-64-4-1-9-3-2-49-0-9"
         cx="146.63477"
         cy="-177.13808"
         rx="0.2311357"
         ry="0.44608212"
         transform="matrix(-0.74468554,0.6674155,-0.80424632,-0.5942961,0,0)" />
      <ellipse
         style="fill:#8f66a1;fill-opacity:1;stroke:#8f66a1;stroke-width:0;stroke-linecap:round;stroke-linejoin:round;stroke-dasharray:none;stroke-opacity:1;paint-order:stroke fill markers"
         id="path9059-6-3-4-0-8-9-7-5-7-2-7"
         cx="146.6358"
         cy="-177.10828"
         rx="0.10268324"
         ry="0.19817433"
         transform="matrix(-0.74468554,0.6674155,-0.80424632,-0.5942961,0,0)" />
      <ellipse
         style="fill:#f6e1ff;fill-opacity:1;stroke:#8f66a1;stroke-width:0;stroke-linecap:round;stroke-linejoin:round;stroke-dasharray:none;stroke-opacity:1;paint-order:stroke fill markers"
         id="path9059-64-4-1-9-3-2-49-0-1-2"
         cx="146.64429"
         cy="-175.93813"
         rx="0.2311357"
         ry="0.44608212"
         transform="matrix(-0.74468554,0.6674155,-0.80424632,-0.5942961,0,0)" />
      <ellipse
         style="fill:#8f66a1;fill-opacity:1;stroke:#8f66a1;stroke-width:0;stroke-linecap:round;stroke-linejoin:round;stroke-dasharray:none;stroke-opacity:1;paint-order:stroke fill markers"
         id="path9059-6-3-4-0-8-9-7-5-7-2-8-49"
         cx="146.64531"
         cy="-175.90831"
         rx="0.10268324"
         ry="0.19817433"
         transform="matrix(-0.74468554,0.6674155,-0.80424632,-0.5942961,0,0)" />
      <ellipse
         style="fill:#f6e1ff;fill-opacity:1;stroke:#8f66a1;stroke-width:0;stroke-linecap:round;stroke-linejoin:round;stroke-dasharray:none;stroke-opacity:1;paint-order:stroke fill markers"
         id="path9059-64-4-1-9-3-2-49-0-1-7-7"
         cx="145.98698"
         cy="-174.14693"
         rx="0.27463046"
         ry="0.52973861"
         transform="matrix(-0.74273913,0.6695809,-0.80257827,-0.59654683,0,0)" />
      <ellipse
         style="fill:#8f66a1;fill-opacity:1;stroke:#8f66a1;stroke-width:0;stroke-linecap:round;stroke-linejoin:round;stroke-dasharray:none;stroke-opacity:1;paint-order:stroke fill markers"
         id="path9059-6-3-4-0-8-9-7-5-7-2-8-4-9"
         cx="145.9882"
         cy="-174.11153"
         rx="0.12200601"
         ry="0.23533916"
         transform="matrix(-0.74273913,0.6695809,-0.80257827,-0.59654683,0,0)" />
      <ellipse
         style="fill:#f6e1ff;fill-opacity:1;stroke:#8f66a1;stroke-width:0;stroke-linecap:round;stroke-linejoin:round;stroke-dasharray:none;stroke-opacity:1;paint-order:stroke fill markers"
         id="path9059-64-4-1-9-3-2-4-6"
         cx="141.23753"
         cy="-179.31938"
         rx="0.23113823"
         ry="0.44607738"
         transform="matrix(-0.76530073,0.64367289,-0.78516511,-0.61928648,0,0)" />
      <ellipse
         style="fill:#8f66a1;fill-opacity:1;stroke:#8f66a1;stroke-width:0;stroke-linecap:round;stroke-linejoin:round;stroke-dasharray:none;stroke-opacity:1;paint-order:stroke fill markers"
         id="path9059-6-3-4-0-8-9-7-5-0-1"
         cx="141.23857"
         cy="-179.28957"
         rx="0.10268436"
         ry="0.19817221"
         transform="matrix(-0.76530073,0.64367289,-0.78516511,-0.61928648,0,0)" />
      <ellipse
         style="fill:#f6e1ff;fill-opacity:1;stroke:#8f66a1;stroke-width:0;stroke-linecap:round;stroke-linejoin:round;stroke-dasharray:none;stroke-opacity:1;paint-order:stroke fill markers"
         id="path9059-64-4-1-9-3-2-4-4-1"
         cx="141.13033"
         cy="-178.05179"
         rx="0.23113823"
         ry="0.44607738"
         transform="matrix(-0.76530073,0.64367289,-0.78516511,-0.61928648,0,0)" />
      <ellipse
         style="fill:#8f66a1;fill-opacity:1;stroke:#8f66a1;stroke-width:0;stroke-linecap:round;stroke-linejoin:round;stroke-dasharray:none;stroke-opacity:1;paint-order:stroke fill markers"
         id="path9059-6-3-4-0-8-9-7-5-0-0-3"
         cx="141.13136"
         cy="-178.02199"
         rx="0.10268436"
         ry="0.19817221"
         transform="matrix(-0.76530073,0.64367289,-0.78516511,-0.61928648,0,0)" />
      <ellipse
         style="fill:#f6e1ff;fill-opacity:1;stroke:#8f66a1;stroke-width:0;stroke-linecap:round;stroke-linejoin:round;stroke-dasharray:none;stroke-opacity:1;paint-order:stroke fill markers"
         id="path9059-64-0-8"
         cx="202.43901"
         cy="-22.618433"
         rx="0.60076487"
         ry="0.80325693"
         transform="matrix(-0.02559172,0.99967248,-0.99968785,-0.02498417,0,0)" />
      <ellipse
         style="fill:#8f66a1;fill-opacity:1;stroke:#8f66a1;stroke-width:0;stroke-linecap:round;stroke-linejoin:round;stroke-dasharray:none;stroke-opacity:1;paint-order:stroke fill markers"
         id="path9059-6-3-4-9-94"
         cx="202.4417"
         cy="-22.564756"
         rx="0.26689291"
         ry="0.3568511"
         transform="matrix(-0.02559172,0.99967248,-0.99968785,-0.02498417,0,0)" />
      <ellipse
         style="fill:#f6e1ff;fill-opacity:1;stroke:#8f66a1;stroke-width:0;stroke-linecap:round;stroke-linejoin:round;stroke-dasharray:none;stroke-opacity:1;paint-order:stroke fill markers"
         id="path9059-64-0-7-95"
         cx="202.56747"
         cy="-23.933846"
         rx="0.47974113"
         ry="0.59138781"
         transform="matrix(-0.02359345,0.99972164,-0.99963272,-0.02710011,0,0)" />
      <ellipse
         style="fill:#8f66a1;fill-opacity:1;stroke:#8f66a1;stroke-width:0;stroke-linecap:round;stroke-linejoin:round;stroke-dasharray:none;stroke-opacity:1;paint-order:stroke fill markers"
         id="path9059-6-3-4-9-9-17"
         cx="202.56961"
         cy="-23.894333"
         rx="0.21312749"
         ry="0.26272714"
         transform="matrix(-0.02359345,0.99972164,-0.99963272,-0.02710011,0,0)" />
      <ellipse
         style="fill:#f6e1ff;fill-opacity:1;stroke:#8f66a1;stroke-width:0;stroke-linecap:round;stroke-linejoin:round;stroke-dasharray:none;stroke-opacity:1;paint-order:stroke fill markers"
         id="path9059-64-0-7-9-4"
         cx="203.78764"
         cy="-23.096727"
         rx="0.47974113"
         ry="0.59138781"
         transform="matrix(-0.02359345,0.99972164,-0.99963272,-0.02710011,0,0)" />
      <ellipse
         style="fill:#8f66a1;fill-opacity:1;stroke:#8f66a1;stroke-width:0;stroke-linecap:round;stroke-linejoin:round;stroke-dasharray:none;stroke-opacity:1;paint-order:stroke fill markers"
         id="path9059-6-3-4-9-9-1-6"
         cx="203.78978"
         cy="-23.057213"
         rx="0.21312749"
         ry="0.26272714"
         transform="matrix(-0.02359345,0.99972164,-0.99963272,-0.02710011,0,0)" />
      <ellipse
         style="fill:#f6e1ff;fill-opacity:1;stroke:#8f66a1;stroke-width:0;stroke-linecap:round;stroke-linejoin:round;stroke-dasharray:none;stroke-opacity:1;paint-order:stroke fill markers"
         id="path9059-64-0-7-9-8-2"
         cx="203.7471"
         cy="-24.751038"
         rx="0.39499304"
         ry="0.48960316"
         transform="matrix(-0.02372371,0.99971855,-0.99963675,-0.02695134,0,0)" />
      <ellipse
         style="fill:#8f66a1;fill-opacity:1;stroke:#8f66a1;stroke-width:0;stroke-linecap:round;stroke-linejoin:round;stroke-dasharray:none;stroke-opacity:1;paint-order:stroke fill markers"
         id="path9059-6-3-4-9-9-1-7-2"
         cx="203.74887"
         cy="-24.718325"
         rx="0.1754777"
         ry="0.21750878"
         transform="matrix(-0.02372371,0.99971855,-0.99963675,-0.02695134,0,0)" />
      <ellipse
         style="fill:#f6e1ff;fill-opacity:1;stroke:#8f66a1;stroke-width:0;stroke-linecap:round;stroke-linejoin:round;stroke-dasharray:none;stroke-opacity:1;paint-order:stroke fill markers"
         id="path9059-64-0-7-9-3-7"
         cx="203.69351"
         cy="-27.30039"
         rx="0.31876171"
         ry="0.48106438"
         transform="matrix(-0.02888792,0.99958266,-0.99975504,-0.02213294,0,0)" />
      <ellipse
         style="fill:#8f66a1;fill-opacity:1;stroke:#8f66a1;stroke-width:0;stroke-linecap:round;stroke-linejoin:round;stroke-dasharray:none;stroke-opacity:1;paint-order:stroke fill markers"
         id="path9059-6-3-4-9-9-1-1-0"
         cx="203.69493"
         cy="-27.268248"
         rx="0.14161155"
         ry="0.21371537"
         transform="matrix(-0.02888792,0.99958266,-0.99975504,-0.02213294,0,0)" />
      <ellipse
         style="fill:#f6e1ff;fill-opacity:1;stroke:#8f66a1;stroke-width:0;stroke-linecap:round;stroke-linejoin:round;stroke-dasharray:none;stroke-opacity:1;paint-order:stroke fill markers"
         id="path9059-64-0-7-9-3-9-7"
         cx="204.56314"
         cy="16.538675"
         rx="0.3187657"
         ry="0.48105785"
         transform="matrix(0.19149419,0.98149375,-0.98020746,0.19797308,0,0)" />
      <ellipse
         style="fill:#8f66a1;fill-opacity:1;stroke:#8f66a1;stroke-width:0;stroke-linecap:round;stroke-linejoin:round;stroke-dasharray:none;stroke-opacity:1;paint-order:stroke fill markers"
         id="path9059-6-3-4-9-9-1-1-5-2"
         cx="204.56456"
         cy="16.570818"
         rx="0.14161332"
         ry="0.21371247"
         transform="matrix(0.19149419,0.98149375,-0.98020746,0.19797308,0,0)" />
      <ellipse
         style="fill:#f6e1ff;fill-opacity:1;stroke:#8f66a1;stroke-width:0;stroke-linecap:round;stroke-linejoin:round;stroke-dasharray:none;stroke-opacity:1;paint-order:stroke fill markers"
         id="path9059-64-0-7-9-3-93-8"
         cx="201.81857"
         cy="34.702858"
         rx="0.31877065"
         ry="0.48105025"
         transform="matrix(0.28419216,0.95876734,-0.9568864,0.29046243,0,0)" />
      <ellipse
         style="fill:#8f66a1;fill-opacity:1;stroke:#8f66a1;stroke-width:0;stroke-linecap:round;stroke-linejoin:round;stroke-dasharray:none;stroke-opacity:1;paint-order:stroke fill markers"
         id="path9059-6-3-4-9-9-1-1-4-2"
         cx="201.81999"
         cy="34.735001"
         rx="0.14161551"
         ry="0.21370909"
         transform="matrix(0.28419216,0.95876734,-0.9568864,0.29046243,0,0)" />
      <ellipse
         style="fill:#f6e1ff;fill-opacity:1;stroke:#8f66a1;stroke-width:0;stroke-linecap:round;stroke-linejoin:round;stroke-dasharray:none;stroke-opacity:1;paint-order:stroke fill markers"
         id="path9059-64-0-7-9-3-93-5-8"
         cx="193.43636"
         cy="64.879074"
         rx="0.31878245"
         ry="0.48103216"
         transform="matrix(0.43184855,0.90194614,-0.89913552,0.43767032,0,0)" />
      <ellipse
         style="fill:#8f66a1;fill-opacity:1;stroke:#8f66a1;stroke-width:0;stroke-linecap:round;stroke-linejoin:round;stroke-dasharray:none;stroke-opacity:1;paint-order:stroke fill markers"
         id="path9059-6-3-4-9-9-1-1-4-7-3"
         cx="193.43777"
         cy="64.911209"
         rx="0.14162076"
         ry="0.21370105"
         transform="matrix(0.43184855,0.90194614,-0.89913552,0.43767032,0,0)" />
      <ellipse
         style="fill:#f6e1ff;fill-opacity:1;stroke:#8f66a1;stroke-width:0;stroke-linecap:round;stroke-linejoin:round;stroke-dasharray:none;stroke-opacity:1;paint-order:stroke fill markers"
         id="path9059-64-0-7-9-3-93-5-6-2"
         cx="176.11908"
         cy="100.18955"
         rx="0.27607882"
         ry="0.41558114"
         transform="matrix(0.59807387,0.80144098,-0.79261026,0.6097286,0,0)" />
      <ellipse
         style="fill:#8f66a1;fill-opacity:1;stroke:#8f66a1;stroke-width:0;stroke-linecap:round;stroke-linejoin:round;stroke-dasharray:none;stroke-opacity:1;paint-order:stroke fill markers"
         id="path9059-6-3-4-9-9-1-1-4-7-4-6"
         cx="176.12032"
         cy="100.21732"
         rx="0.12264945"
         ry="0.18462409"
         transform="matrix(0.59807387,0.80144098,-0.79261026,0.6097286,0,0)" />
      <ellipse
         style="fill:#f6e1ff;fill-opacity:1;stroke:#8f66a1;stroke-width:0;stroke-linecap:round;stroke-linejoin:round;stroke-dasharray:none;stroke-opacity:1;paint-order:stroke fill markers"
         id="path9059-64-0-7-5-1"
         cx="202.78448"
         cy="-25.798296"
         rx="0.40917832"
         ry="0.54090625"
         transform="matrix(-0.0253021,0.99967985,-0.99968066,-0.02527022,0,0)" />
      <ellipse
         style="fill:#8f66a1;fill-opacity:1;stroke:#8f66a1;stroke-width:0;stroke-linecap:round;stroke-linejoin:round;stroke-dasharray:none;stroke-opacity:1;paint-order:stroke fill markers"
         id="path9059-6-3-4-9-9-0-7"
         cx="202.78633"
         cy="-25.762152"
         rx="0.18177959"
         ry="0.24030043"
         transform="matrix(-0.0253021,0.99967985,-0.99968066,-0.02527022,0,0)" />
      <ellipse
         style="fill:#f6e1ff;fill-opacity:1;stroke:#8f66a1;stroke-width:0;stroke-linecap:round;stroke-linejoin:round;stroke-dasharray:none;stroke-opacity:1;paint-order:stroke fill markers"
         id="path9059-64-0-7-5-5-6"
         cx="199.0177"
         cy="48.747944"
         rx="0.42932755"
         ry="0.49048707"
         transform="matrix(0.34191721,0.93973008,-0.94230736,0.33474893,0,0)" />
      <ellipse
         style="fill:#8f66a1;fill-opacity:1;stroke:#8f66a1;stroke-width:0;stroke-linecap:round;stroke-linejoin:round;stroke-dasharray:none;stroke-opacity:1;paint-order:stroke fill markers"
         id="path9059-6-3-4-9-9-0-4-50"
         cx="199.01961"
         cy="48.78072"
         rx="0.19073102"
         ry="0.21790147"
         transform="matrix(0.34191721,0.93973008,-0.94230736,0.33474893,0,0)" />
      <ellipse
         style="fill:#f6e1ff;fill-opacity:1;stroke:#8f66a1;stroke-width:0;stroke-linecap:round;stroke-linejoin:round;stroke-dasharray:none;stroke-opacity:1;paint-order:stroke fill markers"
         id="path9059-64-0-7-5-5-2-4"
         cx="184.13647"
         cy="89.796471"
         rx="0.42935377"
         ry="0.49045748"
         transform="matrix(0.53962618,0.84190474,-0.84604109,0.53311769,0,0)" />
      <ellipse
         style="fill:#8f66a1;fill-opacity:1;stroke:#8f66a1;stroke-width:0;stroke-linecap:round;stroke-linejoin:round;stroke-dasharray:none;stroke-opacity:1;paint-order:stroke fill markers"
         id="path9059-6-3-4-9-9-0-4-5-5"
         cx="184.13838"
         cy="89.829239"
         rx="0.19074267"
         ry="0.21788831"
         transform="matrix(0.53962618,0.84190474,-0.84604109,0.53311769,0,0)" />
      <ellipse
         style="fill:#f6e1ff;fill-opacity:1;stroke:#8f66a1;stroke-width:0;stroke-linecap:round;stroke-linejoin:round;stroke-dasharray:none;stroke-opacity:1;paint-order:stroke fill markers"
         id="path9059-64-0-7-5-5-2-5-3"
         cx="184.09744"
         cy="88.26899"
         rx="0.42935377"
         ry="0.49045748"
         transform="matrix(0.53962618,0.84190474,-0.84604111,0.53311767,0,0)" />
      <ellipse
         style="fill:#8f66a1;fill-opacity:1;stroke:#8f66a1;stroke-width:0;stroke-linecap:round;stroke-linejoin:round;stroke-dasharray:none;stroke-opacity:1;paint-order:stroke fill markers"
         id="path9059-6-3-4-9-9-0-4-5-3-7"
         cx="184.09937"
         cy="88.301765"
         rx="0.19074266"
         ry="0.21788831"
         transform="matrix(0.53962618,0.84190474,-0.84604111,0.53311767,0,0)" />
    </g>
  </g>
</svg>
