<?xml version="1.0" encoding="UTF-8" standalone="no"?>
<!-- Created with Inkscape (http://www.inkscape.org/) -->

<svg
   width="50mm"
   height="50mm"
   viewBox="0 0 50 50"
   version="1.1"
   id="svg3355"
   xmlns="http://www.w3.org/2000/svg"
   xmlns:svg="http://www.w3.org/2000/svg">
  <defs
     id="defs3352" />
  <g
     id="layer1">
    <g
       id="g3227"
       transform="translate(-112.26269,-31.565025)">
      <path
         style="fill:#f6e1ff;fill-opacity:1;stroke:#000000;stroke-width:0;stroke-linecap:butt;stroke-linejoin:miter;stroke-dasharray:none;stroke-opacity:1"
         d="m 147.19163,57.211349 c 1.13614,-1.0417 -13.52513,-10.272112 -21.3884,-7.498515 -2.42561,0.855583 -3.29311,3.960461 -3.0515,6.273339 0.31556,3.021043 2.77081,6.071718 5.59311,7.193002 3.50748,1.393505 7.61518,-0.02834 11.186,-1.740262 2.62998,-1.260833 7.66079,-4.227564 7.66079,-4.227564 z"
         id="path8565-9-5-1-8-4" />
      <path
         style="opacity:0.5;fill:#bf47f5;fill-opacity:0.541176;stroke:#000000;stroke-width:0;stroke-linecap:butt;stroke-linejoin:miter;stroke-dasharray:none;stroke-opacity:1"
         d="m 147.13081,57.211349 c -4.26102,-0.659437 -10.62629,5.409323 -16.13144,4.489564 -1.95618,-0.326836 -5.21111,-1.368536 -6.97227,-2.964171 -1.22351,-1.108531 -1.37233,-3.096431 -1.3362,-2.750569 0.31556,3.021043 2.77082,6.071718 5.59312,7.193002 3.50749,1.393505 7.61517,-0.02834 11.186,-1.740262 2.62999,-1.260833 7.66079,-4.227564 7.66079,-4.227564 z"
         id="path8565-9-5-1-5-4-9" />
      <path
         style="fill:#faeeff;fill-opacity:1;stroke:#000000;stroke-width:0;stroke-linecap:butt;stroke-linejoin:miter;stroke-dasharray:none;stroke-opacity:1"
         d="m 147.19163,57.211349 c -1.80254,-0.535322 3.62599,-4.735414 5.3836,-3.207105 0.70756,0.615278 -0.6452,1.728995 -1.35733,2.22793 -0.36785,0.257708 -1.32085,0.265797 -1.32085,0.265797 0,0.113495 3.48483,0.464282 4.00804,0.613159 0.98965,0.281618 -1.05916,1.865642 -1.99492,2.059133 -1.66768,0.34483 -4.71854,-1.9589 -4.71854,-1.9589 z"
         id="path8567-5-5-1-0-2" />
      <path
         style="fill:#e6b6fc;fill-opacity:1;stroke:#000000;stroke-width:0;stroke-linecap:butt;stroke-linejoin:miter;stroke-dasharray:none;stroke-opacity:1"
         d="m 149.60337,56.372261 c 0.0615,-0.1416 0,0 0,0 0,0 1.99972,-0.620299 2.27205,-1.482815 0.0815,-0.257983 0.008,-0.708357 -0.30161,-0.753452 -1.66549,-0.241736 -3.8739,1.588991 -4.00568,1.490602 -0.13183,-0.09836 3.39908,-2.86277 5.00712,-1.622352 0.74244,0.5727 -0.64518,1.728995 -1.35733,2.22793 -0.36783,0.257708 -1.32085,0.265797 -1.32085,0.265797 0,0.113495 3.48485,0.464282 4.00806,0.613159 0.98964,0.281618 -1.05916,1.865656 -1.99493,2.059133 -0.78194,0.161685 -1.17991,-0.05173 -2.16113,-0.439175 -1.10083,-0.434732 1.79576,0.524605 3.24899,-0.781255 0.92818,-0.834039 -3.65057,-0.988777 -3.39469,-1.577572 z"
         id="path8567-5-5-0-0-0-9" />
      <path
         style="fill:#faeeff;fill-opacity:1;stroke:#000000;stroke-width:0;stroke-linecap:butt;stroke-linejoin:miter;stroke-dasharray:none;stroke-opacity:1"
         d="m 131.04526,60.497707 c -0.101,0.718028 0.81582,1.536123 1.1196,1.063065 1.45496,-2.265679 1.37788,-7.053589 -0.0805,-10.18587 -0.24897,-0.534772 -0.77309,-1.452894 -1.36844,-1.229688 1.08732,3.701239 0.67738,7.604085 0.32935,10.352493 z"
         id="path8569-4-4-1-9-1" />
      <path
         style="fill:#f6e1ff;fill-opacity:1;stroke:#000000;stroke-width:0;stroke-linecap:butt;stroke-linejoin:miter;stroke-dasharray:none;stroke-opacity:1"
         d="m 121.0218,54.699009 c -0.55981,0.4296 0.0504,1.347653 0.15285,1.303535 -0.18937,-0.144654 -1.22014,0.63627 -0.64578,1.299436 0.32832,0.379057 0.91105,0.487517 1.36506,0.349741 2.50254,-1.607411 0.38611,-3.809891 -0.87213,-2.952712 z"
         id="path8571-9-1-8-3-0" />
      <path
         style="fill:#581277;fill-opacity:1;stroke:#000000;stroke-width:0;stroke-linecap:butt;stroke-linejoin:miter;stroke-dasharray:none;stroke-opacity:1"
         d="m 121.0218,54.699009 c -0.55981,0.4296 0.0504,1.347653 0.15285,1.303535 -0.18937,-0.144654 -1.22016,0.636284 -0.64578,1.299436 0.12068,0.139412 0.15172,0.185264 0.32223,0.252686 0.29312,0.115833 0.47578,-0.494051 0.57368,-0.810157 0.12935,-0.644594 0.27684,-2.185972 -0.40302,-2.0455 -1e-5,-1.4e-5 3e-5,0 4e-5,0 z"
         id="path8571-9-1-2-7-7-9" />
      <path
         style="fill:#581277;fill-opacity:1;stroke:#000000;stroke-width:0;stroke-linecap:butt;stroke-linejoin:miter;stroke-dasharray:none;stroke-opacity:1"
         d="m 135.87025,61.088374 c 1.02569,0.421222 2.75222,1.830823 2.00773,2.65266 -0.66226,0.731069 -1.88985,-0.789563 -2.5233,-1.545753 -0.22458,-0.268094 -0.55862,-0.674597 -0.38281,-0.976932 0.15212,-0.261615 0.61848,-0.244914 0.89838,-0.130003 z"
         id="path8573-1-8-6-5-30" />
      <path
         style="fill:#581277;fill-opacity:1;stroke:#000000;stroke-width:0;stroke-linecap:butt;stroke-linejoin:miter;stroke-dasharray:none;stroke-opacity:1"
         d="m 126.56376,53.563336 c 0.58761,-0.05063 1.08999,-1.028989 1.62737,-0.764072 0.16864,0.08323 0.17197,0.370542 0.11092,0.546231 -0.10032,0.28906 -0.42467,0.46563 -0.703,0.600613 -0.30442,0.147611 -0.65974,0.230882 -0.9976,0.199709 -0.43767,-0.04045 -0.97578,-0.131516 -1.22101,-0.490695 -0.27082,-0.980909 0.8725,-0.0824 1.18326,-0.0919 z"
         id="path8680-5-7-8-0-7-0" />
      <path
         style="fill:#581277;fill-opacity:1;stroke:#000000;stroke-width:0;stroke-linecap:butt;stroke-linejoin:miter;stroke-dasharray:none;stroke-opacity:1"
         d="m 138.33888,55.280857 c 0,0 -0.0469,-1.441819 0.46377,-1.781725 0.42552,-0.283089 1.2229,-0.200218 1.51765,0.217359 0.87082,1.233774 0.61633,4.550728 -0.89595,4.441319 -1.27477,-0.09203 -3.07786,-0.570416 -3.76759,-1.775493 -0.25534,-0.446136 -0.17012,-1.125576 0.13957,-1.535917 0.82333,-1.091224 2.60882,0.169637 2.54265,0.434457 z"
         id="path8956-3-7-2-0-2-3" />
      <path
         style="fill:#f6e1ff;fill-opacity:1;stroke:#000000;stroke-width:0;stroke-linecap:butt;stroke-linejoin:miter;stroke-dasharray:none;stroke-opacity:1"
         d="m 138.6032,55.724916 c 0,0 -0.0349,-1.075267 0.34587,-1.328765 0.31734,-0.2111 0.91201,-0.149304 1.13183,0.162111 0.64942,0.920103 0.45964,3.3938 -0.66818,3.312221 -0.95069,-0.06865 -2.29538,-0.425404 -2.80978,-1.324115 -0.19041,-0.332724 -0.12687,-0.839432 0.10417,-1.145454 0.61403,-0.813804 1.9456,0.126563 1.89624,0.324002 z"
         id="path8956-3-7-95-9-0" />
      <path
         style="fill:#faeeff;fill-opacity:1;stroke:#000000;stroke-width:0;stroke-linecap:butt;stroke-linejoin:miter;stroke-dasharray:none;stroke-opacity:1"
         d="m 138.78025,56.17229 c 0,0 -0.0246,-0.757097 0.24351,-0.935593 0.22344,-0.148643 0.64218,-0.10524 0.79693,0.114045 0.45728,0.647854 0.32366,2.389615 -0.47047,2.33218 -0.66938,-0.04842 -1.61619,-0.299529 -1.97839,-0.932333 -0.13404,-0.234266 -0.0893,-0.591051 0.0733,-0.806526 0.43234,-0.573002 1.36992,0.08915 1.33518,0.228131 z"
         id="path8956-3-7-9-6-7-1" />
      <path
         style="fill:#581277;fill-opacity:1;stroke:#000000;stroke-width:0;stroke-linecap:butt;stroke-linejoin:miter;stroke-dasharray:none;stroke-opacity:1"
         d="m 138.86368,56.432296 c 0,0 -0.0176,-0.54132 0.17412,-0.668957 0.15975,-0.106203 0.45915,-0.07525 0.5698,0.08158 0.32695,0.463222 0.23142,1.708579 -0.33638,1.667528 -0.47863,-0.03467 -1.1556,-0.214167 -1.41457,-0.666631 -0.0959,-0.167504 -0.0639,-0.422612 0.0524,-0.576662 0.30914,-0.409722 0.9795,0.06369 0.95467,0.163115 z"
         id="path8956-3-7-9-8-2-5-9" />
    </g>
  </g>
</svg>
