<?xml version="1.0" encoding="UTF-8" standalone="no"?>
<!-- Created with Inkscape (http://www.inkscape.org/) -->

<svg
   width="50mm"
   height="50mm"
   viewBox="0 0 50 50"
   version="1.1"
   id="svg4830"
   xmlns="http://www.w3.org/2000/svg"
   xmlns:svg="http://www.w3.org/2000/svg">
  <defs
     id="defs4827" />
  <g
     id="layer1">
    <g
       id="g4969"
       transform="translate(-61.237649,2.1068595)">
      <path
         style="fill:#f0dffc;fill-opacity:1;stroke:#000000;stroke-width:0;stroke-linecap:butt;stroke-linejoin:miter;stroke-dasharray:none;stroke-opacity:1"
         d="m 101.39429,21.899229 c 1.12675,-1.033319 -25.405647,-4.921015 -33.203994,-2.16969 -2.405599,0.848722 0.843934,5.294978 2.750803,6.850089 1.915721,1.562329 5.802032,1.435868 7.297099,1.322906 6.278126,-0.474351 11.121665,-2.094909 16.552745,-3.653933 2.245589,-0.644612 6.603347,-2.349372 6.603347,-2.349372 z"
         id="path8565-9-5-6-9-4-8" />
      <path
         style="fill:#d7b3f1;fill-opacity:1;stroke:#000000;stroke-width:0;stroke-linecap:butt;stroke-linejoin:miter;stroke-dasharray:none;stroke-opacity:1"
         d="m 101.04024,21.899229 c 1.70468,-1.134578 -25.405642,-4.921015 -33.203998,-2.16969 -1.110929,0.391945 -0.845264,1.380404 -0.02843,2.856489 7.27251,1.467941 8.842818,3.993092 11.981417,4.59151 1.467891,0.144287 2.655873,0.178164 4.226037,-0.640456 3.588595,-1.870948 8.252994,-5.608118 16.257574,-4.222319 2.60827,-1.2507 0.76749,-0.415534 0.76749,-0.415534 z"
         id="path8565-9-5-6-4-0-80-1" />
      <path
         style="fill:#d7b3f1;fill-opacity:1;stroke:#000000;stroke-width:0;stroke-linecap:butt;stroke-linejoin:miter;stroke-dasharray:none;stroke-opacity:1"
         d="m 105.09682,18.762414 c 0.22793,0.17634 -0.0705,2.224567 -1.38926,3.105662 0.65351,1.01028 2.88028,3.508158 0.80901,3.181396 -2.07128,-0.326778 -4.548768,-3.237956 -4.24382,-2.734709 -2.007182,-1.501101 4.59612,-3.72869 4.82407,-3.552349 z"
         id="path8567-5-5-5-5-6-4" />
      <path
         style="fill:#954dc9;fill-opacity:1;stroke:#000000;stroke-width:0;stroke-linecap:butt;stroke-linejoin:miter;stroke-dasharray:none;stroke-opacity:1"
         d="m 104.80888,20.49675 c -0.23336,0.514476 -0.59091,1.030313 -1.10132,1.371326 0.65351,1.01028 2.88028,3.508175 0.80901,3.181396 -0.94462,-0.14903 -1.97373,-0.835581 -2.78486,-1.490645 -0.96745,-0.781301 -1.18194,-1.162193 -1.01608,-0.888458 3.47428,2.26906 4.16987,2.10179 3.98195,1.366235 -0.80528,-1.997814 -1.47603,-2.007481 -1.37918,-2.189217 0.0621,-0.116521 0.45075,-0.149649 1.49048,-1.350637 z"
         id="path8567-5-5-5-5-3-0-7" />
      <path
         style="fill:#d7b3f1;fill-opacity:1;stroke:#000000;stroke-width:0;stroke-linecap:butt;stroke-linejoin:miter;stroke-dasharray:none;stroke-opacity:1"
         d="m 87.826904,29.787643 c -1.195111,1.797188 -8.037772,-2.610105 -8.037772,-2.610105 0,0 2.855897,-1.031317 4.226036,-0.640456 1.605541,0.458003 3.203427,3.360713 3.811736,3.250561 z"
         id="path8573-1-8-5-5-3-1" />
      <path
         style="fill:#954dc9;fill-opacity:1;stroke:#000000;stroke-width:0;stroke-linecap:butt;stroke-linejoin:miter;stroke-dasharray:none;stroke-opacity:1"
         d="m 87.826904,29.787643 c -1.05139,0.499816 -0.916982,-0.88535 -4.018889,-2.971687 -0.171022,-0.115022 -0.0072,-0.381577 0.207153,-0.278874 1.605541,0.458011 3.203427,3.360713 3.811736,3.250561 z"
         id="path8573-1-8-5-5-0-2-3" />
      <path
         style="fill:#3b1954;fill-opacity:1;stroke:#000000;stroke-width:0;stroke-linecap:butt;stroke-linejoin:miter;stroke-dasharray:none;stroke-opacity:1"
         d="m 71.081121,21.331389 c 0.582765,-0.0502 1.080994,-1.020719 1.613937,-0.757933 0.167261,0.08254 0.170553,0.367551 0.110074,0.54185 -0.09952,0.286733 -0.421158,0.461886 -0.697184,0.595779 -0.301901,0.146416 -0.654289,0.229018 -0.989353,0.198107 -0.43408,-0.04017 -0.967741,-0.130471 -1.21095,-0.486759 -0.268586,-0.97303 0.8653,-0.08188 1.173494,-0.0911 z"
         id="path8680-5-7-8-5-6-6-8" />
      <path
         style="fill:none;stroke:#ca1004;stroke-width:0.465;stroke-linecap:round;stroke-linejoin:miter;stroke-dasharray:none;stroke-opacity:1"
         d="m 69.09086,24.407867 c 1.027174,0.06774 1.711924,0.128682 2.714413,-0.371263"
         id="path28359-3-9-4" />
      <path
         style="fill:#ffffff;fill-opacity:1;stroke:#3b1954;stroke-width:0.264999;stroke-linecap:butt;stroke-linejoin:miter;stroke-dasharray:none;stroke-opacity:1"
         d="m 69.107707,24.634256 c 0.903058,0.01713 1.84299,0.08753 2.772909,-0.324421 -0.188603,-0.0047 0.04087,1.068728 -0.142949,1.169414 -0.225349,0.123441 -0.87826,-0.884896 -0.87826,-0.884896 -0.08824,0.04622 0.03942,1.07303 -0.12334,1.06887 -0.290046,-0.0072 -0.869233,-0.855448 -0.869233,-0.855448 -0.04398,-0.01101 -0.05919,0.656165 -0.229332,0.60218 -0.280146,-0.211207 -0.37992,-0.474278 -0.529798,-0.775699 z"
         id="path28361-2-4-8" />
      <path
         style="fill:#d7b3f1;fill-opacity:1;stroke:#000000;stroke-width:0;stroke-linecap:butt;stroke-linejoin:miter;stroke-dasharray:none;stroke-opacity:1"
         d="m 79.650971,19.186826 c 1.488998,-1.774405 5.455554,-3.774896 5.88995,-3.609338 0,0 -0.963439,2.196531 -0.627753,3.527565 z"
         id="path2273-1-0" />
      <path
         style="fill:#954dc9;fill-opacity:1;stroke:#000000;stroke-width:0;stroke-linecap:butt;stroke-linejoin:miter;stroke-dasharray:none;stroke-opacity:1"
         d="m 83.607194,19.009523 c 0.828608,-0.987432 0.589502,-0.932059 0.862461,-1.410975 0.377547,-0.662429 0.878603,-2.094491 1.071266,-2.02106 0,0 -0.963439,2.196531 -0.627753,3.527565 -0.443122,-0.0498 -0.870963,-0.07443 -1.305974,-0.09553 z"
         id="path2273-9-3-4" />
      <g
         id="g9343-78-6"
         transform="matrix(0.83832118,0,0,0.62682412,12.524969,-108.2627)"
         style="fill:#3b1954;fill-opacity:1;stroke-width:1.3795">
        <path
           style="fill:#3b1954;fill-opacity:1;stroke:#000000;stroke-width:0;stroke-linecap:butt;stroke-linejoin:miter;stroke-dasharray:none;stroke-opacity:1"
           d="m 74.67348,214.57689 c -0.02748,0.43274 0.221968,0.92579 0.30462,0.64068 0.395862,-1.36549 0.374891,-4.25109 -0.0219,-6.13887 -0.06774,-0.3223 -0.210341,-0.87564 -0.372324,-0.74112 0.295836,2.23069 0.184299,4.58288 0.08961,6.23931 z"
           id="path8569-8-8-0" />
        <path
           style="fill:#3b1954;fill-opacity:1;stroke:#000000;stroke-width:0;stroke-linecap:butt;stroke-linejoin:miter;stroke-dasharray:none;stroke-opacity:1"
           d="m 75.624643,214.65649 c -0.02577,0.38491 0.208132,0.82347 0.285632,0.56987 0.371187,-1.21458 0.351523,-3.78127 -0.02053,-5.46042 -0.06352,-0.28668 -0.19723,-0.77887 -0.349116,-0.65922 0.277396,1.98417 0.172811,4.0764 0.08402,5.54977 z"
           id="path8569-8-6-3-3" />
        <path
           style="fill:#3b1954;fill-opacity:1;stroke:#000000;stroke-width:0;stroke-linecap:butt;stroke-linejoin:miter;stroke-dasharray:none;stroke-opacity:1"
           d="m 76.540435,215.55684 c -0.02577,0.38491 0.208132,0.82347 0.285632,0.56987 0.371187,-1.21458 0.351523,-3.78127 -0.02053,-5.46042 -0.06352,-0.28668 -0.19723,-0.77887 -0.349116,-0.65922 0.277396,1.98417 0.172811,4.0764 0.08402,5.54977 z"
           id="path8569-8-6-5-8-2" />
      </g>
      <path
         style="fill:#954dc9;fill-opacity:1;stroke:#000000;stroke-width:0;stroke-linecap:butt;stroke-linejoin:miter;stroke-dasharray:none;stroke-opacity:1"
         d="m 75.048312,26.125093 c -0.02304,0.271251 0.18608,0.580307 0.255368,0.401594 0.33186,-0.855923 0.314279,-2.664687 -0.01836,-3.847992 -0.05679,-0.202026 -0.176334,-0.548873 -0.312127,-0.464553 0.248005,1.39825 0.154501,2.87266 0.07512,3.910951 z"
         id="path8569-8-62-5-9" />
      <path
         style="fill:#954dc9;fill-opacity:1;stroke:#000000;stroke-width:0;stroke-linecap:butt;stroke-linejoin:miter;stroke-dasharray:none;stroke-opacity:1"
         d="m 75.845691,26.174988 c -0.0216,0.241271 0.174482,0.516171 0.239451,0.357208 0.311174,-0.761328 0.294689,-2.370191 -0.01722,-3.422723 -0.05325,-0.179698 -0.165342,-0.488215 -0.292671,-0.413215 0.232547,1.243726 0.144871,2.555186 0.07044,3.47873 z"
         id="path8569-8-6-7-3-4" />
      <path
         style="fill:#954dc9;fill-opacity:1;stroke:#000000;stroke-width:0;stroke-linecap:butt;stroke-linejoin:miter;stroke-dasharray:none;stroke-opacity:1"
         d="m 76.613419,26.739349 c -0.0216,0.24127 0.174481,0.51617 0.239451,0.357208 0.311175,-0.761328 0.294689,-2.370192 -0.01721,-3.422722 -0.05326,-0.179699 -0.165341,-0.488215 -0.29267,-0.413216 0.232545,1.243725 0.14487,2.555186 0.07044,3.47873 z"
         id="path8569-8-6-5-0-5-1" />
    </g>
  </g>
</svg>
