<?xml version="1.0" encoding="UTF-8" standalone="no"?>
<!-- Created with Inkscape (http://www.inkscape.org/) -->

<svg
   width="50mm"
   height="50mm"
   viewBox="0 0 50 50"
   version="1.1"
   id="svg7227"
   xmlns="http://www.w3.org/2000/svg"
   xmlns:svg="http://www.w3.org/2000/svg">
  <defs
     id="defs7224" />
  <g
     id="layer1">
    <g
       id="g7201"
       transform="translate(-0.94192827,-91.292409)">
      <path
         style="fill:#b50b0b;fill-opacity:1;stroke:#000000;stroke-width:0;stroke-linecap:butt;stroke-linejoin:miter;stroke-dasharray:none;stroke-opacity:1"
         d="m 23.834315,126.18885 c 0,0 -5.202323,-0.18004 -3.676016,0.64561 1.893065,1.02405 11.118662,0.56164 12.468658,-0.0993 1.608885,-0.78772 -3.874722,-0.69526 -3.874722,-0.69526 0,0 13.908781,-7.28137 10.431945,-9.38608 -4.588316,-2.77755 -22.465567,-2.84376 -26.477273,-0.29797 -3.5939397,2.28067 11.127408,9.83303 11.127408,9.83303 z"
         id="path16449-4" />
      <path
         style="fill:#f04a4a;fill-opacity:1;stroke:#000000;stroke-width:0;stroke-linecap:butt;stroke-linejoin:miter;stroke-dasharray:none;stroke-opacity:1"
         d="m 26.329532,127.30022 c 0,0 -1.917387,-0.56936 -2.644242,-1.21069 -4.058512,-3.58095 -13.071543,-10.17363 -8.544262,-13.80598 3.914796,-3.14095 15.900869,-3.29169 20.963243,-0.0993 4.700144,2.96394 -3.531641,10.20407 -7.252685,13.85564 -0.670728,0.6582 -2.522054,1.26035 -2.522054,1.26035 z"
         id="path18692-0" />
      <path
         style="fill:#f76c6c;fill-opacity:1;stroke:#000000;stroke-width:0;stroke-linecap:butt;stroke-linejoin:miter;stroke-dasharray:none;stroke-opacity:1"
         d="m 26.329532,127.30022 c 0,0 -14.084007,-14.07487 -8.719288,-18.06955 3.872129,-2.88327 13.158798,-2.45874 15.954727,-2e-5 4.872775,4.28508 -7.235439,18.06957 -7.235439,18.06957 z"
         id="path18694-5" />
      <path
         style="fill:#fc9e9e;fill-opacity:1;stroke:#000000;stroke-width:0;stroke-linecap:butt;stroke-linejoin:miter;stroke-dasharray:none;stroke-opacity:1"
         d="m 26.32953,127.30023 c 0,0 -9.340008,-14.67576 -5.08452,-20.13735 1.786899,-2.29334 6.859017,-2.23079 8.723455,0 4.374795,5.23445 -3.638935,20.13735 -3.638935,20.13735 z"
         id="path18696-7" />
      <path
         style="fill:#fed7d7;fill-opacity:1;stroke:#000000;stroke-width:0;stroke-linecap:butt;stroke-linejoin:miter;stroke-dasharray:none;stroke-opacity:1"
         d="m 26.32953,127.30023 c 0,0 -6.267174,-16.58151 -1.245514,-21.89534 0.323368,-0.34218 1.080937,-0.33413 1.412619,0 5.14267,5.18058 -0.167105,21.89534 -0.167105,21.89534 z"
         id="path19424-0" />
    </g>
  </g>
</svg>
