<?xml version="1.0" encoding="UTF-8" standalone="no"?>
<!-- Created with Inkscape (http://www.inkscape.org/) -->

<svg
   width="50mm"
   height="50mm"
   viewBox="0 0 50 50"
   version="1.1"
   id="svg3823"
   xmlns="http://www.w3.org/2000/svg"
   xmlns:svg="http://www.w3.org/2000/svg">
  <defs
     id="defs3820" />
  <g
     id="layer1">
    <g
       id="g3818"
       transform="translate(-157.86066,-32.476983)">
      <path
         style="fill:#b8f9fc;fill-opacity:1;stroke:#000000;stroke-width:0;stroke-linecap:butt;stroke-linejoin:miter;stroke-dasharray:none;stroke-opacity:1"
         d="m 192.7896,58.123308 c 1.13614,-1.0417 -13.52515,-10.272112 -21.3884,-7.498515 -2.42563,0.855583 -3.29311,3.96046 -3.05151,6.273339 0.31557,3.021043 2.77082,6.071718 5.59312,7.193002 3.50747,1.393505 7.61517,-0.02834 11.18599,-1.740276 2.62999,-1.26082 7.6608,-4.22755 7.6608,-4.22755 z"
         id="path8565-9-5-1-8-9" />
      <path
         style="opacity:0.5;fill:#2eedf6;fill-opacity:1;stroke:#000000;stroke-width:0;stroke-linecap:butt;stroke-linejoin:miter;stroke-dasharray:none;stroke-opacity:1"
         d="m 192.72876,58.123308 c -4.26102,-0.659437 -10.62627,5.409323 -16.13142,4.48955 -1.95619,-0.326822 -5.21112,-1.368522 -6.97228,-2.964158 -1.2235,-1.108531 -1.37233,-3.09643 -1.33619,-2.750568 0.31555,3.021043 2.77082,6.071718 5.59312,7.193002 3.50748,1.393505 7.61516,-0.02834 11.186,-1.740276 2.62997,-1.26082 7.66077,-4.22755 7.66077,-4.22755 z"
         id="path8565-9-5-1-5-4-0" />
      <path
         style="fill:#b8f9fc;fill-opacity:1;stroke:#000000;stroke-width:0;stroke-linecap:butt;stroke-linejoin:miter;stroke-dasharray:none;stroke-opacity:1"
         d="m 192.7896,58.123308 c -1.80254,-0.535322 3.62597,-4.735414 5.38359,-3.207105 0.70757,0.615277 -0.64519,1.728995 -1.35733,2.22793 -0.36784,0.257708 -1.32085,0.265797 -1.32085,0.265797 0,0.113494 3.48484,0.464282 4.00805,0.613159 0.98965,0.281617 -1.05916,1.865642 -1.99492,2.059133 -1.66768,0.344816 -4.71854,-1.9589 -4.71854,-1.9589 z"
         id="path8567-5-5-1-0-7" />
      <path
         style="fill:#73f3fa;fill-opacity:1;stroke:#000000;stroke-width:0;stroke-linecap:butt;stroke-linejoin:miter;stroke-dasharray:none;stroke-opacity:1"
         d="m 195.20134,57.284206 c 0.0615,-0.141586 0,0 0,0 0,0 1.99972,-0.620285 2.27205,-1.482802 0.0815,-0.257983 0.008,-0.708356 -0.30163,-0.753451 -1.66548,-0.24175 -3.87388,1.588977 -4.00567,1.490601 -0.13183,-0.09836 3.39909,-2.862769 5.00713,-1.622351 0.74243,0.5727 -0.64518,1.728995 -1.35733,2.22793 -0.36783,0.257708 -1.32085,0.265797 -1.32085,0.265797 0,0.113494 3.48485,0.464282 4.00806,0.613159 0.98963,0.281617 -1.05916,1.865656 -1.99493,2.059133 -0.78196,0.161671 -1.17991,-0.05173 -2.16113,-0.439176 -1.10084,-0.434745 1.79576,0.524606 3.24897,-0.781254 0.92818,-0.83404 -3.65055,-0.988777 -3.39467,-1.577586 z"
         id="path8567-5-5-0-0-0-1" />
      <path
         style="fill:#edfdfe;fill-opacity:1;stroke:#000000;stroke-width:0;stroke-linecap:butt;stroke-linejoin:miter;stroke-dasharray:none;stroke-opacity:1"
         d="m 176.64323,61.409666 c -0.10101,0.718028 0.81582,1.536123 1.11959,1.063065 1.45497,-2.265679 1.37789,-7.05359 -0.0805,-10.185871 -0.24898,-0.534772 -0.77309,-1.452893 -1.36845,-1.229688 1.08733,3.701239 0.67739,7.604086 0.32935,10.352494 z"
         id="path8569-4-4-1-9-6" />
      <path
         style="fill:#b8f9fc;fill-opacity:1;stroke:#000000;stroke-width:0;stroke-linecap:butt;stroke-linejoin:miter;stroke-dasharray:none;stroke-opacity:1"
         d="m 166.61977,55.610968 c -0.55981,0.4296 0.0504,1.347653 0.15284,1.303535 -0.18936,-0.144654 -1.22013,0.63627 -0.64577,1.299435 0.32832,0.379058 0.91105,0.487517 1.36506,0.349728 2.50254,-1.607397 0.38609,-3.809877 -0.87213,-2.952698 z"
         id="path8571-9-1-8-3-09" />
      <path
         style="fill:#03565a;fill-opacity:1;stroke:#000000;stroke-width:0;stroke-linecap:butt;stroke-linejoin:miter;stroke-dasharray:none;stroke-opacity:1"
         d="m 166.61977,55.610968 c -0.55981,0.4296 0.0504,1.347653 0.15284,1.303535 -0.18936,-0.144654 -1.22016,0.636284 -0.64577,1.299435 0.12068,0.139413 0.15171,0.185264 0.32223,0.252687 0.29312,0.115833 0.47578,-0.494065 0.57368,-0.810158 0.12935,-0.644593 0.27683,-2.185971 -0.40303,-2.045499 0,-1.4e-5 4e-5,0 5e-5,0 z"
         id="path8571-9-1-2-7-7-2" />
      <path
         style="fill:#03565a;fill-opacity:1;stroke:#000000;stroke-width:0;stroke-linecap:butt;stroke-linejoin:miter;stroke-dasharray:none;stroke-opacity:1"
         d="m 181.46822,62.000332 c 1.02569,0.421223 2.75221,1.830824 2.00773,2.652661 -0.66228,0.731069 -1.88985,-0.789577 -2.5233,-1.545753 -0.22459,-0.268094 -0.55863,-0.674597 -0.38282,-0.976932 0.15213,-0.261615 0.61848,-0.244915 0.89839,-0.130003 z"
         id="path8573-1-8-6-5-9" />
      <path
         style="fill:#03565a;fill-opacity:1;stroke:#000000;stroke-width:0;stroke-linecap:butt;stroke-linejoin:miter;stroke-dasharray:none;stroke-opacity:1"
         d="m 172.16173,54.475294 c 0.5876,-0.05062 1.08998,-1.028988 1.62737,-0.764072 0.16864,0.08323 0.17197,0.370529 0.11091,0.546232 -0.10031,0.28906 -0.42467,0.46563 -0.703,0.600612 -0.30441,0.147612 -0.65975,0.230882 -0.99759,0.199709 -0.43767,-0.04044 -0.97578,-0.131516 -1.22102,-0.490695 -0.27081,-0.980908 0.87251,-0.0824 1.18327,-0.0919 z"
         id="path8680-5-7-8-0-7-6" />
      <path
         style="fill:#03565a;fill-opacity:1;stroke:#000000;stroke-width:0;stroke-linecap:butt;stroke-linejoin:miter;stroke-dasharray:none;stroke-opacity:1"
         d="m 183.93685,56.192816 c 0,0 -0.0469,-1.44182 0.46377,-1.781725 0.42552,-0.28309 1.2229,-0.200218 1.51765,0.217359 0.87082,1.233774 0.61632,4.550727 -0.89595,4.441319 -1.27478,-0.09203 -3.07786,-0.570416 -3.76759,-1.775493 -0.25535,-0.446137 -0.17012,-1.125576 0.13957,-1.535917 0.82333,-1.091225 2.60882,0.169636 2.54264,0.434457 z"
         id="path8956-3-7-2-0-2-0" />
      <path
         style="fill:#b8f9fc;fill-opacity:1;stroke:#000000;stroke-width:0;stroke-linecap:butt;stroke-linejoin:miter;stroke-dasharray:none;stroke-opacity:1"
         d="m 184.20117,56.636875 c 0,0 -0.0349,-1.075267 0.34587,-1.328765 0.31734,-0.211114 0.91201,-0.149304 1.13183,0.162111 0.64942,0.920103 0.45964,3.3938 -0.6682,3.312221 -0.95068,-0.06865 -2.29536,-0.425404 -2.80976,-1.324115 -0.19041,-0.332725 -0.12688,-0.839433 0.10417,-1.145455 0.61403,-0.813803 1.9456,0.126564 1.89624,0.324003 z"
         id="path8956-3-7-95-9-2" />
      <path
         style="fill:#edfdfe;fill-opacity:1;stroke:#000000;stroke-width:0;stroke-linecap:butt;stroke-linejoin:miter;stroke-dasharray:none;stroke-opacity:1"
         d="m 184.3782,57.084249 c 0,0 -0.0246,-0.757097 0.24353,-0.935593 0.22344,-0.148643 0.64216,-0.10524 0.79693,0.114182 0.45726,0.647854 0.32364,2.389615 -0.47048,2.33218 -0.66939,-0.04842 -1.61618,-0.299529 -1.97839,-0.932333 -0.13403,-0.234266 -0.0893,-0.591051 0.0732,-0.806525 0.43235,-0.573016 1.36992,0.08914 1.33518,0.22813 z"
         id="path8956-3-7-9-6-7-8" />
      <path
         style="fill:#03565a;fill-opacity:1;stroke:#000000;stroke-width:0;stroke-linecap:butt;stroke-linejoin:miter;stroke-dasharray:none;stroke-opacity:1"
         d="m 184.46165,57.344241 c 0,0 -0.0176,-0.541307 0.17412,-0.668943 0.15975,-0.106204 0.45915,-0.07525 0.5698,0.08158 0.32693,0.463223 0.23142,1.70858 -0.33639,1.667529 -0.47862,-0.03467 -1.15559,-0.214167 -1.41457,-0.666632 -0.0959,-0.167504 -0.0639,-0.422612 0.0524,-0.576662 0.30914,-0.409721 0.97949,0.06369 0.95465,0.163102 z"
         id="path8956-3-7-9-8-2-5-4" />
    </g>
  </g>
</svg>
