<?xml version="1.0" encoding="UTF-8" standalone="no"?>
<!-- Created with Inkscape (http://www.inkscape.org/) -->

<svg
   width="50mm"
   height="50mm"
   viewBox="0 0 50 50"
   version="1.1"
   id="svg7846"
   xmlns="http://www.w3.org/2000/svg"
   xmlns:svg="http://www.w3.org/2000/svg">
  <defs
     id="defs7843" />
  <g
     id="layer1">
    <g
       id="g7222"
       transform="translate(-155.13489,-92.891612)">
      <path
         style="fill:#08cea4;fill-opacity:1;stroke:#000000;stroke-width:0;stroke-linecap:butt;stroke-linejoin:miter;stroke-dasharray:none;stroke-opacity:1"
         d="m 178.02728,127.78806 c 0,0 -5.20233,-0.18004 -3.67601,0.64561 1.89305,1.02403 11.11865,0.56164 12.46866,-0.0993 1.60888,-0.78773 -3.87473,-0.69527 -3.87473,-0.69527 0,0 13.90878,-7.28136 10.43194,-9.38609 -4.58831,-2.77754 -22.46556,-2.84374 -26.47726,-0.29796 -3.59395,2.28068 11.1274,9.83304 11.1274,9.83304 z"
         id="path16449-4-0" />
      <path
         style="fill:#09ebbb;fill-opacity:1;stroke:#000000;stroke-width:0;stroke-linecap:butt;stroke-linejoin:miter;stroke-dasharray:none;stroke-opacity:1"
         d="m 180.5225,128.89942 c 0,0 -1.91739,-0.56936 -2.64425,-1.21069 -4.0585,-3.58095 -13.07153,-10.17362 -8.54426,-13.80598 3.9148,-3.14095 15.90088,-3.29168 20.96325,-0.0993 4.70014,2.96394 -3.53164,10.20407 -7.25268,13.85564 -0.67074,0.65821 -2.52206,1.26035 -2.52206,1.26035 z"
         id="path18692-0-87" />
      <path
         style="fill:#71fcde;fill-opacity:1;stroke:#000000;stroke-width:0;stroke-linecap:butt;stroke-linejoin:miter;stroke-dasharray:none;stroke-opacity:1"
         d="m 180.5225,128.89942 c 0,0 -14.08402,-14.07486 -8.71929,-18.06955 3.87213,-2.88327 13.15879,-2.45873 15.95472,-1e-5 4.87279,4.28508 -7.23543,18.06956 -7.23543,18.06956 z"
         id="path18694-5-3" />
      <path
         style="fill:#c2fef1;fill-opacity:1;stroke:#000000;stroke-width:0;stroke-linecap:butt;stroke-linejoin:miter;stroke-dasharray:none;stroke-opacity:1"
         d="m 180.5225,128.89944 c 0,0 -9.34001,-14.67577 -5.08451,-20.13735 1.78689,-2.29335 6.85901,-2.2308 8.72345,0 4.37479,5.23445 -3.63894,20.13735 -3.63894,20.13735 z"
         id="path18696-7-8" />
      <path
         style="fill:#e2fef8;fill-opacity:1;stroke:#000000;stroke-width:0;stroke-linecap:butt;stroke-linejoin:miter;stroke-dasharray:none;stroke-opacity:1"
         d="m 180.5225,128.89944 c 0,0 -6.26718,-16.58151 -1.24551,-21.89535 0.32337,-0.34217 1.08094,-0.33413 1.41262,0 5.14266,5.18059 -0.16711,21.89535 -0.16711,21.89535 z"
         id="path19424-0-4" />
    </g>
  </g>
</svg>
