<?xml version="1.0" encoding="UTF-8" standalone="no"?>
<!-- Created with Inkscape (http://www.inkscape.org/) -->

<svg
   width="50mm"
   height="50mm"
   viewBox="0 0 50 50"
   version="1.1"
   id="svg7649"
   xmlns="http://www.w3.org/2000/svg"
   xmlns:svg="http://www.w3.org/2000/svg">
  <defs
     id="defs7646" />
  <g
     id="layer1">
    <g
       id="g7215"
       transform="translate(-109.53694,-91.979654)">
      <path
         style="fill:#f5aa10;fill-opacity:1;stroke:#000000;stroke-width:0;stroke-linecap:butt;stroke-linejoin:miter;stroke-dasharray:none;stroke-opacity:1"
         d="m 132.42933,126.8761 c 0,0 -5.20232,-0.18004 -3.67602,0.64561 1.89306,1.02404 11.11867,0.56164 12.46866,-0.0993 1.60889,-0.78772 -3.87472,-0.69527 -3.87472,-0.69527 0,0 13.90878,-7.28136 10.43194,-9.38607 -4.58832,-2.77756 -22.46556,-2.84376 -26.47727,-0.29798 -3.59394,2.28068 11.12741,9.83304 11.12741,9.83304 z"
         id="path16449-4-9" />
      <path
         style="fill:#f9b936;fill-opacity:1;stroke:#000000;stroke-width:0;stroke-linecap:butt;stroke-linejoin:miter;stroke-dasharray:none;stroke-opacity:1"
         d="m 134.92454,127.98748 c 0,0 -1.91739,-0.56937 -2.64424,-1.21071 -4.05851,-3.58095 -13.07154,-10.17362 -8.54426,-13.80598 3.91479,-3.14095 15.90087,-3.29168 20.96324,-0.0993 4.70014,2.96394 -3.53163,10.20407 -7.25268,13.85564 -0.67074,0.65821 -2.52206,1.26036 -2.52206,1.26036 z"
         id="path18692-0-8" />
      <path
         style="fill:#fdd073;fill-opacity:1;stroke:#000000;stroke-width:0;stroke-linecap:butt;stroke-linejoin:miter;stroke-dasharray:none;stroke-opacity:1"
         d="m 134.92454,127.98748 c 0,0 -14.084,-14.07488 -8.71928,-18.06957 3.87212,-2.88326 13.1588,-2.45873 15.95472,-1e-5 4.87278,4.28508 -7.23544,18.06958 -7.23544,18.06958 z"
         id="path18694-5-1" />
      <path
         style="fill:#fee1a5;fill-opacity:1;stroke:#000000;stroke-width:0;stroke-linecap:butt;stroke-linejoin:miter;stroke-dasharray:none;stroke-opacity:1"
         d="m 134.92454,127.98748 c 0,0 -9.34,-14.67577 -5.08452,-20.13735 1.7869,-2.29333 6.85902,-2.23079 8.72345,0 4.3748,5.23446 -3.63893,20.13735 -3.63893,20.13735 z"
         id="path18696-7-1" />
      <path
         style="fill:#fff4df;fill-opacity:1;stroke:#000000;stroke-width:0;stroke-linecap:butt;stroke-linejoin:miter;stroke-dasharray:none;stroke-opacity:1"
         d="m 134.92454,127.98748 c 0,0 -6.26717,-16.58151 -1.24551,-21.89535 0.32336,-0.34217 1.08093,-0.33413 1.41261,0 5.14268,5.18059 -0.1671,21.89535 -0.1671,21.89535 z"
         id="path19424-0-6" />
    </g>
  </g>
</svg>
