<?xml version="1.0" encoding="UTF-8" standalone="no"?>
<!-- Created with Inkscape (http://www.inkscape.org/) -->

<svg
   width="50mm"
   height="50mm"
   viewBox="0 0 50 50"
   version="1.1"
   id="svg6616"
   xmlns="http://www.w3.org/2000/svg"
   xmlns:svg="http://www.w3.org/2000/svg">
  <defs
     id="defs6613" />
  <g
     id="layer1">
    <g
       id="g6611"
       transform="translate(-109.92261,-64.274553)">
      <path
         style="fill:#fee1a5;fill-opacity:1;stroke:#000000;stroke-width:0;stroke-linecap:butt;stroke-linejoin:miter;stroke-dasharray:none;stroke-opacity:1"
         d="m 123.51469,84.621009 c 0,0 -4.17422,-1.192393 -5.01703,0.371643 -0.61404,1.139498 0.59123,2.803477 1.58919,3.563395 1.34992,1.027929 3.27591,0.574681 4.92793,0.56926 2.56003,-0.3575 0.69811,1.567228 0.50201,2.153189 -0.66522,2.026185 1.33109,5.55915 3.26283,5.251477 0.59274,-0.09437 0.16231,-1.341959 0.52734,-1.854802 1.04472,-1.006744 0.76361,-1.214597 0.10293,-0.100701 0.65589,0.497643 2.54233,0.513188 5.03767,0.735802 3.14194,0.280311 6.61625,0.11432 9.24195,0.06149 2.59372,-0.05214 4.46209,-0.117621 2.67631,-0.02339 0,0 0.3451,1.269019 1.2193,1.517207 1.17294,0.332999 2.1825,-0.326823 3.68902,-0.836764 0.86683,-0.293421 -0.85283,-1.223745 -1.34851,-2.045486 -0.42823,-0.709897 -0.38824,-1.100964 -1.31561,-1.366926 -6.19567,-1.776952 -16.79823,-10.107635 -16.79823,-10.107635 z"
         id="path21022-1-8-3-5" />
      <g
         id="g3218-7-9-31"
         style="opacity:0.670769;fill:#fdc043;fill-opacity:1;stroke-width:0.726798"
         transform="matrix(1.3761,0,0,1.37569,72.068483,-107.33457)">
        <path
           style="fill:#fdc043;fill-opacity:1;stroke:#000000;stroke-width:0;stroke-linecap:butt;stroke-linejoin:miter;stroke-dasharray:none;stroke-opacity:1"
           d="m 40.784642,146.54764 c -0.365469,0.43204 -0.138986,1.63667 0.426863,1.64311 0.467193,0.005 0.11795,-0.97548 0.383209,-1.34827 -0.03017,0.0331 0.09602,-0.10607 0.07475,-0.0732 0.148939,0.0998 0.527581,0.20529 0.9621,0.28269 0.769316,0.13704 2.761144,0.24881 2.767249,0.25535 -0.499274,-0.0567 -2.877913,-0.55112 -3.942996,-0.84977 -0.217347,-0.0609 -0.522551,-0.0798 -0.671175,0.09 -9e-6,1e-5 0,4e-5 0,4e-5 z"
           id="path21022-1-2-74-9-1" />
        <path
           style="opacity:0.670769;fill:#fdc043;fill-opacity:1;stroke:#000000;stroke-width:0;stroke-linecap:butt;stroke-linejoin:miter;stroke-dasharray:none;stroke-opacity:1"
           d="m 39.401025,144.14147 c 0.353132,1.20102 14.473552,5.2517 16.881937,1.82537 -1.034991,0.46481 -12.743581,-0.006 -13.572881,-0.56584 -1.402712,-0.31557 -2.594263,-2.14892 -3.309056,-1.25953 z"
           id="path21022-1-2-74-9-0-2" />
        <path
           style="fill:#fdc043;fill-opacity:1;stroke:#000000;stroke-width:0;stroke-linecap:butt;stroke-linejoin:miter;stroke-dasharray:none;stroke-opacity:1"
           d="m 53.991195,147.33185 c 0,0 0.250775,0.92246 0.886048,1.10287 0.852367,0.24206 1.586012,-0.23756 2.680781,-0.60825 0.605543,-0.20504 -2.552949,0.87857 -2.984194,-0.36896 -0.01736,-0.0502 -0.0303,-0.1042 -0.03839,-0.1622 0.177367,0.04 -0.362831,0.0243 -0.544241,0.0365 z"
           id="path21022-1-2-2-4-7-6" />
        <path
           style="fill:#fdc043;fill-opacity:1;stroke:#000000;stroke-width:0;stroke-linecap:butt;stroke-linejoin:miter;stroke-dasharray:none;stroke-opacity:1"
           d="m 34.894538,142.39444 c 0.980971,0.74721 2.380576,0.41774 3.581082,0.4138 0.620962,-0.11774 0.933884,0.005 1.150759,0.4412 0.100557,0.20248 0.203553,0.42273 0.304711,0.65035 -4.684832,-1.63416 17.015155,1.52304 12.299735,-0.0206 -2.09179,-3.88557 -8.672442,-5.5085 -12.743262,-4.37259 -0.119257,0.0333 0.623367,0.87409 0.508908,1.33703 -0.1965,0.79476 -0.97759,1.50646 -1.84258,1.6234 -1.076928,0.14559 -2.732687,0.25906 -3.259353,-0.0726 z"
           id="path21022-1-2-7-9-0-9" />
      </g>
      <path
         style="fill:#e5ad81;fill-opacity:1;stroke:#453221;stroke-width:0;stroke-linecap:butt;stroke-linejoin:miter;stroke-dasharray:none;stroke-opacity:1"
         d="m 126.00803,83.268885 c -1.03465,0.52799 -3.25299,0.292513 -3.13095,1.520798 0.25453,2.561947 5.63237,-0.502622 7.00517,1.605279 0.93879,1.441475 -2.14117,3.731187 -0.66477,5.237086 0.59552,0.607423 17.96568,5.942142 20.72151,-0.55 0.28884,-0.680444 -1.05807,-0.967757 -1.58388,-1.455701 -2.02783,-1.881765 -3.62339,-4.483566 -6.05854,-5.676495 -4.20892,-2.061843 -9.17409,-2.850128 -13.73598,-2.04744 -0.93737,0.164945 -1.69393,0.928316 -2.55256,1.366473 z"
         id="path21020-5-1-3-1" />
      <path
         style="fill:#dfcab8;fill-opacity:1;stroke:#453221;stroke-width:0;stroke-linecap:butt;stroke-linejoin:miter;stroke-dasharray:none;stroke-opacity:1"
         d="m 130.16958,86.34219 c -1.25145,-1.650993 -5.06754,-2.851709 -5.68024,-2.839025 -0.79821,0.01651 -1.67155,0.549285 -1.60625,1.289104 0.22634,2.564575 4.07052,1.074799 4.64734,2.903779 0.35109,1.113291 -2.62695,1.672743 -1.24221,3.263371 0.5848,0.671749 21.52895,8.145556 24.40907,0.907501 0.27331,-0.686827 -1.64432,-2.187636 -2.33616,-2.237986 -0.46912,-0.03426 -1.06139,1.715086 -1.9439,2.028482 -5.35753,1.902497 -13.53684,0.683966 -17.01725,-1.900185 -0.81725,-0.60679 1.76248,-2.105178 0.7696,-3.415041 z"
         id="path21020-0-0-5-9-9" />
      <path
         style="fill:#e2d1c2;fill-opacity:1;stroke:#000000;stroke-width:0;stroke-linecap:round;stroke-linejoin:round;stroke-dasharray:none;stroke-opacity:1"
         d="m 132.16128,86.729681 c -0.79327,0.837712 -2.3346,2.39044 -1.52695,3.055572 0.72482,0.596926 3.62067,2.029803 4.93941,1.243665 1.02607,-0.611659 0.19324,-2.55815 -0.2549,-3.716055 -0.225,-0.581353 -0.55622,-1.316246 -1.16139,-1.46577 -0.70628,-0.174492 -1.41699,0.27097 -1.99617,0.882588 z"
         id="path25047-8-5-8-0" />
      <path
         style="fill:#e2d1c2;fill-opacity:1;stroke:#000000;stroke-width:0;stroke-linecap:round;stroke-linejoin:round;stroke-dasharray:none;stroke-opacity:1"
         d="m 136.96054,87.871091 c -0.21045,1.139429 -1.16831,2.958077 -0.16079,3.253121 2.15498,0.631029 2.03846,0.278165 2.80236,-0.02229 0.92301,-0.363086 0.78282,-2.290248 0.37888,-3.332843 -0.26357,-0.680333 -0.79468,-1.544143 -1.64796,-1.44054 -0.64466,0.07828 -1.27581,1.019167 -1.37249,1.542603 z"
         id="path25049-4-5-6-6" />
      <path
         style="fill:#e2d1c2;fill-opacity:1;stroke:#000000;stroke-width:0;stroke-linecap:round;stroke-linejoin:round;stroke-dasharray:none;stroke-opacity:1"
         d="m 141.39649,91.4813 c 1.02352,0.809415 1.30679,0.142893 2.82811,-0.177134 1.23,-0.258739 0.2499,-2.444353 -0.35984,-3.411821 -0.37383,-0.59317 -1.09255,-1.15115 -1.79193,-1.101515 -0.52866,0.03756 -1.03414,0.52052 -1.22337,1.01559 -0.44215,1.156831 -0.3713,2.948654 0.54703,3.67488 z"
         id="path25051-9-8-5-1" />
      <path
         style="fill:#e2d1c2;fill-opacity:1;stroke:#000000;stroke-width:0;stroke-linecap:round;stroke-linejoin:round;stroke-dasharray:none;stroke-opacity:1"
         d="m 145.0326,87.834731 c 0.15179,1.09886 0.0811,2.847844 1.15639,3.120492 0.69272,0.175648 1.61286,-1.412435 1.61286,-1.412435 l -2.64752,-3.219046 c 0,0 -0.19086,1.010444 -0.12178,1.510989 z"
         id="path25053-3-2-7-7" />
      <path
         style="fill:#e2d1c2;fill-opacity:1;stroke:#000000;stroke-width:0;stroke-linecap:round;stroke-linejoin:round;stroke-dasharray:none;stroke-opacity:1"
         d="m 136.56119,86.038094 c 0.76203,-0.07277 1.41809,-0.778875 1.77655,-1.45526 0.21105,-0.398276 0.335,-0.949653 0.12178,-1.346745 -0.29452,-0.548364 -1.02344,-0.830119 -1.64329,-0.88688 -0.7855,-0.07195 -1.72993,0.135643 -2.25192,0.726956 -0.38314,0.434044 -0.51853,1.160917 -0.32432,1.706323 0.51905,0.896413 1.44555,1.339262 2.32126,1.255606 z"
         id="path25785-0-9-6-3" />
      <path
         style="fill:#e2d1c2;fill-opacity:1;stroke:#000000;stroke-width:0;stroke-linecap:round;stroke-linejoin:round;stroke-dasharray:none;stroke-opacity:1"
         d="m 140.08636,86.732652 c 0.58661,0.0399 1.05053,-0.6444 1.32492,-1.164398 0.19562,-0.370707 0.36651,-0.888021 0.15216,-1.248204 -0.42084,-0.707146 -1.5776,-1.341312 -2.29639,-0.90614 -0.38326,0.267888 -0.46184,0.880951 -0.40028,1.34449 0.10183,0.766795 0.544,1.876785 1.21959,1.974252 z"
         id="path25787-5-8-2-8" />
      <path
         style="fill:#e2d1c2;fill-opacity:1;stroke:#000000;stroke-width:0;stroke-linecap:round;stroke-linejoin:round;stroke-dasharray:none;stroke-opacity:1"
         d="m 142.08078,84.517145 c -0.20995,0.247211 -0.0513,0.692178 0.12399,0.965033 0.49225,0.766163 1.48646,1.81027 2.3198,1.44303 0.28853,-0.127114 0.17323,-0.929939 0.17323,-0.929939 l -1.67373,-1.510976 c 0,0 -0.73968,-0.206972 -0.94335,0.03288 z"
         id="path25789-2-2-7-70" />
      <path
         style="fill:#e2d1c2;fill-opacity:1;stroke:#000000;stroke-width:0;stroke-linecap:round;stroke-linejoin:round;stroke-dasharray:none;stroke-opacity:1"
         d="m 127.10675,83.7048 c 1.17049,0.622059 1.58483,1.164384 2.97292,1.079421 0.6832,-0.04182 0.55441,-1.123333 0.78887,-1.70353 0.10417,-0.257929 0.54129,-0.711659 0.27389,-0.78834 -1.12561,-0.322791 -1.61574,-0.246592 -2.37131,0.02834 -0.6781,0.246675 -2.41638,0.984512 -1.66437,1.384178 z"
         id="path25791-3-0-0-3" />
      <path
         style="fill:#e2d1c2;fill-opacity:1;stroke:#000000;stroke-width:0;stroke-linecap:round;stroke-linejoin:round;stroke-dasharray:none;stroke-opacity:1"
         d="m 131.82028,82.87713 c 0.3732,0.574543 1.40306,0.292554 2.05383,0.07841 0.32685,-0.107579 1.04939,-0.40056 0.80653,-0.644346 -0.45218,-0.453895 -2.09393,-0.173213 -2.55423,-0.199255 -0.2743,-0.01555 -0.45578,0.534827 -0.30613,0.765228 z"
         id="path26525-8-7-3-6" />
      <path
         style="fill:#e2d1c2;fill-opacity:1;stroke:#000000;stroke-width:0;stroke-linecap:round;stroke-linejoin:round;stroke-dasharray:none;stroke-opacity:1"
         d="m 130.84289,84.832811 c 0.0146,0.406021 0.25033,0.926678 0.64154,1.036362 0.59117,0.165757 1.24887,-0.362536 1.64236,-0.833833 0.2961,-0.354626 0.80945,-1.120197 0.3968,-1.327926 -0.50906,-0.256278 -1.51304,-0.283736 -1.96485,-0.242562 -0.51253,0.04677 -0.73443,0.853643 -0.71585,1.367959 z"
         id="path26527-7-4-9-9" />
      <path
         style="fill:#906101;fill-opacity:1;stroke:#000000;stroke-width:0;stroke-linecap:butt;stroke-linejoin:miter;stroke-dasharray:none;stroke-opacity:1"
         d="m 119.95156,86.09524 c 0.30267,-0.0282 0.56142,-0.571957 0.83821,-0.424717 0.0868,0.04636 0.0886,0.205955 0.0571,0.303629 -0.0517,0.160667 -0.21873,0.258808 -0.36209,0.333825 -0.15678,0.08199 -0.3398,0.128352 -0.51381,0.111018 -0.22543,-0.02256 -0.50259,-0.07305 -0.6289,-0.272744 -0.1395,-0.545214 0.44939,-0.04595 0.60944,-0.05104 z"
         id="path8680-5-7-8-5-6-4-9-8-8-9-1" />
    </g>
  </g>
</svg>
